<?xml version="1.0" encoding="utf-8" standalone="no"?>
<!DOCTYPE svg PUBLIC "-//W3C//DTD SVG 1.1//EN"
  "http://www.w3.org/Graphics/SVG/1.1/DTD/svg11.dtd">
<!-- Created with matplotlib (https://matplotlib.org/) -->
<svg height="135.817813pt" version="1.1" viewBox="0 0 183.42375 135.817813" width="183.42375pt" xmlns="http://www.w3.org/2000/svg" xmlns:xlink="http://www.w3.org/1999/xlink">
 <defs>
  <style type="text/css">
*{stroke-linecap:butt;stroke-linejoin:round;}
  </style>
 </defs>
 <g id="figure_1">
  <g id="patch_1">
   <path d="M 0 135.817813 
L 183.42375 135.817813 
L 183.42375 0 
L 0 0 
z
" style="fill:#ffffff;"/>
  </g>
  <g id="axes_1">
   <g id="patch_2">
    <path d="M 37.44875 113.982812 
L 172.72375 113.982812 
L 172.72375 24.332812 
L 37.44875 24.332812 
z
" style="fill:#ffffff;"/>
   </g>
   <g id="line2d_1">
    <path clip-path="url(#p9940fb2e2b)" d="M 37.44875 113.982812 
L 172.72375 113.982812 
" style="fill:none;stroke:#000000;stroke-linecap:square;stroke-width:0.5;"/>
   </g>
   <g id="patch_3">
    <path clip-path="url(#p9940fb2e2b)" d="M 53.613687 113.94032 
Q 51.983427 113.961566 50.229991 113.972238 
Q 48.476556 113.982812 46.60719 113.982812 
Q 42.383005 113.982812 39.915877 113.919559 
Q 37.44875 113.856306 37.44875 113.748135 
Q 37.44875 113.638702 39.959351 113.575934 
Q 42.473575 113.513166 46.846295 113.513166 
Q 48.530898 113.513166 50.074211 113.521703 
Q 51.621147 113.530143 52.990565 113.54683 
L 52.990565 113.640448 
Q 51.577673 113.619008 50.179272 113.608434 
Q 48.780871 113.597762 47.375224 113.597762 
Q 44.774053 113.597762 43.364784 113.636762 
Q 41.955514 113.675665 41.955514 113.748135 
Q 41.955514 113.819925 43.314064 113.859119 
Q 44.672615 113.898216 47.172347 113.898216 
Q 47.853434 113.898216 48.436705 113.895985 
Q 49.019976 113.893656 49.483694 113.888805 
L 49.483694 113.80091 
L 46.820936 113.80091 
L 46.820936 113.72262 
L 53.613687 113.72262 
z
" style="fill:#ffa600;"/>
   </g>
   <g id="patch_4">
    <path clip-path="url(#p9940fb2e2b)" d="M 48.646216 113.401208 
L 42.429441 113.401208 
L 41.447845 113.513166 
L 37.44875 113.513166 
L 43.159854 112.898584 
L 47.902583 112.898584 
L 53.613687 113.513166 
L 49.617897 113.513166 
z
M 43.420952 113.287143 
L 47.64479 113.287143 
L 45.536176 113.04268 
z
" style="fill:#008000;"/>
   </g>
   <g id="patch_5">
    <path clip-path="url(#p9940fb2e2b)" d="M 53.613687 112.842967 
Q 52.261518 112.870535 50.799383 112.884479 
Q 49.337249 112.898584 47.744785 112.898584 
Q 42.995902 112.898584 40.222326 112.794082 
Q 37.44875 112.689579 37.44875 112.510868 
Q 37.44875 112.331515 40.222326 112.227173 
Q 42.995902 112.122671 47.744785 112.122671 
Q 49.337249 112.122671 50.799383 112.136775 
Q 52.261518 112.15072 53.613687 112.178288 
L 53.613687 112.332957 
Q 52.2493 112.296414 50.92564 112.279424 
Q 49.601981 112.262434 48.139846 112.262434 
Q 45.516964 112.262434 44.014101 112.32863 
Q 42.515311 112.394665 42.515311 112.510868 
Q 42.515311 112.626589 44.014101 112.692785 
Q 45.516964 112.75882 48.139846 112.75882 
Q 49.601981 112.75882 50.92564 112.74183 
Q 52.2493 112.724681 53.613687 112.688137 
z
" style="fill:#0000ff;"/>
   </g>
   <g id="patch_6">
    <path clip-path="url(#p9940fb2e2b)" d="M 37.44875 111.054839 
L 53.613687 111.054839 
L 53.613687 111.263096 
L 47.798069 111.263096 
L 47.798069 112.122671 
L 43.275646 112.122671 
L 43.275646 111.263096 
L 37.44875 111.263096 
z
" style="fill:#ff0000;"/>
   </g>
   <g id="patch_7">
    <path clip-path="url(#p9940fb2e2b)" d="M 70.62941 113.920324 
Q 68.99915 113.951568 67.245714 113.967262 
Q 65.492279 113.982812 63.622914 113.982812 
Q 59.398728 113.982812 56.931601 113.889794 
Q 54.464473 113.796775 54.464473 113.637701 
Q 54.464473 113.476773 56.975074 113.384467 
Q 59.489298 113.292162 63.862019 113.292162 
Q 65.546621 113.292162 67.089934 113.304717 
Q 68.63687 113.317129 70.006289 113.341667 
L 70.006289 113.479341 
Q 68.593396 113.447812 67.194995 113.432261 
Q 65.796594 113.416567 64.390947 113.416567 
Q 61.789776 113.416567 60.380507 113.47392 
Q 58.971237 113.531129 58.971237 113.637701 
Q 58.971237 113.743275 60.329788 113.800912 
Q 61.688338 113.858407 64.188071 113.858407 
Q 64.869157 113.858407 65.452428 113.855126 
Q 66.035699 113.851702 66.499417 113.844568 
L 66.499417 113.715312 
L 63.836659 113.715312 
L 63.836659 113.60018 
L 70.62941 113.60018 
z
" style="fill:#ffa600;"/>
   </g>
   <g id="patch_8">
    <path clip-path="url(#p9940fb2e2b)" d="M 70.62941 113.210157 
Q 69.277241 113.250805 67.815107 113.271365 
Q 66.352972 113.292162 64.760508 113.292162 
Q 60.011625 113.292162 57.238049 113.138077 
Q 54.464473 112.983993 54.464473 112.720489 
Q 54.464473 112.45604 57.238049 112.302192 
Q 60.011625 112.148107 64.760508 112.148107 
Q 66.352972 112.148107 67.815107 112.168904 
Q 69.277241 112.189464 70.62941 112.230112 
L 70.62941 112.458167 
Q 69.265023 112.404285 67.941363 112.379234 
Q 66.617704 112.354184 65.155569 112.354184 
Q 62.532687 112.354184 61.029824 112.451786 
Q 59.531035 112.549153 59.531035 112.720489 
Q 59.531035 112.891116 61.029824 112.988719 
Q 62.532687 113.086086 65.155569 113.086086 
Q 66.617704 113.086086 67.941363 113.061035 
Q 69.265023 113.035748 70.62941 112.981866 
z
" style="fill:#0000ff;"/>
   </g>
   <g id="patch_9">
    <path clip-path="url(#p9940fb2e2b)" d="M 65.661939 110.817925 
L 59.445164 110.817925 
L 58.463568 112.148107 
L 54.464473 112.148107 
L 60.175578 104.846191 
L 64.918306 104.846191 
L 70.62941 112.148107 
L 66.63362 112.148107 
z
M 60.436676 109.462704 
L 64.660513 109.462704 
L 62.551899 106.558213 
z
" style="fill:#008000;"/>
   </g>
   <g id="patch_10">
    <path clip-path="url(#p9940fb2e2b)" d="M 54.464473 61.261394 
L 70.62941 61.261394 
L 70.62941 69.761643 
L 64.813792 69.761643 
L 64.813792 104.846191 
L 60.291369 104.846191 
L 60.291369 69.761643 
L 54.464473 69.761643 
z
" style="fill:#ff0000;"/>
   </g>
   <g id="patch_11">
    <path clip-path="url(#p9940fb2e2b)" d="M 87.645134 113.947801 
Q 86.292965 113.965156 84.83083 113.973934 
Q 83.368695 113.982812 81.776231 113.982812 
Q 77.027348 113.982812 74.253772 113.917028 
Q 71.480197 113.851243 71.480197 113.738742 
Q 71.480197 113.625839 74.253772 113.560155 
Q 77.027348 113.49437 81.776231 113.49437 
Q 83.368695 113.49437 84.83083 113.503249 
Q 86.292965 113.512027 87.645134 113.529381 
L 87.645134 113.626747 
Q 86.280746 113.603742 84.957087 113.593047 
Q 83.633427 113.582352 82.171293 113.582352 
Q 79.54841 113.582352 78.045548 113.624022 
Q 76.546758 113.665592 76.546758 113.738742 
Q 76.546758 113.81159 78.045548 113.853261 
Q 79.54841 113.89483 82.171293 113.89483 
Q 83.633427 113.89483 84.957087 113.884135 
Q 86.280746 113.873339 87.645134 113.850335 
z
" style="fill:#0000ff;"/>
   </g>
   <g id="patch_12">
    <path clip-path="url(#p9940fb2e2b)" d="M 71.480197 110.758141 
L 87.645134 110.758141 
L 87.645134 111.291782 
L 81.829516 111.291782 
L 81.829516 113.49437 
L 77.307092 113.49437 
L 77.307092 111.291782 
L 71.480197 111.291782 
z
" style="fill:#ff0000;"/>
   </g>
   <g id="patch_13">
    <path clip-path="url(#p9940fb2e2b)" d="M 87.645134 110.202512 
Q 86.014873 110.480327 84.261438 110.619868 
Q 82.508002 110.758141 80.638637 110.758141 
Q 76.414451 110.758141 73.947324 109.93104 
Q 71.480197 109.103938 71.480197 107.689493 
Q 71.480197 106.258557 73.990797 105.437798 
Q 76.505021 104.61704 80.877742 104.61704 
Q 82.562344 104.61704 84.105657 104.728673 
Q 85.652593 104.839038 87.022012 105.05723 
L 87.022012 106.281391 
Q 85.60912 106.001039 84.210719 105.862766 
Q 82.812317 105.723225 81.406671 105.723225 
Q 78.8055 105.723225 77.39623 106.233186 
Q 75.986961 106.741879 75.986961 107.689493 
Q 75.986961 108.628228 77.345511 109.140727 
Q 78.704061 109.651957 81.203794 109.651957 
Q 81.88488 109.651957 82.468151 109.62278 
Q 83.051422 109.592334 83.515141 109.528906 
L 83.515141 108.37959 
L 80.852382 108.37959 
L 80.852382 107.355862 
L 87.645134 107.355862 
z
" style="fill:#ffa600;"/>
   </g>
   <g id="patch_14">
    <path clip-path="url(#p9940fb2e2b)" d="M 82.677663 97.684446 
L 76.460888 97.684446 
L 75.479292 104.61704 
L 71.480197 104.61704 
L 77.191301 66.561178 
L 81.934029 66.561178 
L 87.645134 104.61704 
L 83.649344 104.61704 
z
M 77.452399 90.621356 
L 81.676236 90.621356 
L 79.567623 75.483834 
z
" style="fill:#008000;"/>
   </g>
   <g id="patch_15">
    <path clip-path="url(#p9940fb2e2b)" d="M 104.660857 113.959488 
Q 103.308688 113.97105 101.846553 113.976897 
Q 100.384419 113.982812 98.791954 113.982812 
Q 94.043071 113.982812 91.269496 113.938987 
Q 88.49592 113.895162 88.49592 113.820215 
Q 88.49592 113.744999 91.269496 113.701241 
Q 94.043071 113.657416 98.791954 113.657416 
Q 100.384419 113.657416 101.846553 113.663331 
Q 103.308688 113.669179 104.660857 113.68074 
L 104.660857 113.745604 
Q 103.296469 113.730279 101.97281 113.723154 
Q 100.64915 113.716029 99.187016 113.716029 
Q 96.564134 113.716029 95.061271 113.74379 
Q 93.562481 113.771483 93.562481 113.820215 
Q 93.562481 113.868746 95.061271 113.896506 
Q 96.564134 113.924199 99.187016 113.924199 
Q 100.64915 113.924199 101.97281 113.917074 
Q 103.296469 113.909882 104.660857 113.894557 
z
" style="fill:#0000ff;"/>
   </g>
   <g id="patch_16">
    <path clip-path="url(#p9940fb2e2b)" d="M 104.660857 113.615897 
Q 103.030597 113.636656 101.277161 113.647084 
Q 99.523725 113.657416 97.65436 113.657416 
Q 93.430174 113.657416 90.963047 113.595611 
Q 88.49592 113.533806 88.49592 113.428112 
Q 88.49592 113.321185 91.006521 113.259854 
Q 93.520745 113.198523 97.893465 113.198523 
Q 99.578067 113.198523 101.121381 113.206865 
Q 102.668316 113.215112 104.037735 113.231416 
L 104.037735 113.322892 
Q 102.624843 113.301942 101.226442 113.29161 
Q 99.828041 113.281183 98.422394 113.281183 
Q 95.821223 113.281183 94.411953 113.31929 
Q 93.002684 113.357302 93.002684 113.428112 
Q 93.002684 113.498259 94.361234 113.536555 
Q 95.719785 113.574756 98.219517 113.574756 
Q 98.900604 113.574756 99.483875 113.572576 
Q 100.067146 113.570301 100.530864 113.565562 
L 100.530864 113.479679 
L 97.868105 113.479679 
L 97.868105 113.403181 
L 104.660857 113.403181 
z
" style="fill:#ffa600;"/>
   </g>
   <g id="patch_17">
    <path clip-path="url(#p9940fb2e2b)" d="M 88.49592 112.697913 
L 104.660857 112.697913 
L 104.660857 112.795546 
L 98.845239 112.795546 
L 98.845239 113.198523 
L 94.322816 113.198523 
L 94.322816 112.795546 
L 88.49592 112.795546 
z
" style="fill:#ff0000;"/>
   </g>
   <g id="patch_18">
    <path clip-path="url(#p9940fb2e2b)" d="M 99.693386 97.734238 
L 93.476611 97.734238 
L 92.495015 112.697913 
L 88.49592 112.697913 
L 94.207024 30.556139 
L 98.949753 30.556139 
L 104.660857 112.697913 
L 100.665067 112.697913 
z
M 94.468122 82.488894 
L 98.69196 82.488894 
L 96.583346 49.815269 
z
" style="fill:#008000;"/>
   </g>
   <g id="patch_19">
    <path clip-path="url(#p9940fb2e2b)" d="M 121.67658 113.915645 
Q 120.324411 113.948938 118.862276 113.965779 
Q 117.400142 113.982812 115.807678 113.982812 
Q 111.058795 113.982812 108.285219 113.856607 
Q 105.511643 113.730402 105.511643 113.514576 
Q 105.511643 113.297975 108.285219 113.171964 
Q 111.058795 113.045758 115.807678 113.045758 
Q 117.400142 113.045758 118.862276 113.062792 
Q 120.324411 113.079633 121.67658 113.112926 
L 121.67658 113.299717 
Q 120.312193 113.255584 118.988533 113.235066 
Q 117.664874 113.214548 116.202739 113.214548 
Q 113.579857 113.214548 112.076994 113.294491 
Q 110.578204 113.37424 110.578204 113.514576 
Q 110.578204 113.654331 112.076994 113.734273 
Q 113.579857 113.814023 116.202739 113.814023 
Q 117.664874 113.814023 118.988533 113.793505 
Q 120.312193 113.772793 121.67658 113.72866 
z
" style="fill:#0000ff;"/>
   </g>
   <g id="patch_20">
    <path clip-path="url(#p9940fb2e2b)" d="M 116.709109 112.800216 
L 110.492334 112.800216 
L 109.510738 113.045758 
L 105.511643 113.045758 
L 111.222747 111.697878 
L 115.965476 111.697878 
L 121.67658 113.045758 
L 117.68079 113.045758 
z
M 111.483845 112.550053 
L 115.707683 112.550053 
L 113.599069 112.013905 
z
" style="fill:#008000;"/>
   </g>
   <g id="patch_21">
    <path clip-path="url(#p9940fb2e2b)" d="M 121.67658 110.999992 
Q 120.04632 111.348935 118.292884 111.524203 
Q 116.539449 111.697878 114.670083 111.697878 
Q 110.445898 111.697878 107.97877 110.659016 
Q 105.511643 109.620155 105.511643 107.843575 
Q 105.511643 106.046281 108.022244 105.015386 
Q 110.536468 103.984492 114.909188 103.984492 
Q 116.593791 103.984492 118.137104 104.124706 
Q 119.68404 104.263327 121.053458 104.537382 
L 121.053458 106.074961 
Q 119.640566 105.722832 118.242165 105.549157 
Q 116.843764 105.373889 115.438117 105.373889 
Q 112.836946 105.373889 111.427677 106.014414 
Q 110.018407 106.653345 110.018407 107.843575 
Q 110.018407 109.02265 111.376958 109.666362 
Q 112.735508 110.30848 115.23524 110.30848 
Q 115.916327 110.30848 116.499598 110.271833 
Q 117.082869 110.233593 117.546587 110.153926 
L 117.546587 108.710355 
L 114.883829 108.710355 
L 114.883829 107.424525 
L 121.67658 107.424525 
z
" style="fill:#ffa600;"/>
   </g>
   <g id="patch_22">
    <path clip-path="url(#p9940fb2e2b)" d="M 105.511643 67.822513 
L 121.67658 67.822513 
L 121.67658 74.875106 
L 115.860962 74.875106 
L 115.860962 103.984492 
L 111.338539 103.984492 
L 111.338539 74.875106 
L 105.511643 74.875106 
z
" style="fill:#ff0000;"/>
   </g>
   <g id="patch_23">
    <path clip-path="url(#p9940fb2e2b)" d="M 138.692303 113.851537 
Q 137.062043 113.917175 135.308608 113.950144 
Q 133.555172 113.982812 131.685807 113.982812 
Q 127.461621 113.982812 124.994494 113.787398 
Q 122.527366 113.591984 122.527366 113.257802 
Q 122.527366 112.919723 125.037967 112.725808 
Q 127.552191 112.531892 131.924912 112.531892 
Q 133.609514 112.531892 135.152827 112.558267 
Q 136.699763 112.584342 138.069182 112.635893 
L 138.069182 112.925118 
Q 136.656289 112.858881 135.257888 112.826212 
Q 133.859487 112.793244 132.453841 112.793244 
Q 129.85267 112.793244 128.4434 112.913729 
Q 127.034131 113.033915 127.034131 113.257802 
Q 127.034131 113.479591 128.392681 113.600676 
Q 129.751231 113.721461 132.250964 113.721461 
Q 132.93205 113.721461 133.515321 113.714568 
Q 134.098592 113.707374 134.562311 113.692389 
L 134.562311 113.420847 
L 131.899552 113.420847 
L 131.899552 113.178977 
L 138.692303 113.178977 
z
" style="fill:#ffa600;"/>
   </g>
   <g id="patch_24">
    <path clip-path="url(#p9940fb2e2b)" d="M 122.527366 108.771194 
L 138.692303 108.771194 
L 138.692303 109.504635 
L 132.876685 109.504635 
L 132.876685 112.531892 
L 128.354262 112.531892 
L 128.354262 109.504635 
L 122.527366 109.504635 
z
" style="fill:#ff0000;"/>
   </g>
   <g id="patch_25">
    <path clip-path="url(#p9940fb2e2b)" d="M 133.724832 108.043502 
L 127.508057 108.043502 
L 126.526461 108.771194 
L 122.527366 108.771194 
L 128.238471 104.776594 
L 132.981199 104.776594 
L 138.692303 108.771194 
L 134.696513 108.771194 
z
M 128.499569 107.302113 
L 132.723406 107.302113 
L 130.614792 105.713176 
z
" style="fill:#008000;"/>
   </g>
   <g id="patch_26">
    <path clip-path="url(#p9940fb2e2b)" d="M 138.692303 102.816553 
Q 137.340134 103.788101 135.878 104.279523 
Q 134.415865 104.776594 132.823401 104.776594 
Q 128.074518 104.776594 125.300942 101.093751 
Q 122.527366 97.410907 122.527366 91.112792 
Q 122.527366 84.792083 125.300942 81.114887 
Q 128.074518 77.432044 132.823401 77.432044 
Q 134.415865 77.432044 135.878 77.929114 
Q 137.340134 78.420537 138.692303 79.392085 
L 138.692303 84.84292 
Q 137.327916 83.555054 136.004256 82.956309 
Q 134.680597 82.357565 133.218462 82.357565 
Q 130.59558 82.357565 129.092717 84.690409 
Q 127.593928 87.017605 127.593928 91.112792 
Q 127.593928 95.191033 129.092717 97.523877 
Q 130.59558 99.851073 133.218462 99.851073 
Q 134.680597 99.851073 136.004256 99.252329 
Q 137.327916 98.647936 138.692303 97.36007 
z
" style="fill:#0000ff;"/>
   </g>
   <g id="patch_27">
    <path clip-path="url(#p9940fb2e2b)" d="M 155.708027 113.903055 
Q 154.077766 113.942934 152.324331 113.962964 
Q 150.570895 113.982812 148.70153 113.982812 
Q 144.477344 113.982812 142.010217 113.864086 
Q 139.54309 113.74536 139.54309 113.542323 
Q 139.54309 113.336919 142.053691 113.219103 
Q 144.567914 113.101287 148.940635 113.101287 
Q 150.625237 113.101287 152.16855 113.117312 
Q 153.715486 113.133154 155.084905 113.164475 
L 155.084905 113.340197 
Q 153.672013 113.299954 152.273612 113.280105 
Q 150.87521 113.260075 149.469564 113.260075 
Q 146.868393 113.260075 145.459123 113.333277 
Q 144.049854 113.406298 144.049854 113.542323 
Q 144.049854 113.677074 145.408404 113.750641 
Q 146.766954 113.824025 149.266687 113.824025 
Q 149.947773 113.824025 150.531044 113.819837 
Q 151.114315 113.815467 151.578034 113.806362 
L 151.578034 113.641383 
L 148.915275 113.641383 
L 148.915275 113.494432 
L 155.708027 113.494432 
z
" style="fill:#ffa600;"/>
   </g>
   <g id="patch_28">
    <path clip-path="url(#p9940fb2e2b)" d="M 150.740556 112.745096 
L 144.523781 112.745096 
L 143.542185 113.101287 
L 139.54309 113.101287 
L 145.254194 111.146004 
L 149.996922 111.146004 
L 155.708027 113.101287 
L 151.712237 113.101287 
z
M 145.515292 112.382199 
L 149.739129 112.382199 
L 147.630516 111.604444 
z
" style="fill:#008000;"/>
   </g>
   <g id="patch_29">
    <path clip-path="url(#p9940fb2e2b)" d="M 139.54309 103.14637 
L 155.708027 103.14637 
L 155.708027 104.706522 
L 149.892409 104.706522 
L 149.892409 111.146004 
L 145.369986 111.146004 
L 145.369986 104.706522 
L 139.54309 104.706522 
z
" style="fill:#ff0000;"/>
   </g>
   <g id="patch_30">
    <path clip-path="url(#p9940fb2e2b)" d="M 155.708027 101.954868 
Q 154.355858 102.545469 152.893723 102.844202 
Q 151.431588 103.14637 149.839124 103.14637 
Q 145.090241 103.14637 142.316665 100.907583 
Q 139.54309 98.668795 139.54309 94.840195 
Q 139.54309 90.997859 142.316665 88.762505 
Q 145.090241 86.523718 149.839124 86.523718 
Q 151.431588 86.523718 152.893723 86.825885 
Q 154.355858 87.124619 155.708027 87.71522 
L 155.708027 91.028762 
Q 154.343639 90.245873 153.01998 89.881899 
Q 151.69632 89.517924 150.234186 89.517924 
Q 147.611303 89.517924 146.108441 90.936052 
Q 144.609651 92.350745 144.609651 94.840195 
Q 144.609651 97.319342 146.108441 98.73747 
Q 147.611303 100.152164 150.234186 100.152164 
Q 151.69632 100.152164 153.01998 99.788189 
Q 154.343639 99.420781 155.708027 98.637892 
z
" style="fill:#0000ff;"/>
   </g>
   <g id="patch_31">
    <path clip-path="url(#p9940fb2e2b)" d="M 167.756279 113.93964 
L 161.539504 113.93964 
L 160.557908 113.982812 
L 156.558813 113.982812 
L 162.269917 113.745821 
L 167.012646 113.745821 
L 172.72375 113.982812 
L 168.72796 113.982812 
z
M 162.531015 113.895655 
L 166.754853 113.895655 
L 164.646239 113.801387 
z
" style="fill:#008000;"/>
   </g>
   <g id="patch_32">
    <path clip-path="url(#p9940fb2e2b)" d="M 156.558813 113.432908 
L 172.72375 113.432908 
L 172.72375 113.493935 
L 166.908132 113.493935 
L 166.908132 113.745821 
L 162.385709 113.745821 
L 162.385709 113.493935 
L 156.558813 113.493935 
z
" style="fill:#ff0000;"/>
   </g>
   <g id="patch_33">
    <path clip-path="url(#p9940fb2e2b)" d="M 172.72375 113.401448 
Q 171.09349 113.417178 169.340054 113.425079 
Q 167.586618 113.432908 165.717253 113.432908 
Q 161.493068 113.432908 159.02594 113.386077 
Q 156.558813 113.339247 156.558813 113.259161 
Q 156.558813 113.178141 159.069414 113.131669 
Q 161.583638 113.085198 165.956358 113.085198 
Q 167.64096 113.085198 169.184274 113.091518 
Q 170.73121 113.097767 172.100628 113.110121 
L 172.100628 113.179434 
Q 170.687736 113.16356 169.289335 113.155731 
Q 167.890934 113.14783 166.485287 113.14783 
Q 163.884116 113.14783 162.474847 113.176704 
Q 161.065577 113.205506 161.065577 113.259161 
Q 161.065577 113.312312 162.424127 113.34133 
Q 163.782678 113.370276 166.28241 113.370276 
Q 166.963497 113.370276 167.546768 113.368624 
Q 168.130039 113.3669 168.593757 113.363309 
L 168.593757 113.298234 
L 165.930999 113.298234 
L 165.930999 113.24027 
L 172.72375 113.24027 
z
" style="fill:#ffa600;"/>
   </g>
   <g id="patch_34">
    <path clip-path="url(#p9940fb2e2b)" d="M 172.72375 113.055059 
Q 171.371581 113.069998 169.909446 113.077554 
Q 168.447312 113.085198 166.854847 113.085198 
Q 162.105964 113.085198 159.332389 113.028568 
Q 156.558813 112.971938 156.558813 112.875094 
Q 156.558813 112.777902 159.332389 112.721359 
Q 162.105964 112.664729 166.854847 112.664729 
Q 168.447312 112.664729 169.909446 112.672372 
Q 171.371581 112.679929 172.72375 112.694868 
L 172.72375 112.778684 
Q 171.359363 112.758881 170.035703 112.749674 
Q 168.712044 112.740467 167.249909 112.740467 
Q 164.627027 112.740467 163.124164 112.776339 
Q 161.625374 112.812123 161.625374 112.875094 
Q 161.625374 112.937803 163.124164 112.973675 
Q 164.627027 113.009459 167.249909 113.009459 
Q 168.712044 113.009459 170.035703 113.000253 
Q 171.359363 112.990959 172.72375 112.971156 
z
" style="fill:#0000ff;"/>
   </g>
   <g id="matplotlib.axis_1">
    <g id="xtick_1">
     <g id="line2d_2">
      <defs>
       <path d="M 0 0 
L 0 3.5 
" id="md34ba5e49c" style="stroke:#000000;stroke-width:0.8;"/>
      </defs>
      <g>
       <use style="stroke:#000000;stroke-width:0.8;" x="45.531219" xlink:href="#md34ba5e49c" y="113.982812"/>
      </g>
     </g>
     <g id="text_1">
      <!-- 1 -->
      <defs>
       <path d="M 12.40625 8.296875 
L 28.515625 8.296875 
L 28.515625 63.921875 
L 10.984375 60.40625 
L 10.984375 69.390625 
L 28.421875 72.90625 
L 38.28125 72.90625 
L 38.28125 8.296875 
L 54.390625 8.296875 
L 54.390625 0 
L 12.40625 0 
z
" id="DejaVuSans-49"/>
      </defs>
      <g transform="translate(48.842469 128.617813)rotate(-90)scale(0.12 -0.12)">
       <use xlink:href="#DejaVuSans-49"/>
      </g>
     </g>
    </g>
    <g id="xtick_2">
     <g id="line2d_3">
      <g>
       <use style="stroke:#000000;stroke-width:0.8;" x="62.546942" xlink:href="#md34ba5e49c" y="113.982812"/>
      </g>
     </g>
     <g id="text_2">
      <!-- 2 -->
      <defs>
       <path d="M 19.1875 8.296875 
L 53.609375 8.296875 
L 53.609375 0 
L 7.328125 0 
L 7.328125 8.296875 
Q 12.9375 14.109375 22.625 23.890625 
Q 32.328125 33.6875 34.8125 36.53125 
Q 39.546875 41.84375 41.421875 45.53125 
Q 43.3125 49.21875 43.3125 52.78125 
Q 43.3125 58.59375 39.234375 62.25 
Q 35.15625 65.921875 28.609375 65.921875 
Q 23.96875 65.921875 18.8125 64.3125 
Q 13.671875 62.703125 7.8125 59.421875 
L 7.8125 69.390625 
Q 13.765625 71.78125 18.9375 73 
Q 24.125 74.21875 28.421875 74.21875 
Q 39.75 74.21875 46.484375 68.546875 
Q 53.21875 62.890625 53.21875 53.421875 
Q 53.21875 48.921875 51.53125 44.890625 
Q 49.859375 40.875 45.40625 35.40625 
Q 44.1875 33.984375 37.640625 27.21875 
Q 31.109375 20.453125 19.1875 8.296875 
z
" id="DejaVuSans-50"/>
      </defs>
      <g transform="translate(65.858192 128.617813)rotate(-90)scale(0.12 -0.12)">
       <use xlink:href="#DejaVuSans-50"/>
      </g>
     </g>
    </g>
    <g id="xtick_3">
     <g id="line2d_4">
      <g>
       <use style="stroke:#000000;stroke-width:0.8;" x="79.562665" xlink:href="#md34ba5e49c" y="113.982812"/>
      </g>
     </g>
     <g id="text_3">
      <!-- 3 -->
      <defs>
       <path d="M 40.578125 39.3125 
Q 47.65625 37.796875 51.625 33 
Q 55.609375 28.21875 55.609375 21.1875 
Q 55.609375 10.40625 48.1875 4.484375 
Q 40.765625 -1.421875 27.09375 -1.421875 
Q 22.515625 -1.421875 17.65625 -0.515625 
Q 12.796875 0.390625 7.625 2.203125 
L 7.625 11.71875 
Q 11.71875 9.328125 16.59375 8.109375 
Q 21.484375 6.890625 26.8125 6.890625 
Q 36.078125 6.890625 40.9375 10.546875 
Q 45.796875 14.203125 45.796875 21.1875 
Q 45.796875 27.640625 41.28125 31.265625 
Q 36.765625 34.90625 28.71875 34.90625 
L 20.21875 34.90625 
L 20.21875 43.015625 
L 29.109375 43.015625 
Q 36.375 43.015625 40.234375 45.921875 
Q 44.09375 48.828125 44.09375 54.296875 
Q 44.09375 59.90625 40.109375 62.90625 
Q 36.140625 65.921875 28.71875 65.921875 
Q 24.65625 65.921875 20.015625 65.03125 
Q 15.375 64.15625 9.8125 62.3125 
L 9.8125 71.09375 
Q 15.4375 72.65625 20.34375 73.4375 
Q 25.25 74.21875 29.59375 74.21875 
Q 40.828125 74.21875 47.359375 69.109375 
Q 53.90625 64.015625 53.90625 55.328125 
Q 53.90625 49.265625 50.4375 45.09375 
Q 46.96875 40.921875 40.578125 39.3125 
z
" id="DejaVuSans-51"/>
      </defs>
      <g transform="translate(82.873915 128.617813)rotate(-90)scale(0.12 -0.12)">
       <use xlink:href="#DejaVuSans-51"/>
      </g>
     </g>
    </g>
    <g id="xtick_4">
     <g id="line2d_5">
      <g>
       <use style="stroke:#000000;stroke-width:0.8;" x="96.578388" xlink:href="#md34ba5e49c" y="113.982812"/>
      </g>
     </g>
     <g id="text_4">
      <!-- 4 -->
      <defs>
       <path d="M 37.796875 64.3125 
L 12.890625 25.390625 
L 37.796875 25.390625 
z
M 35.203125 72.90625 
L 47.609375 72.90625 
L 47.609375 25.390625 
L 58.015625 25.390625 
L 58.015625 17.1875 
L 47.609375 17.1875 
L 47.609375 0 
L 37.796875 0 
L 37.796875 17.1875 
L 4.890625 17.1875 
L 4.890625 26.703125 
z
" id="DejaVuSans-52"/>
      </defs>
      <g transform="translate(99.889638 128.617813)rotate(-90)scale(0.12 -0.12)">
       <use xlink:href="#DejaVuSans-52"/>
      </g>
     </g>
    </g>
    <g id="xtick_5">
     <g id="line2d_6">
      <g>
       <use style="stroke:#000000;stroke-width:0.8;" x="113.594112" xlink:href="#md34ba5e49c" y="113.982812"/>
      </g>
     </g>
     <g id="text_5">
      <!-- 5 -->
      <defs>
       <path d="M 10.796875 72.90625 
L 49.515625 72.90625 
L 49.515625 64.59375 
L 19.828125 64.59375 
L 19.828125 46.734375 
Q 21.96875 47.46875 24.109375 47.828125 
Q 26.265625 48.1875 28.421875 48.1875 
Q 40.625 48.1875 47.75 41.5 
Q 54.890625 34.8125 54.890625 23.390625 
Q 54.890625 11.625 47.5625 5.09375 
Q 40.234375 -1.421875 26.90625 -1.421875 
Q 22.3125 -1.421875 17.546875 -0.640625 
Q 12.796875 0.140625 7.71875 1.703125 
L 7.71875 11.625 
Q 12.109375 9.234375 16.796875 8.0625 
Q 21.484375 6.890625 26.703125 6.890625 
Q 35.15625 6.890625 40.078125 11.328125 
Q 45.015625 15.765625 45.015625 23.390625 
Q 45.015625 31 40.078125 35.4375 
Q 35.15625 39.890625 26.703125 39.890625 
Q 22.75 39.890625 18.8125 39.015625 
Q 14.890625 38.140625 10.796875 36.28125 
z
" id="DejaVuSans-53"/>
      </defs>
      <g transform="translate(116.905362 128.617813)rotate(-90)scale(0.12 -0.12)">
       <use xlink:href="#DejaVuSans-53"/>
      </g>
     </g>
    </g>
    <g id="xtick_6">
     <g id="line2d_7">
      <g>
       <use style="stroke:#000000;stroke-width:0.8;" x="130.609835" xlink:href="#md34ba5e49c" y="113.982812"/>
      </g>
     </g>
     <g id="text_6">
      <!-- 6 -->
      <defs>
       <path d="M 33.015625 40.375 
Q 26.375 40.375 22.484375 35.828125 
Q 18.609375 31.296875 18.609375 23.390625 
Q 18.609375 15.53125 22.484375 10.953125 
Q 26.375 6.390625 33.015625 6.390625 
Q 39.65625 6.390625 43.53125 10.953125 
Q 47.40625 15.53125 47.40625 23.390625 
Q 47.40625 31.296875 43.53125 35.828125 
Q 39.65625 40.375 33.015625 40.375 
z
M 52.59375 71.296875 
L 52.59375 62.3125 
Q 48.875 64.0625 45.09375 64.984375 
Q 41.3125 65.921875 37.59375 65.921875 
Q 27.828125 65.921875 22.671875 59.328125 
Q 17.53125 52.734375 16.796875 39.40625 
Q 19.671875 43.65625 24.015625 45.921875 
Q 28.375 48.1875 33.59375 48.1875 
Q 44.578125 48.1875 50.953125 41.515625 
Q 57.328125 34.859375 57.328125 23.390625 
Q 57.328125 12.15625 50.6875 5.359375 
Q 44.046875 -1.421875 33.015625 -1.421875 
Q 20.359375 -1.421875 13.671875 8.265625 
Q 6.984375 17.96875 6.984375 36.375 
Q 6.984375 53.65625 15.1875 63.9375 
Q 23.390625 74.21875 37.203125 74.21875 
Q 40.921875 74.21875 44.703125 73.484375 
Q 48.484375 72.75 52.59375 71.296875 
z
" id="DejaVuSans-54"/>
      </defs>
      <g transform="translate(133.921085 128.617813)rotate(-90)scale(0.12 -0.12)">
       <use xlink:href="#DejaVuSans-54"/>
      </g>
     </g>
    </g>
    <g id="xtick_7">
     <g id="line2d_8">
      <g>
       <use style="stroke:#000000;stroke-width:0.8;" x="147.625558" xlink:href="#md34ba5e49c" y="113.982812"/>
      </g>
     </g>
     <g id="text_7">
      <!-- 7 -->
      <defs>
       <path d="M 8.203125 72.90625 
L 55.078125 72.90625 
L 55.078125 68.703125 
L 28.609375 0 
L 18.3125 0 
L 43.21875 64.59375 
L 8.203125 64.59375 
z
" id="DejaVuSans-55"/>
      </defs>
      <g transform="translate(150.936808 128.617813)rotate(-90)scale(0.12 -0.12)">
       <use xlink:href="#DejaVuSans-55"/>
      </g>
     </g>
    </g>
    <g id="xtick_8">
     <g id="line2d_9">
      <g>
       <use style="stroke:#000000;stroke-width:0.8;" x="164.641281" xlink:href="#md34ba5e49c" y="113.982812"/>
      </g>
     </g>
     <g id="text_8">
      <!-- 8 -->
      <defs>
       <path d="M 31.78125 34.625 
Q 24.75 34.625 20.71875 30.859375 
Q 16.703125 27.09375 16.703125 20.515625 
Q 16.703125 13.921875 20.71875 10.15625 
Q 24.75 6.390625 31.78125 6.390625 
Q 38.8125 6.390625 42.859375 10.171875 
Q 46.921875 13.96875 46.921875 20.515625 
Q 46.921875 27.09375 42.890625 30.859375 
Q 38.875 34.625 31.78125 34.625 
z
M 21.921875 38.8125 
Q 15.578125 40.375 12.03125 44.71875 
Q 8.5 49.078125 8.5 55.328125 
Q 8.5 64.0625 14.71875 69.140625 
Q 20.953125 74.21875 31.78125 74.21875 
Q 42.671875 74.21875 48.875 69.140625 
Q 55.078125 64.0625 55.078125 55.328125 
Q 55.078125 49.078125 51.53125 44.71875 
Q 48 40.375 41.703125 38.8125 
Q 48.828125 37.15625 52.796875 32.3125 
Q 56.78125 27.484375 56.78125 20.515625 
Q 56.78125 9.90625 50.3125 4.234375 
Q 43.84375 -1.421875 31.78125 -1.421875 
Q 19.734375 -1.421875 13.25 4.234375 
Q 6.78125 9.90625 6.78125 20.515625 
Q 6.78125 27.484375 10.78125 32.3125 
Q 14.796875 37.15625 21.921875 38.8125 
z
M 18.3125 54.390625 
Q 18.3125 48.734375 21.84375 45.5625 
Q 25.390625 42.390625 31.78125 42.390625 
Q 38.140625 42.390625 41.71875 45.5625 
Q 45.3125 48.734375 45.3125 54.390625 
Q 45.3125 60.0625 41.71875 63.234375 
Q 38.140625 66.40625 31.78125 66.40625 
Q 25.390625 66.40625 21.84375 63.234375 
Q 18.3125 60.0625 18.3125 54.390625 
z
" id="DejaVuSans-56"/>
      </defs>
      <g transform="translate(167.952531 128.617813)rotate(-90)scale(0.12 -0.12)">
       <use xlink:href="#DejaVuSans-56"/>
      </g>
     </g>
    </g>
   </g>
   <g id="matplotlib.axis_2">
    <g id="ytick_1">
     <g id="line2d_10">
      <defs>
       <path d="M 0 0 
L -3.5 0 
" id="m4ed85ce222" style="stroke:#000000;stroke-width:0.8;"/>
      </defs>
      <g>
       <use style="stroke:#000000;stroke-width:0.8;" x="37.44875" xlink:href="#m4ed85ce222" y="113.982812"/>
      </g>
     </g>
     <g id="text_9">
      <!-- 0 -->
      <defs>
       <path d="M 31.78125 66.40625 
Q 24.171875 66.40625 20.328125 58.90625 
Q 16.5 51.421875 16.5 36.375 
Q 16.5 21.390625 20.328125 13.890625 
Q 24.171875 6.390625 31.78125 6.390625 
Q 39.453125 6.390625 43.28125 13.890625 
Q 47.125 21.390625 47.125 36.375 
Q 47.125 51.421875 43.28125 58.90625 
Q 39.453125 66.40625 31.78125 66.40625 
z
M 31.78125 74.21875 
Q 44.046875 74.21875 50.515625 64.515625 
Q 56.984375 54.828125 56.984375 36.375 
Q 56.984375 17.96875 50.515625 8.265625 
Q 44.046875 -1.421875 31.78125 -1.421875 
Q 19.53125 -1.421875 13.0625 8.265625 
Q 6.59375 17.96875 6.59375 36.375 
Q 6.59375 54.828125 13.0625 64.515625 
Q 19.53125 74.21875 31.78125 74.21875 
z
" id="DejaVuSans-48"/>
      </defs>
      <g transform="translate(22.81375 118.541875)scale(0.12 -0.12)">
       <use xlink:href="#DejaVuSans-48"/>
      </g>
     </g>
    </g>
    <g id="ytick_2">
     <g id="line2d_11">
      <g>
       <use style="stroke:#000000;stroke-width:0.8;" x="37.44875" xlink:href="#m4ed85ce222" y="69.157812"/>
      </g>
     </g>
     <g id="text_10">
      <!-- 1 -->
      <g transform="translate(22.81375 73.716875)scale(0.12 -0.12)">
       <use xlink:href="#DejaVuSans-49"/>
      </g>
     </g>
    </g>
    <g id="ytick_3">
     <g id="line2d_12">
      <g>
       <use style="stroke:#000000;stroke-width:0.8;" x="37.44875" xlink:href="#m4ed85ce222" y="24.332812"/>
      </g>
     </g>
     <g id="text_11">
      <!-- 2 -->
      <g transform="translate(22.81375 28.891875)scale(0.12 -0.12)">
       <use xlink:href="#DejaVuSans-50"/>
      </g>
     </g>
    </g>
    <g id="text_12">
     <!-- bits -->
     <defs>
      <path d="M 48.6875 27.296875 
Q 48.6875 37.203125 44.609375 42.84375 
Q 40.53125 48.484375 33.40625 48.484375 
Q 26.265625 48.484375 22.1875 42.84375 
Q 18.109375 37.203125 18.109375 27.296875 
Q 18.109375 17.390625 22.1875 11.75 
Q 26.265625 6.109375 33.40625 6.109375 
Q 40.53125 6.109375 44.609375 11.75 
Q 48.6875 17.390625 48.6875 27.296875 
z
M 18.109375 46.390625 
Q 20.953125 51.265625 25.265625 53.625 
Q 29.59375 56 35.59375 56 
Q 45.5625 56 51.78125 48.09375 
Q 58.015625 40.1875 58.015625 27.296875 
Q 58.015625 14.40625 51.78125 6.484375 
Q 45.5625 -1.421875 35.59375 -1.421875 
Q 29.59375 -1.421875 25.265625 0.953125 
Q 20.953125 3.328125 18.109375 8.203125 
L 18.109375 0 
L 9.078125 0 
L 9.078125 75.984375 
L 18.109375 75.984375 
z
" id="DejaVuSans-98"/>
      <path d="M 9.421875 54.6875 
L 18.40625 54.6875 
L 18.40625 0 
L 9.421875 0 
z
M 9.421875 75.984375 
L 18.40625 75.984375 
L 18.40625 64.59375 
L 9.421875 64.59375 
z
" id="DejaVuSans-105"/>
      <path d="M 18.3125 70.21875 
L 18.3125 54.6875 
L 36.8125 54.6875 
L 36.8125 47.703125 
L 18.3125 47.703125 
L 18.3125 18.015625 
Q 18.3125 11.328125 20.140625 9.421875 
Q 21.96875 7.515625 27.59375 7.515625 
L 36.8125 7.515625 
L 36.8125 0 
L 27.59375 0 
Q 17.1875 0 13.234375 3.875 
Q 9.28125 7.765625 9.28125 18.015625 
L 9.28125 47.703125 
L 2.6875 47.703125 
L 2.6875 54.6875 
L 9.28125 54.6875 
L 9.28125 70.21875 
z
" id="DejaVuSans-116"/>
      <path d="M 44.28125 53.078125 
L 44.28125 44.578125 
Q 40.484375 46.53125 36.375 47.5 
Q 32.28125 48.484375 27.875 48.484375 
Q 21.1875 48.484375 17.84375 46.4375 
Q 14.5 44.390625 14.5 40.28125 
Q 14.5 37.15625 16.890625 35.375 
Q 19.28125 33.59375 26.515625 31.984375 
L 29.59375 31.296875 
Q 39.15625 29.25 43.1875 25.515625 
Q 47.21875 21.78125 47.21875 15.09375 
Q 47.21875 7.46875 41.1875 3.015625 
Q 35.15625 -1.421875 24.609375 -1.421875 
Q 20.21875 -1.421875 15.453125 -0.5625 
Q 10.6875 0.296875 5.421875 2 
L 5.421875 11.28125 
Q 10.40625 8.6875 15.234375 7.390625 
Q 20.0625 6.109375 24.8125 6.109375 
Q 31.15625 6.109375 34.5625 8.28125 
Q 37.984375 10.453125 37.984375 14.40625 
Q 37.984375 18.0625 35.515625 20.015625 
Q 33.0625 21.96875 24.703125 23.78125 
L 21.578125 24.515625 
Q 13.234375 26.265625 9.515625 29.90625 
Q 5.8125 33.546875 5.8125 39.890625 
Q 5.8125 47.609375 11.28125 51.796875 
Q 16.75 56 26.8125 56 
Q 31.78125 56 36.171875 55.265625 
Q 40.578125 54.546875 44.28125 53.078125 
z
" id="DejaVuSans-115"/>
     </defs>
     <g transform="translate(16.318125 80.111563)rotate(-90)scale(0.12 -0.12)">
      <use xlink:href="#DejaVuSans-98"/>
      <use x="63.476562" xlink:href="#DejaVuSans-105"/>
      <use x="91.259766" xlink:href="#DejaVuSans-116"/>
      <use x="130.46875" xlink:href="#DejaVuSans-115"/>
     </g>
    </g>
   </g>
   <g id="patch_35">
    <path d="M 37.44875 113.982812 
L 37.44875 24.332812 
" style="fill:none;stroke:#000000;stroke-linecap:square;stroke-linejoin:miter;stroke-width:0.8;"/>
   </g>
   <g id="patch_36">
    <path d="M 172.72375 113.982812 
L 172.72375 24.332812 
" style="fill:none;stroke:#000000;stroke-linecap:square;stroke-linejoin:miter;stroke-width:0.8;"/>
   </g>
   <g id="patch_37">
    <path d="M 37.44875 113.982812 
L 172.72375 113.982812 
" style="fill:none;stroke:#000000;stroke-linecap:square;stroke-linejoin:miter;stroke-width:0.8;"/>
   </g>
   <g id="patch_38">
    <path d="M 37.44875 24.332812 
L 172.72375 24.332812 
" style="fill:none;stroke:#000000;stroke-linecap:square;stroke-linejoin:miter;stroke-width:0.8;"/>
   </g>
   <g id="text_13">
    <!-- CRX_Lee2010 -->
    <defs>
     <path d="M 64.40625 67.28125 
L 64.40625 56.890625 
Q 59.421875 61.53125 53.78125 63.8125 
Q 48.140625 66.109375 41.796875 66.109375 
Q 29.296875 66.109375 22.65625 58.46875 
Q 16.015625 50.828125 16.015625 36.375 
Q 16.015625 21.96875 22.65625 14.328125 
Q 29.296875 6.6875 41.796875 6.6875 
Q 48.140625 6.6875 53.78125 8.984375 
Q 59.421875 11.28125 64.40625 15.921875 
L 64.40625 5.609375 
Q 59.234375 2.09375 53.4375 0.328125 
Q 47.65625 -1.421875 41.21875 -1.421875 
Q 24.65625 -1.421875 15.125 8.703125 
Q 5.609375 18.84375 5.609375 36.375 
Q 5.609375 53.953125 15.125 64.078125 
Q 24.65625 74.21875 41.21875 74.21875 
Q 47.75 74.21875 53.53125 72.484375 
Q 59.328125 70.75 64.40625 67.28125 
z
" id="DejaVuSans-67"/>
     <path d="M 44.390625 34.1875 
Q 47.5625 33.109375 50.5625 29.59375 
Q 53.5625 26.078125 56.59375 19.921875 
L 66.609375 0 
L 56 0 
L 46.6875 18.703125 
Q 43.0625 26.03125 39.671875 28.421875 
Q 36.28125 30.8125 30.421875 30.8125 
L 19.671875 30.8125 
L 19.671875 0 
L 9.8125 0 
L 9.8125 72.90625 
L 32.078125 72.90625 
Q 44.578125 72.90625 50.734375 67.671875 
Q 56.890625 62.453125 56.890625 51.90625 
Q 56.890625 45.015625 53.6875 40.46875 
Q 50.484375 35.9375 44.390625 34.1875 
z
M 19.671875 64.796875 
L 19.671875 38.921875 
L 32.078125 38.921875 
Q 39.203125 38.921875 42.84375 42.21875 
Q 46.484375 45.515625 46.484375 51.90625 
Q 46.484375 58.296875 42.84375 61.546875 
Q 39.203125 64.796875 32.078125 64.796875 
z
" id="DejaVuSans-82"/>
     <path d="M 6.296875 72.90625 
L 16.890625 72.90625 
L 35.015625 45.796875 
L 53.21875 72.90625 
L 63.8125 72.90625 
L 40.375 37.890625 
L 65.375 0 
L 54.78125 0 
L 34.28125 31 
L 13.625 0 
L 2.984375 0 
L 29 38.921875 
z
" id="DejaVuSans-88"/>
     <path d="M 50.984375 -16.609375 
L 50.984375 -23.578125 
L -0.984375 -23.578125 
L -0.984375 -16.609375 
z
" id="DejaVuSans-95"/>
     <path d="M 9.8125 72.90625 
L 19.671875 72.90625 
L 19.671875 8.296875 
L 55.171875 8.296875 
L 55.171875 0 
L 9.8125 0 
z
" id="DejaVuSans-76"/>
     <path d="M 56.203125 29.59375 
L 56.203125 25.203125 
L 14.890625 25.203125 
Q 15.484375 15.921875 20.484375 11.0625 
Q 25.484375 6.203125 34.421875 6.203125 
Q 39.59375 6.203125 44.453125 7.46875 
Q 49.3125 8.734375 54.109375 11.28125 
L 54.109375 2.78125 
Q 49.265625 0.734375 44.1875 -0.34375 
Q 39.109375 -1.421875 33.890625 -1.421875 
Q 20.796875 -1.421875 13.15625 6.1875 
Q 5.515625 13.8125 5.515625 26.8125 
Q 5.515625 40.234375 12.765625 48.109375 
Q 20.015625 56 32.328125 56 
Q 43.359375 56 49.78125 48.890625 
Q 56.203125 41.796875 56.203125 29.59375 
z
M 47.21875 32.234375 
Q 47.125 39.59375 43.09375 43.984375 
Q 39.0625 48.390625 32.421875 48.390625 
Q 24.90625 48.390625 20.390625 44.140625 
Q 15.875 39.890625 15.1875 32.171875 
z
" id="DejaVuSans-101"/>
    </defs>
    <g transform="translate(53.255391 18.332812)scale(0.15 -0.15)">
     <use xlink:href="#DejaVuSans-67"/>
     <use x="69.824219" xlink:href="#DejaVuSans-82"/>
     <use x="139.306641" xlink:href="#DejaVuSans-88"/>
     <use x="207.8125" xlink:href="#DejaVuSans-95"/>
     <use x="257.8125" xlink:href="#DejaVuSans-76"/>
     <use x="313.509766" xlink:href="#DejaVuSans-101"/>
     <use x="375.033203" xlink:href="#DejaVuSans-101"/>
     <use x="436.556641" xlink:href="#DejaVuSans-50"/>
     <use x="500.179688" xlink:href="#DejaVuSans-48"/>
     <use x="563.802734" xlink:href="#DejaVuSans-49"/>
     <use x="627.425781" xlink:href="#DejaVuSans-48"/>
    </g>
   </g>
  </g>
 </g>
 <defs>
  <clipPath id="p9940fb2e2b">
   <rect height="89.65" width="135.275" x="37.44875" y="24.332812"/>
  </clipPath>
 </defs>
</svg>
