<?xml version="1.0" encoding="utf-8" standalone="no"?>
<!DOCTYPE svg PUBLIC "-//W3C//DTD SVG 1.1//EN"
  "http://www.w3.org/Graphics/SVG/1.1/DTD/svg11.dtd">
<!-- Created with matplotlib (https://matplotlib.org/) -->
<svg height="135.952813pt" version="1.1" viewBox="0 0 327.42375 135.952813" width="327.42375pt" xmlns="http://www.w3.org/2000/svg" xmlns:xlink="http://www.w3.org/1999/xlink">
 <defs>
  <style type="text/css">
*{stroke-linecap:butt;stroke-linejoin:round;}
  </style>
 </defs>
 <g id="figure_1">
  <g id="patch_1">
   <path d="M 0 135.952813 
L 327.42375 135.952813 
L 327.42375 0 
L 0 0 
z
" style="fill:#ffffff;"/>
  </g>
  <g id="axes_1">
   <g id="patch_2">
    <path d="M 37.44875 106.482813 
L 316.72375 106.482813 
L 316.72375 24.332813 
L 37.44875 24.332813 
z
" style="fill:#ffffff;"/>
   </g>
   <g id="line2d_1">
    <path clip-path="url(#p7afd6df247)" d="M 37.44875 106.482813 
L 316.72375 106.482813 
" style="fill:none;stroke:#000000;stroke-linecap:square;stroke-width:0.5;"/>
   </g>
   <g id="patch_3">
    <path clip-path="url(#p7afd6df247)" d="M 56.467478 106.449961 
Q 54.876594 106.466245 53.156331 106.474481 
Q 51.436068 106.482813 49.562467 106.482813 
Q 43.975207 106.482813 40.711978 106.421085 
Q 37.44875 106.359358 37.44875 106.253798 
Q 37.44875 106.147858 40.711978 106.086226 
Q 43.975207 106.024499 49.562467 106.024499 
Q 51.436068 106.024499 53.156331 106.03283 
Q 54.876594 106.041067 56.467478 106.057351 
L 56.467478 106.14871 
Q 54.862218 106.127125 53.304877 106.117089 
Q 51.747536 106.107054 50.027274 106.107054 
Q 46.941342 106.107054 45.173161 106.146154 
Q 43.409772 106.18516 43.409772 106.253798 
Q 43.409772 106.322152 45.173161 106.361252 
Q 46.941342 106.400257 50.027274 106.400257 
Q 51.747536 106.400257 53.304877 106.390222 
Q 54.862218 106.380092 56.467478 106.358506 
z
" style="fill:#0000ff;"/>
   </g>
   <g id="patch_4">
    <path clip-path="url(#p7afd6df247)" d="M 50.623039 105.615396 
L 43.308742 105.615396 
L 42.153853 106.024499 
L 37.44875 106.024499 
L 44.168104 103.778763 
L 49.748123 103.778763 
L 56.467478 106.024499 
L 51.766263 106.024499 
z
M 44.475297 105.198592 
L 49.444819 105.198592 
L 46.963947 104.305303 
z
" style="fill:#008000;"/>
   </g>
   <g id="patch_5">
    <path clip-path="url(#p7afd6df247)" d="M 56.467478 103.570046 
Q 54.549408 103.674404 52.486417 103.726822 
Q 50.423427 103.778763 48.22404 103.778763 
Q 43.254108 103.778763 40.351429 103.46807 
Q 37.44875 103.157378 37.44875 102.626055 
Q 37.44875 102.088538 40.402577 101.780228 
Q 43.360667 101.471918 48.505357 101.471918 
Q 50.487362 101.471918 52.303135 101.513852 
Q 54.12317 101.555309 55.734349 101.637271 
L 55.734349 102.097115 
Q 54.072022 101.991804 52.426744 101.939863 
Q 50.781466 101.887445 49.127664 101.887445 
Q 46.067277 101.887445 44.409212 102.079007 
Q 42.751147 102.270093 42.751147 102.626055 
Q 42.751147 102.978682 44.349539 103.171197 
Q 45.94793 103.363235 48.888971 103.363235 
Q 49.690298 103.363235 50.37654 103.352275 
Q 51.062783 103.340839 51.608367 103.317013 
L 51.608367 102.885283 
L 48.47552 102.885283 
L 48.47552 102.50073 
L 56.467478 102.50073 
z
" style="fill:#ffa600;"/>
   </g>
   <g id="patch_6">
    <path clip-path="url(#p7afd6df247)" d="M 37.44875 98.844254 
L 56.467478 98.844254 
L 56.467478 99.356722 
L 49.625159 99.356722 
L 49.625159 101.471918 
L 44.304338 101.471918 
L 44.304338 99.356722 
L 37.44875 99.356722 
z
" style="fill:#ff0000;"/>
   </g>
   <g id="patch_7">
    <path clip-path="url(#p7afd6df247)" d="M 70.642753 106.260366 
L 63.328456 106.260366 
L 62.173567 106.482813 
L 57.468463 106.482813 
L 64.187817 105.261714 
L 69.767837 105.261714 
L 76.487191 106.482813 
L 71.785976 106.482813 
z
M 64.49501 106.033733 
L 69.464532 106.033733 
L 66.98366 105.548016 
z
" style="fill:#008000;"/>
   </g>
   <g id="patch_8">
    <path clip-path="url(#p7afd6df247)" d="M 76.487191 105.171755 
Q 74.896307 105.216346 73.176044 105.238901 
Q 71.455781 105.261714 69.58218 105.261714 
Q 63.99492 105.261714 60.731692 105.092685 
Q 57.468463 104.923656 57.468463 104.634595 
Q 57.468463 104.344496 60.731692 104.175726 
Q 63.99492 104.006697 69.58218 104.006697 
Q 71.455781 104.006697 73.176044 104.029511 
Q 74.896307 104.052065 76.487191 104.096656 
L 76.487191 104.34683 
Q 74.881932 104.287721 73.324591 104.260241 
Q 71.76725 104.232761 70.046987 104.232761 
Q 66.961056 104.232761 65.192875 104.33983 
Q 63.429485 104.44664 63.429485 104.634595 
Q 63.429485 104.821771 65.192875 104.92884 
Q 66.961056 105.03565 70.046987 105.03565 
Q 71.76725 105.03565 73.324591 105.00817 
Q 74.881932 104.980431 76.487191 104.921322 
z
" style="fill:#0000ff;"/>
   </g>
   <g id="patch_9">
    <path clip-path="url(#p7afd6df247)" d="M 57.468463 97.799448 
L 76.487191 97.799448 
L 76.487191 99.010035 
L 69.644872 99.010035 
L 69.644872 104.006697 
L 64.324051 104.006697 
L 64.324051 99.010035 
L 57.468463 99.010035 
z
" style="fill:#ff0000;"/>
   </g>
   <g id="patch_10">
    <path clip-path="url(#p7afd6df247)" d="M 76.487191 97.050629 
Q 74.569121 97.425039 72.50613 97.613098 
Q 70.44314 97.799448 68.243753 97.799448 
Q 63.273821 97.799448 60.371142 96.684768 
Q 57.468463 95.570087 57.468463 93.663847 
Q 57.468463 91.735381 60.422291 90.629249 
Q 63.380381 89.523116 68.52507 89.523116 
Q 70.507075 89.523116 72.322848 89.673564 
Q 74.142883 89.822302 75.754062 90.116359 
L 75.754062 91.766154 
Q 74.091735 91.388326 72.446457 91.201976 
Q 70.80118 91.013916 69.147377 91.013916 
Q 66.08699 91.013916 64.428925 91.701188 
Q 62.770861 92.386751 62.770861 93.663847 
Q 62.770861 94.928975 64.369252 95.619666 
Q 65.967644 96.308648 68.908684 96.308648 
Q 69.710011 96.308648 70.396254 96.269327 
Q 71.082496 96.228296 71.628081 96.142814 
L 71.628081 94.593887 
L 68.495233 94.593887 
L 68.495233 93.214213 
L 76.487191 93.214213 
z
" style="fill:#ffa600;"/>
   </g>
   <g id="patch_11">
    <path clip-path="url(#p7afd6df247)" d="M 90.662466 106.309783 
L 83.348169 106.309783 
L 82.19328 106.482813 
L 77.488177 106.482813 
L 84.207531 105.53298 
L 89.78755 105.53298 
L 96.506904 106.482813 
L 91.805689 106.482813 
z
M 84.514723 106.133495 
L 89.484246 106.133495 
L 87.003373 105.755679 
z
" style="fill:#008000;"/>
   </g>
   <g id="patch_12">
    <path clip-path="url(#p7afd6df247)" d="M 96.506904 105.334661 
Q 94.588834 105.43382 92.525844 105.483626 
Q 90.462853 105.53298 88.263466 105.53298 
Q 83.293534 105.53298 80.390855 105.237765 
Q 77.488177 104.942551 77.488177 104.437698 
Q 77.488177 103.926959 80.442004 103.634008 
Q 83.400094 103.341057 88.544783 103.341057 
Q 90.526789 103.341057 92.342561 103.380902 
Q 94.162597 103.420294 95.773775 103.498173 
L 95.773775 103.935109 
Q 94.111448 103.835044 92.46617 103.78569 
Q 90.820893 103.735884 89.16709 103.735884 
Q 86.106703 103.735884 84.448639 103.917903 
Q 82.790574 104.099469 82.790574 104.437698 
Q 82.790574 104.772757 84.388965 104.955681 
Q 85.987357 105.138153 88.928397 105.138153 
Q 89.729724 105.138153 90.415967 105.127739 
Q 91.10221 105.116872 91.647794 105.094233 
L 91.647794 104.684012 
L 88.514947 104.684012 
L 88.514947 104.318616 
L 96.506904 104.318616 
z
" style="fill:#ffa600;"/>
   </g>
   <g id="patch_13">
    <path clip-path="url(#p7afd6df247)" d="M 77.488177 97.495932 
L 96.506904 97.495932 
L 96.506904 98.635894 
L 89.664585 98.635894 
L 89.664585 103.341057 
L 84.343764 103.341057 
L 84.343764 98.635894 
L 77.488177 98.635894 
z
" style="fill:#ff0000;"/>
   </g>
   <g id="patch_14">
    <path clip-path="url(#p7afd6df247)" d="M 96.506904 95.521512 
Q 94.91602 96.500187 93.195758 96.995214 
Q 91.475495 97.495932 89.601894 97.495932 
Q 84.014633 97.495932 80.751405 93.78607 
Q 77.488177 90.076208 77.488177 83.73189 
Q 77.488177 77.364811 80.751405 73.660639 
Q 84.014633 69.950777 89.601894 69.950777 
Q 91.475495 69.950777 93.195758 70.451495 
Q 94.91602 70.946523 96.506904 71.925198 
L 96.506904 77.416021 
Q 94.901645 76.118707 93.344304 75.51557 
Q 91.786963 74.912433 90.0667 74.912433 
Q 86.980769 74.912433 85.212588 77.262391 
Q 83.449199 79.60666 83.449199 83.73189 
Q 83.449199 87.840049 85.212588 90.190008 
Q 86.980769 92.534276 90.0667 92.534276 
Q 91.786963 92.534276 93.344304 91.931139 
Q 94.901645 91.322312 96.506904 90.024999 
z
" style="fill:#0000ff;"/>
   </g>
   <g id="patch_15">
    <path clip-path="url(#p7afd6df247)" d="M 110.682179 106.456426 
L 103.367882 106.456426 
L 102.212993 106.482813 
L 97.50789 106.482813 
L 104.227244 106.337964 
L 109.807263 106.337964 
L 116.526617 106.482813 
L 111.825403 106.482813 
z
M 104.534437 106.429542 
L 109.503959 106.429542 
L 107.023086 106.371925 
z
" style="fill:#008000;"/>
   </g>
   <g id="patch_16">
    <path clip-path="url(#p7afd6df247)" d="M 116.526617 106.298647 
Q 114.608548 106.318305 112.545557 106.328179 
Q 110.482566 106.337964 108.28318 106.337964 
Q 103.313248 106.337964 100.410569 106.279438 
Q 97.50789 106.220912 97.50789 106.120825 
Q 97.50789 106.019571 100.461717 105.961494 
Q 103.419807 105.903417 108.564497 105.903417 
Q 110.546502 105.903417 112.362275 105.911316 
Q 114.18231 105.919126 115.793488 105.934565 
L 115.793488 106.021187 
Q 114.131161 106.001349 112.485884 105.991565 
Q 110.840606 105.981691 109.186804 105.981691 
Q 106.126417 105.981691 104.468352 106.017776 
Q 102.810287 106.053771 102.810287 106.120825 
Q 102.810287 106.18725 104.408679 106.223515 
Q 106.00707 106.25969 108.948111 106.25969 
Q 109.749437 106.25969 110.43568 106.257625 
Q 111.121923 106.255471 111.667507 106.250982 
L 111.667507 106.169656 
L 108.53466 106.169656 
L 108.53466 106.097217 
L 116.526617 106.097217 
z
" style="fill:#ffa600;"/>
   </g>
   <g id="patch_17">
    <path clip-path="url(#p7afd6df247)" d="M 116.526617 105.778825 
Q 114.935734 105.840582 113.215471 105.87182 
Q 111.495208 105.903417 109.621607 105.903417 
Q 104.034347 105.903417 100.771118 105.669313 
Q 97.50789 105.435209 97.50789 105.034862 
Q 97.50789 104.63308 100.771118 104.399335 
Q 104.034347 104.165231 109.621607 104.165231 
Q 111.495208 104.165231 113.215471 104.196827 
Q 114.935734 104.228065 116.526617 104.289823 
L 116.526617 104.636311 
Q 114.921358 104.554446 113.364017 104.516387 
Q 111.806676 104.478327 110.086413 104.478327 
Q 107.000482 104.478327 105.232301 104.626617 
Q 103.468912 104.774547 103.468912 105.034862 
Q 103.468912 105.2941 105.232301 105.44239 
Q 107.000482 105.590321 110.086413 105.590321 
Q 111.806676 105.590321 113.364017 105.552261 
Q 114.921358 105.513842 116.526617 105.431977 
z
" style="fill:#0000ff;"/>
   </g>
   <g id="patch_18">
    <path clip-path="url(#p7afd6df247)" d="M 97.50789 34.058378 
L 116.526617 34.058378 
L 116.526617 47.731168 
L 109.684298 47.731168 
L 109.684298 104.165231 
L 104.363478 104.165231 
L 104.363478 47.731168 
L 97.50789 47.731168 
z
" style="fill:#ff0000;"/>
   </g>
   <g id="patch_19">
    <path clip-path="url(#p7afd6df247)" d="M 136.546331 106.45682 
Q 134.628261 106.469816 132.56527 106.476344 
Q 130.50228 106.482813 128.302893 106.482813 
Q 123.332961 106.482813 120.430282 106.444121 
Q 117.527603 106.405429 117.527603 106.339262 
Q 117.527603 106.272323 120.481431 106.233928 
Q 123.43952 106.195533 128.58421 106.195533 
Q 130.566215 106.195533 132.381988 106.200755 
Q 134.202023 106.205918 135.813202 106.216125 
L 135.813202 106.273391 
Q 134.150875 106.260276 132.505597 106.253808 
Q 130.860319 106.24728 129.206517 106.24728 
Q 126.14613 106.24728 124.488065 106.271136 
Q 122.83 106.294932 122.83 106.339262 
Q 122.83 106.383176 124.428392 106.40715 
Q 126.026783 106.431065 128.967824 106.431065 
Q 129.769151 106.431065 130.455393 106.4297 
Q 131.141636 106.428276 131.687221 106.425309 
L 131.687221 106.371544 
L 128.554373 106.371544 
L 128.554373 106.323654 
L 136.546331 106.323654 
z
" style="fill:#ffa600;"/>
   </g>
   <g id="patch_20">
    <path clip-path="url(#p7afd6df247)" d="M 117.527603 103.753656 
L 136.546331 103.753656 
L 136.546331 104.22989 
L 129.704012 104.22989 
L 129.704012 106.195533 
L 124.383191 106.195533 
L 124.383191 104.22989 
L 117.527603 104.22989 
z
" style="fill:#ff0000;"/>
   </g>
   <g id="patch_21">
    <path clip-path="url(#p7afd6df247)" d="M 130.701892 91.167471 
L 123.387595 91.167471 
L 122.232706 103.753656 
L 117.527603 103.753656 
L 124.246957 34.662904 
L 129.826976 34.662904 
L 136.546331 103.753656 
L 131.845116 103.753656 
z
M 124.55415 78.34437 
L 129.523672 78.34437 
L 127.0428 50.862064 
z
" style="fill:#008000;"/>
   </g>
   <g id="patch_22">
    <path clip-path="url(#p7afd6df247)" d="M 156.566044 106.463899 
Q 154.97516 106.473274 153.254897 106.478016 
Q 151.534634 106.482813 149.661033 106.482813 
Q 144.073773 106.482813 140.810545 106.447274 
Q 137.547316 106.411735 137.547316 106.35096 
Q 137.547316 106.289967 140.810545 106.254483 
Q 144.073773 106.218944 149.661033 106.218944 
Q 151.534634 106.218944 153.254897 106.223741 
Q 154.97516 106.228483 156.566044 106.237858 
L 156.566044 106.290457 
Q 154.960785 106.27803 153.403444 106.272252 
Q 151.846103 106.266474 150.12584 106.266474 
Q 147.039909 106.266474 145.271728 106.288985 
Q 143.508339 106.311442 143.508339 106.35096 
Q 143.508339 106.390314 145.271728 106.412825 
Q 147.039909 106.435282 150.12584 106.435282 
Q 151.846103 106.435282 153.403444 106.429505 
Q 154.960785 106.423672 156.566044 106.411245 
z
" style="fill:#0000ff;"/>
   </g>
   <g id="patch_23">
    <path clip-path="url(#p7afd6df247)" d="M 156.566044 106.19507 
Q 154.647974 106.207007 152.584983 106.213003 
Q 150.521993 106.218944 148.322606 106.218944 
Q 143.352674 106.218944 140.449995 106.183405 
Q 137.547316 106.147867 137.547316 106.087091 
Q 137.547316 106.025607 140.501144 105.990341 
Q 143.459234 105.955075 148.603923 105.955075 
Q 150.585929 105.955075 152.401701 105.959872 
Q 154.221736 105.964614 155.832915 105.973989 
L 155.832915 106.026589 
Q 154.170588 106.014543 152.52531 106.008601 
Q 150.880033 106.002605 149.22623 106.002605 
Q 146.165843 106.002605 144.507778 106.024517 
Q 142.849714 106.046375 142.849714 106.087091 
Q 142.849714 106.127427 144.448105 106.149447 
Q 146.046497 106.171414 148.987537 106.171414 
Q 149.788864 106.171414 150.475107 106.17016 
Q 151.161349 106.168852 151.706934 106.166127 
L 151.706934 106.116743 
L 148.574086 106.116743 
L 148.574086 106.072756 
L 156.566044 106.072756 
z
" style="fill:#ffa600;"/>
   </g>
   <g id="patch_24">
    <path clip-path="url(#p7afd6df247)" d="M 150.721606 105.25808 
L 143.407309 105.25808 
L 142.25242 105.955075 
L 137.547316 105.955075 
L 144.26667 102.128981 
L 149.84669 102.128981 
L 156.566044 105.955075 
L 151.864829 105.955075 
z
M 144.573863 104.547965 
L 149.543386 104.547965 
L 147.062513 103.026055 
z
" style="fill:#008000;"/>
   </g>
   <g id="patch_25">
    <path clip-path="url(#p7afd6df247)" d="M 137.547316 40.515666 
L 156.566044 40.515666 
L 156.566044 52.531979 
L 149.723725 52.531979 
L 149.723725 102.128981 
L 144.402904 102.128981 
L 144.402904 52.531979 
L 137.547316 52.531979 
z
" style="fill:#ff0000;"/>
   </g>
   <g id="patch_26">
    <path clip-path="url(#p7afd6df247)" d="M 176.585757 106.441725 
Q 174.667687 106.462269 172.604697 106.472587 
Q 170.541706 106.482813 168.342319 106.482813 
Q 163.372387 106.482813 160.469709 106.42165 
Q 157.56703 106.360487 157.56703 106.255891 
Q 157.56703 106.150076 160.520857 106.089382 
Q 163.478947 106.028689 168.623636 106.028689 
Q 170.605642 106.028689 172.421415 106.036944 
Q 174.24145 106.045105 175.852628 106.06124 
L 175.852628 106.151764 
Q 174.190301 106.131033 172.545023 106.120808 
Q 170.899746 106.110489 169.245943 106.110489 
Q 166.185557 106.110489 164.527492 106.1482 
Q 162.869427 106.185817 162.869427 106.255891 
Q 162.869427 106.325309 164.467818 106.363207 
Q 166.06621 106.401012 169.00725 106.401012 
Q 169.808577 106.401012 170.49482 106.398854 
Q 171.181063 106.396603 171.726647 106.391913 
L 171.726647 106.306923 
L 168.5938 106.306923 
L 168.5938 106.23122 
L 176.585757 106.23122 
z
" style="fill:#ffa600;"/>
   </g>
   <g id="patch_27">
    <path clip-path="url(#p7afd6df247)" d="M 176.585757 105.939172 
Q 174.994873 105.983544 173.274611 106.005987 
Q 171.554348 106.028689 169.680747 106.028689 
Q 164.093486 106.028689 160.830258 105.860491 
Q 157.56703 105.692293 157.56703 105.404655 
Q 157.56703 105.115985 160.830258 104.948045 
Q 164.093486 104.779848 169.680747 104.779848 
Q 171.554348 104.779848 173.274611 104.802549 
Q 174.994873 104.824993 176.585757 104.869364 
L 176.585757 105.118307 
Q 174.980498 105.059489 173.423157 105.032144 
Q 171.865816 105.004799 170.145553 105.004799 
Q 167.059622 105.004799 165.291441 105.111341 
Q 163.528052 105.217626 163.528052 105.404655 
Q 163.528052 105.590911 165.291441 105.697453 
Q 167.059622 105.803737 170.145553 105.803737 
Q 171.865816 105.803737 173.423157 105.776392 
Q 174.980498 105.748789 176.585757 105.689972 
z
" style="fill:#0000ff;"/>
   </g>
   <g id="patch_28">
    <path clip-path="url(#p7afd6df247)" d="M 170.741319 103.952575 
L 163.427022 103.952575 
L 162.272133 104.779848 
L 157.56703 104.779848 
L 164.286384 100.238608 
L 169.866403 100.238608 
L 176.585757 104.779848 
L 171.884542 104.779848 
z
M 164.593576 103.10973 
L 169.563099 103.10973 
L 167.082226 101.303357 
z
" style="fill:#008000;"/>
   </g>
   <g id="patch_29">
    <path clip-path="url(#p7afd6df247)" d="M 157.56703 49.717318 
L 176.585757 49.717318 
L 176.585757 59.570377 
L 169.743438 59.570377 
L 169.743438 100.238608 
L 164.422617 100.238608 
L 164.422617 59.570377 
L 157.56703 59.570377 
z
" style="fill:#ff0000;"/>
   </g>
   <g id="patch_30">
    <path clip-path="url(#p7afd6df247)" d="M 196.60547 106.453561 
Q 194.687401 106.468187 192.62441 106.475533 
Q 190.561419 106.482813 188.362033 106.482813 
Q 183.392101 106.482813 180.489422 106.439269 
Q 177.586743 106.395725 177.586743 106.32126 
Q 177.586743 106.245927 180.54057 106.202717 
Q 183.49866 106.159507 188.64335 106.159507 
Q 190.625355 106.159507 192.441128 106.165384 
Q 194.261163 106.171195 195.872342 106.182682 
L 195.872342 106.247129 
Q 194.210014 106.23237 192.564737 106.22509 
Q 190.919459 106.217744 189.265657 106.217744 
Q 186.20527 106.217744 184.547205 106.244591 
Q 182.88914 106.271372 182.88914 106.32126 
Q 182.88914 106.370681 184.487532 106.397662 
Q 186.085923 106.424576 189.026964 106.424576 
Q 189.82829 106.424576 190.514533 106.42304 
Q 191.200776 106.421437 191.74636 106.418098 
L 191.74636 106.357591 
L 188.613513 106.357591 
L 188.613513 106.303696 
L 196.60547 106.303696 
z
" style="fill:#ffa600;"/>
   </g>
   <g id="patch_31">
    <path clip-path="url(#p7afd6df247)" d="M 196.60547 106.035911 
Q 195.014587 106.097175 193.294324 106.128163 
Q 191.574061 106.159507 189.70046 106.159507 
Q 184.1132 106.159507 180.849971 105.927274 
Q 177.586743 105.695041 177.586743 105.297894 
Q 177.586743 104.899323 180.849971 104.667446 
Q 184.1132 104.435213 189.70046 104.435213 
Q 191.574061 104.435213 193.294324 104.466557 
Q 195.014587 104.497545 196.60547 104.558809 
L 196.60547 104.902528 
Q 195.000211 104.821318 193.44287 104.783562 
Q 191.885529 104.745807 190.165266 104.745807 
Q 187.079335 104.745807 185.311154 104.892911 
Q 183.547765 105.03966 183.547765 105.297894 
Q 183.547765 105.55506 185.311154 105.702165 
Q 187.079335 105.848914 190.165266 105.848914 
Q 191.885529 105.848914 193.44287 105.811158 
Q 195.000211 105.773046 196.60547 105.691836 
z
" style="fill:#0000ff;"/>
   </g>
   <g id="patch_32">
    <path clip-path="url(#p7afd6df247)" d="M 190.761032 103.551771 
L 183.446735 103.551771 
L 182.291846 104.435213 
L 177.586743 104.435213 
L 184.306097 99.585635 
L 189.886116 99.585635 
L 196.60547 104.435213 
L 191.904256 104.435213 
z
M 184.61329 102.651699 
L 189.582812 102.651699 
L 187.101939 100.722677 
z
" style="fill:#008000;"/>
   </g>
   <g id="patch_33">
    <path clip-path="url(#p7afd6df247)" d="M 177.586743 52.598615 
L 196.60547 52.598615 
L 196.60547 61.762393 
L 189.763151 61.762393 
L 189.763151 99.585635 
L 184.442331 99.585635 
L 184.442331 61.762393 
L 177.586743 61.762393 
z
" style="fill:#ff0000;"/>
   </g>
   <g id="patch_34">
    <path clip-path="url(#p7afd6df247)" d="M 216.625184 106.449562 
Q 214.707114 106.466187 212.644123 106.474538 
Q 210.581133 106.482813 208.381746 106.482813 
Q 203.411814 106.482813 200.509135 106.433317 
Q 197.606456 106.383821 197.606456 106.299176 
Q 197.606456 106.213545 200.560284 106.164429 
Q 203.518373 106.115312 208.663063 106.115312 
Q 210.645068 106.115312 212.460841 106.121993 
Q 214.280876 106.128597 215.892055 106.141655 
L 215.892055 106.214912 
Q 214.229728 106.198135 212.58445 106.18986 
Q 210.939172 106.18151 209.28537 106.18151 
Q 206.224983 106.18151 204.566918 106.212027 
Q 202.908853 106.242469 202.908853 106.299176 
Q 202.908853 106.355353 204.507245 106.386022 
Q 206.105636 106.416615 209.046677 106.416615 
Q 209.848004 106.416615 210.534247 106.414869 
Q 211.220489 106.413047 211.766074 106.409252 
L 211.766074 106.340474 
L 208.633226 106.340474 
L 208.633226 106.279211 
L 216.625184 106.279211 
z
" style="fill:#ffa600;"/>
   </g>
   <g id="patch_35">
    <path clip-path="url(#p7afd6df247)" d="M 216.625184 105.94597 
Q 215.0343 106.029909 213.314037 106.072367 
Q 211.593774 106.115312 209.720173 106.115312 
Q 204.132913 106.115312 200.869684 105.797124 
Q 197.606456 105.478936 197.606456 104.934795 
Q 197.606456 104.388701 200.869684 104.071001 
Q 204.132913 103.752812 209.720173 103.752812 
Q 211.593774 103.752812 213.314037 103.795758 
Q 215.0343 103.838216 216.625184 103.922155 
L 216.625184 104.393093 
Q 215.019924 104.281825 213.462583 104.230095 
Q 211.905242 104.178365 210.18498 104.178365 
Q 207.099049 104.178365 205.330868 104.379917 
Q 203.567478 104.580981 203.567478 104.934795 
Q 203.567478 105.287144 205.330868 105.488696 
Q 207.099049 105.68976 210.18498 105.68976 
Q 211.905242 105.68976 213.462583 105.63803 
Q 215.019924 105.585812 216.625184 105.474544 
z
" style="fill:#0000ff;"/>
   </g>
   <g id="patch_36">
    <path clip-path="url(#p7afd6df247)" d="M 210.780745 102.33736 
L 203.466448 102.33736 
L 202.311559 103.752812 
L 197.606456 103.752812 
L 204.32581 95.982812 
L 209.90583 95.982812 
L 216.625184 103.752812 
L 211.923969 103.752812 
z
M 204.633003 100.895264 
L 209.602525 100.895264 
L 207.121653 97.804583 
z
" style="fill:#008000;"/>
   </g>
   <g id="patch_37">
    <path clip-path="url(#p7afd6df247)" d="M 197.606456 80.232812 
L 216.625184 80.232812 
L 216.625184 83.304501 
L 209.782865 83.304501 
L 209.782865 95.982812 
L 204.462044 95.982812 
L 204.462044 83.304501 
L 197.606456 83.304501 
z
" style="fill:#ff0000;"/>
   </g>
   <g id="patch_38">
    <path clip-path="url(#p7afd6df247)" d="M 236.644897 106.44593 
Q 235.054013 106.464212 233.33375 106.473459 
Q 231.613488 106.482813 229.739887 106.482813 
Q 224.152626 106.482813 220.889398 106.413512 
Q 217.626169 106.344212 217.626169 106.2257 
Q 217.626169 106.106763 220.889398 106.037569 
Q 224.152626 105.968269 229.739887 105.968269 
Q 231.613488 105.968269 233.33375 105.977622 
Q 235.054013 105.986869 236.644897 106.005151 
L 236.644897 106.10772 
Q 235.039638 106.083486 233.482297 106.072219 
Q 231.924956 106.060953 230.204693 106.060953 
Q 227.118762 106.060953 225.350581 106.10485 
Q 223.587192 106.148641 223.587192 106.2257 
Q 223.587192 106.302441 225.350581 106.346338 
Q 227.118762 106.390129 230.204693 106.390129 
Q 231.924956 106.390129 233.482297 106.378862 
Q 235.039638 106.367489 236.644897 106.343255 
z
" style="fill:#0000ff;"/>
   </g>
   <g id="patch_39">
    <path clip-path="url(#p7afd6df247)" d="M 236.644897 105.735497 
Q 234.726827 105.851883 232.663837 105.910341 
Q 230.600846 105.968269 228.401459 105.968269 
Q 223.431527 105.968269 220.528848 105.621768 
Q 217.626169 105.275266 217.626169 104.682707 
Q 217.626169 104.083238 220.579997 103.739394 
Q 223.538087 103.39555 228.682776 103.39555 
Q 230.664782 103.39555 232.480554 103.442317 
Q 234.300589 103.488553 235.911768 103.579961 
L 235.911768 104.092804 
Q 234.249441 103.975355 232.604163 103.917428 
Q 230.958886 103.858969 229.305083 103.858969 
Q 226.244696 103.858969 224.586632 104.07261 
Q 222.928567 104.285718 222.928567 104.682707 
Q 222.928567 105.075975 224.526958 105.290678 
Q 226.12535 105.50485 229.06639 105.50485 
Q 229.867717 105.50485 230.55396 105.492627 
Q 231.240203 105.479872 231.785787 105.4533 
L 231.785787 104.971812 
L 228.652939 104.971812 
L 228.652939 104.542937 
L 236.644897 104.542937 
z
" style="fill:#ffa600;"/>
   </g>
   <g id="patch_40">
    <path clip-path="url(#p7afd6df247)" d="M 230.800459 102.683173 
L 223.486162 102.683173 
L 222.331273 103.39555 
L 217.626169 103.39555 
L 224.345524 99.485018 
L 229.925543 99.485018 
L 236.644897 103.39555 
L 231.943682 103.39555 
z
M 224.652716 101.957386 
L 229.622239 101.957386 
L 227.141366 100.40189 
z
" style="fill:#008000;"/>
   </g>
   <g id="patch_41">
    <path clip-path="url(#p7afd6df247)" d="M 217.626169 55.028443 
L 236.644897 55.028443 
L 236.644897 63.698714 
L 229.802578 63.698714 
L 229.802578 99.485018 
L 224.481757 99.485018 
L 224.481757 63.698714 
L 217.626169 63.698714 
z
" style="fill:#ff0000;"/>
   </g>
   <g id="patch_42">
    <path clip-path="url(#p7afd6df247)" d="M 237.645883 105.91931 
L 256.66461 105.91931 
L 256.66461 106.029209 
L 249.822291 106.029209 
L 249.822291 106.482813 
L 244.50147 106.482813 
L 244.50147 106.029209 
L 237.645883 106.029209 
z
" style="fill:#ff0000;"/>
   </g>
   <g id="patch_43">
    <path clip-path="url(#p7afd6df247)" d="M 256.66461 104.967607 
Q 254.74654 105.443459 252.68355 105.682471 
Q 250.620559 105.91931 248.421172 105.91931 
Q 243.451241 105.91931 240.548562 104.50262 
Q 237.645883 103.08593 237.645883 100.663216 
Q 237.645883 98.212255 240.59971 96.806429 
Q 243.5578 95.400602 248.702489 95.400602 
Q 250.684495 95.400602 252.500268 95.591812 
Q 254.320303 95.780849 255.931481 96.154577 
L 255.931481 98.251366 
Q 254.269154 97.771169 252.623877 97.534329 
Q 250.978599 97.295317 249.324796 97.295317 
Q 246.26441 97.295317 244.606345 98.168798 
Q 242.94828 99.040106 242.94828 100.663216 
Q 242.94828 102.271116 244.546671 103.148942 
Q 246.145063 104.024596 249.086103 104.024596 
Q 249.88743 104.024596 250.573673 103.97462 
Q 251.259916 103.922472 251.8055 103.81383 
L 251.8055 101.845239 
L 248.672653 101.845239 
L 248.672653 100.091759 
L 256.66461 100.091759 
z
" style="fill:#ffa600;"/>
   </g>
   <g id="patch_44">
    <path clip-path="url(#p7afd6df247)" d="M 250.820172 88.865056 
L 243.505875 88.865056 
L 242.350986 95.400602 
L 237.645883 95.400602 
L 244.365237 59.524296 
L 249.945256 59.524296 
L 256.66461 95.400602 
L 251.963395 95.400602 
z
M 244.672429 82.206487 
L 249.641952 82.206487 
L 247.161079 67.935929 
z
" style="fill:#008000;"/>
   </g>
   <g id="patch_45">
    <path clip-path="url(#p7afd6df247)" d="M 276.684323 106.388495 
Q 275.09344 106.435246 273.373177 106.458893 
Q 271.652914 106.482813 269.779313 106.482813 
Q 264.192053 106.482813 260.928824 106.305594 
Q 257.665596 106.128376 257.665596 105.825311 
Q 257.665596 105.521158 260.928824 105.344212 
Q 264.192053 105.166993 269.779313 105.166993 
Q 271.652914 105.166993 273.373177 105.190912 
Q 275.09344 105.214559 276.684323 105.26131 
L 276.684323 105.523604 
Q 275.079064 105.461632 273.521723 105.432821 
Q 271.964382 105.404009 270.244119 105.404009 
Q 267.158188 105.404009 265.390007 105.516266 
Q 263.626618 105.62825 263.626618 105.825311 
Q 263.626618 106.021555 265.390007 106.133812 
Q 267.158188 106.245797 270.244119 106.245797 
Q 271.964382 106.245797 273.521723 106.216985 
Q 275.079064 106.187902 276.684323 106.125929 
z
" style="fill:#0000ff;"/>
   </g>
   <g id="patch_46">
    <path clip-path="url(#p7afd6df247)" d="M 270.839885 104.56069 
L 263.525588 104.56069 
L 262.370699 105.166993 
L 257.665596 105.166993 
L 264.38495 101.838744 
L 269.964969 101.838744 
L 276.684323 105.166993 
L 271.983109 105.166993 
z
M 264.692143 103.942974 
L 269.661665 103.942974 
L 267.180792 102.619093 
z
" style="fill:#008000;"/>
   </g>
   <g id="patch_47">
    <path clip-path="url(#p7afd6df247)" d="M 257.665596 98.278292 
L 276.684323 98.278292 
L 276.684323 98.97268 
L 269.842005 98.97268 
L 269.842005 101.838744 
L 264.521184 101.838744 
L 264.521184 98.97268 
L 257.665596 98.97268 
z
" style="fill:#ff0000;"/>
   </g>
   <g id="patch_48">
    <path clip-path="url(#p7afd6df247)" d="M 276.684323 95.519096 
Q 274.766254 96.898694 272.703263 97.591643 
Q 270.640272 98.278292 268.440886 98.278292 
Q 263.470954 98.278292 260.568275 94.170996 
Q 257.665596 90.063699 257.665596 83.039718 
Q 257.665596 75.933843 260.619423 71.858044 
Q 263.577513 67.782245 268.722203 67.782245 
Q 270.704208 67.782245 272.519981 68.336604 
Q 274.340016 68.884664 275.951195 69.968184 
L 275.951195 76.047235 
Q 274.288867 74.655037 272.64359 73.968388 
Q 270.998312 73.275439 269.34451 73.275439 
Q 266.284123 73.275439 264.626058 75.807852 
Q 262.967993 78.333966 262.967993 83.039718 
Q 262.967993 87.701374 264.566385 90.246386 
Q 266.164776 92.785098 269.105817 92.785098 
Q 269.907144 92.785098 270.593386 92.640209 
Q 271.279629 92.48902 271.825213 92.174043 
L 271.825213 86.466665 
L 268.692366 86.466665 
L 268.692366 81.38294 
L 276.684323 81.38294 
z
" style="fill:#ffa600;"/>
   </g>
   <g id="patch_49">
    <path clip-path="url(#p7afd6df247)" d="M 296.704037 106.413602 
Q 294.785967 106.448207 292.722976 106.465589 
Q 290.659986 106.482813 288.460599 106.482813 
Q 283.490667 106.482813 280.587988 106.379787 
Q 277.685309 106.276762 277.685309 106.100577 
Q 277.685309 105.922337 280.639137 105.820102 
Q 283.597226 105.717867 288.741916 105.717867 
Q 290.723921 105.717867 292.539694 105.731772 
Q 294.359729 105.745519 295.970908 105.772697 
L 295.970908 105.925181 
Q 294.308581 105.89026 292.663303 105.873036 
Q 291.018025 105.855655 289.364223 105.855655 
Q 286.303836 105.855655 284.645771 105.919176 
Q 282.987707 105.98254 282.987707 106.100577 
Q 282.987707 106.217507 284.586098 106.281345 
Q 286.18449 106.345024 289.12553 106.345024 
Q 289.926857 106.345024 290.6131 106.34139 
Q 291.299342 106.337598 291.844927 106.329697 
L 291.844927 106.186536 
L 288.712079 106.186536 
L 288.712079 106.059019 
L 296.704037 106.059019 
z
" style="fill:#ffa600;"/>
   </g>
   <g id="patch_50">
    <path clip-path="url(#p7afd6df247)" d="M 277.685309 103.805502 
L 296.704037 103.805502 
L 296.704037 104.178466 
L 289.861718 104.178466 
L 289.861718 105.717867 
L 284.540897 105.717867 
L 284.540897 104.178466 
L 277.685309 104.178466 
z
" style="fill:#ff0000;"/>
   </g>
   <g id="patch_51">
    <path clip-path="url(#p7afd6df247)" d="M 290.859598 103.147947 
L 283.545301 103.147947 
L 282.390412 103.805502 
L 277.685309 103.805502 
L 284.404663 100.195913 
L 289.984683 100.195913 
L 296.704037 103.805502 
L 292.002822 103.805502 
z
M 284.711856 102.478015 
L 289.681378 102.478015 
L 287.200506 101.042225 
z
" style="fill:#008000;"/>
   </g>
   <g id="patch_52">
    <path clip-path="url(#p7afd6df247)" d="M 296.704037 99.789822 
Q 295.113153 99.991112 293.39289 100.092927 
Q 291.672627 100.195913 289.799026 100.195913 
Q 284.211766 100.195913 280.948538 99.432883 
Q 277.685309 98.669853 277.685309 97.364978 
Q 277.685309 96.055422 280.948538 95.293562 
Q 284.211766 94.530532 289.799026 94.530532 
Q 291.672627 94.530532 293.39289 94.633518 
Q 295.113153 94.735333 296.704037 94.936623 
L 296.704037 96.065954 
Q 295.098778 95.799128 293.541437 95.675077 
Q 291.984096 95.551026 290.263833 95.551026 
Q 287.177902 95.551026 285.409721 96.034357 
Q 283.646331 96.516517 283.646331 97.364978 
Q 283.646331 98.209928 285.409721 98.693259 
Q 287.177902 99.175419 290.263833 99.175419 
Q 291.984096 99.175419 293.541437 99.051368 
Q 295.098778 98.926147 296.704037 98.65932 
z
" style="fill:#0000ff;"/>
   </g>
   <g id="patch_53">
    <path clip-path="url(#p7afd6df247)" d="M 316.72375 106.441362 
Q 314.80568 106.462087 312.74269 106.472497 
Q 310.679699 106.482813 308.480312 106.482813 
Q 303.51038 106.482813 300.607701 106.42111 
Q 297.705022 106.359407 297.705022 106.253887 
Q 297.705022 106.147138 300.65885 106.085908 
Q 303.61694 106.024678 308.761629 106.024678 
Q 310.743635 106.024678 312.559407 106.033006 
Q 314.379442 106.04124 315.990621 106.057517 
L 315.990621 106.148841 
Q 314.328294 106.127927 312.683016 106.117611 
Q 311.037739 106.107201 309.383936 106.107201 
Q 306.323549 106.107201 304.665485 106.145245 
Q 303.00742 106.183194 303.00742 106.253887 
Q 303.00742 106.323918 304.605811 106.362151 
Q 306.204203 106.40029 309.145243 106.40029 
Q 309.94657 106.40029 310.632813 106.398113 
Q 311.319056 106.395842 311.86464 106.39111 
L 311.86464 106.30537 
L 308.731793 106.30537 
L 308.731793 106.228998 
L 316.72375 106.228998 
z
" style="fill:#ffa600;"/>
   </g>
   <g id="patch_54">
    <path clip-path="url(#p7afd6df247)" d="M 316.72375 105.91547 
Q 315.132866 105.969602 313.412603 105.996983 
Q 311.692341 106.024678 309.81874 106.024678 
Q 304.231479 106.024678 300.968251 105.819481 
Q 297.705022 105.614283 297.705022 105.263369 
Q 297.705022 104.911197 300.968251 104.706314 
Q 304.231479 104.501116 309.81874 104.501116 
Q 311.692341 104.501116 313.412603 104.528811 
Q 315.132866 104.556192 316.72375 104.610324 
L 316.72375 104.914029 
Q 315.118491 104.842273 313.56115 104.808913 
Q 312.003809 104.775552 310.283546 104.775552 
Q 307.197615 104.775552 305.429434 104.905532 
Q 303.666045 105.035197 303.666045 105.263369 
Q 303.666045 105.490597 305.429434 105.620577 
Q 307.197615 105.750242 310.283546 105.750242 
Q 312.003809 105.750242 313.56115 105.716882 
Q 315.118491 105.683207 316.72375 105.61145 
z
" style="fill:#0000ff;"/>
   </g>
   <g id="patch_55">
    <path clip-path="url(#p7afd6df247)" d="M 310.879312 104.20028 
L 303.565015 104.20028 
L 302.410126 104.501116 
L 297.705022 104.501116 
L 304.424377 102.849702 
L 310.004396 102.849702 
L 316.72375 104.501116 
L 312.022535 104.501116 
z
M 304.731569 103.893781 
L 309.701092 103.893781 
L 307.220219 103.236896 
z
" style="fill:#008000;"/>
   </g>
   <g id="patch_56">
    <path clip-path="url(#p7afd6df247)" d="M 297.705022 101.155671 
L 316.72375 101.155671 
L 316.72375 101.486054 
L 309.881431 101.486054 
L 309.881431 102.849702 
L 304.56061 102.849702 
L 304.56061 101.486054 
L 297.705022 101.486054 
z
" style="fill:#ff0000;"/>
   </g>
   <g id="matplotlib.axis_1">
    <g id="xtick_1">
     <g id="line2d_2">
      <defs>
       <path d="M 0 0 
L 0 3.5 
" id="m27ab3c7239" style="stroke:#000000;stroke-width:0.8;"/>
      </defs>
      <g>
       <use style="stroke:#000000;stroke-width:0.8;" x="46.958114" xlink:href="#m27ab3c7239" y="106.482813"/>
      </g>
     </g>
     <g id="text_1">
      <!-- 1 -->
      <defs>
       <path d="M 12.40625 8.296875 
L 28.515625 8.296875 
L 28.515625 63.921875 
L 10.984375 60.40625 
L 10.984375 69.390625 
L 28.421875 72.90625 
L 38.28125 72.90625 
L 38.28125 8.296875 
L 54.390625 8.296875 
L 54.390625 0 
L 12.40625 0 
z
" id="DejaVuSans-49"/>
      </defs>
      <g transform="translate(50.269364 121.117813)rotate(-90)scale(0.12 -0.12)">
       <use xlink:href="#DejaVuSans-49"/>
      </g>
     </g>
    </g>
    <g id="xtick_2">
     <g id="line2d_3">
      <g>
       <use style="stroke:#000000;stroke-width:0.8;" x="66.977827" xlink:href="#m27ab3c7239" y="106.482813"/>
      </g>
     </g>
     <g id="text_2">
      <!-- 2 -->
      <defs>
       <path d="M 19.1875 8.296875 
L 53.609375 8.296875 
L 53.609375 0 
L 7.328125 0 
L 7.328125 8.296875 
Q 12.9375 14.109375 22.625 23.890625 
Q 32.328125 33.6875 34.8125 36.53125 
Q 39.546875 41.84375 41.421875 45.53125 
Q 43.3125 49.21875 43.3125 52.78125 
Q 43.3125 58.59375 39.234375 62.25 
Q 35.15625 65.921875 28.609375 65.921875 
Q 23.96875 65.921875 18.8125 64.3125 
Q 13.671875 62.703125 7.8125 59.421875 
L 7.8125 69.390625 
Q 13.765625 71.78125 18.9375 73 
Q 24.125 74.21875 28.421875 74.21875 
Q 39.75 74.21875 46.484375 68.546875 
Q 53.21875 62.890625 53.21875 53.421875 
Q 53.21875 48.921875 51.53125 44.890625 
Q 49.859375 40.875 45.40625 35.40625 
Q 44.1875 33.984375 37.640625 27.21875 
Q 31.109375 20.453125 19.1875 8.296875 
z
" id="DejaVuSans-50"/>
      </defs>
      <g transform="translate(70.289077 121.117813)rotate(-90)scale(0.12 -0.12)">
       <use xlink:href="#DejaVuSans-50"/>
      </g>
     </g>
    </g>
    <g id="xtick_3">
     <g id="line2d_4">
      <g>
       <use style="stroke:#000000;stroke-width:0.8;" x="86.99754" xlink:href="#m27ab3c7239" y="106.482813"/>
      </g>
     </g>
     <g id="text_3">
      <!-- 3 -->
      <defs>
       <path d="M 40.578125 39.3125 
Q 47.65625 37.796875 51.625 33 
Q 55.609375 28.21875 55.609375 21.1875 
Q 55.609375 10.40625 48.1875 4.484375 
Q 40.765625 -1.421875 27.09375 -1.421875 
Q 22.515625 -1.421875 17.65625 -0.515625 
Q 12.796875 0.390625 7.625 2.203125 
L 7.625 11.71875 
Q 11.71875 9.328125 16.59375 8.109375 
Q 21.484375 6.890625 26.8125 6.890625 
Q 36.078125 6.890625 40.9375 10.546875 
Q 45.796875 14.203125 45.796875 21.1875 
Q 45.796875 27.640625 41.28125 31.265625 
Q 36.765625 34.90625 28.71875 34.90625 
L 20.21875 34.90625 
L 20.21875 43.015625 
L 29.109375 43.015625 
Q 36.375 43.015625 40.234375 45.921875 
Q 44.09375 48.828125 44.09375 54.296875 
Q 44.09375 59.90625 40.109375 62.90625 
Q 36.140625 65.921875 28.71875 65.921875 
Q 24.65625 65.921875 20.015625 65.03125 
Q 15.375 64.15625 9.8125 62.3125 
L 9.8125 71.09375 
Q 15.4375 72.65625 20.34375 73.4375 
Q 25.25 74.21875 29.59375 74.21875 
Q 40.828125 74.21875 47.359375 69.109375 
Q 53.90625 64.015625 53.90625 55.328125 
Q 53.90625 49.265625 50.4375 45.09375 
Q 46.96875 40.921875 40.578125 39.3125 
z
" id="DejaVuSans-51"/>
      </defs>
      <g transform="translate(90.30879 121.117813)rotate(-90)scale(0.12 -0.12)">
       <use xlink:href="#DejaVuSans-51"/>
      </g>
     </g>
    </g>
    <g id="xtick_4">
     <g id="line2d_5">
      <g>
       <use style="stroke:#000000;stroke-width:0.8;" x="107.017254" xlink:href="#m27ab3c7239" y="106.482813"/>
      </g>
     </g>
     <g id="text_4">
      <!-- 4 -->
      <defs>
       <path d="M 37.796875 64.3125 
L 12.890625 25.390625 
L 37.796875 25.390625 
z
M 35.203125 72.90625 
L 47.609375 72.90625 
L 47.609375 25.390625 
L 58.015625 25.390625 
L 58.015625 17.1875 
L 47.609375 17.1875 
L 47.609375 0 
L 37.796875 0 
L 37.796875 17.1875 
L 4.890625 17.1875 
L 4.890625 26.703125 
z
" id="DejaVuSans-52"/>
      </defs>
      <g transform="translate(110.328504 121.117813)rotate(-90)scale(0.12 -0.12)">
       <use xlink:href="#DejaVuSans-52"/>
      </g>
     </g>
    </g>
    <g id="xtick_5">
     <g id="line2d_6">
      <g>
       <use style="stroke:#000000;stroke-width:0.8;" x="127.036967" xlink:href="#m27ab3c7239" y="106.482813"/>
      </g>
     </g>
     <g id="text_5">
      <!-- 5 -->
      <defs>
       <path d="M 10.796875 72.90625 
L 49.515625 72.90625 
L 49.515625 64.59375 
L 19.828125 64.59375 
L 19.828125 46.734375 
Q 21.96875 47.46875 24.109375 47.828125 
Q 26.265625 48.1875 28.421875 48.1875 
Q 40.625 48.1875 47.75 41.5 
Q 54.890625 34.8125 54.890625 23.390625 
Q 54.890625 11.625 47.5625 5.09375 
Q 40.234375 -1.421875 26.90625 -1.421875 
Q 22.3125 -1.421875 17.546875 -0.640625 
Q 12.796875 0.140625 7.71875 1.703125 
L 7.71875 11.625 
Q 12.109375 9.234375 16.796875 8.0625 
Q 21.484375 6.890625 26.703125 6.890625 
Q 35.15625 6.890625 40.078125 11.328125 
Q 45.015625 15.765625 45.015625 23.390625 
Q 45.015625 31 40.078125 35.4375 
Q 35.15625 39.890625 26.703125 39.890625 
Q 22.75 39.890625 18.8125 39.015625 
Q 14.890625 38.140625 10.796875 36.28125 
z
" id="DejaVuSans-53"/>
      </defs>
      <g transform="translate(130.348217 121.117813)rotate(-90)scale(0.12 -0.12)">
       <use xlink:href="#DejaVuSans-53"/>
      </g>
     </g>
    </g>
    <g id="xtick_6">
     <g id="line2d_7">
      <g>
       <use style="stroke:#000000;stroke-width:0.8;" x="147.05668" xlink:href="#m27ab3c7239" y="106.482813"/>
      </g>
     </g>
     <g id="text_6">
      <!-- 6 -->
      <defs>
       <path d="M 33.015625 40.375 
Q 26.375 40.375 22.484375 35.828125 
Q 18.609375 31.296875 18.609375 23.390625 
Q 18.609375 15.53125 22.484375 10.953125 
Q 26.375 6.390625 33.015625 6.390625 
Q 39.65625 6.390625 43.53125 10.953125 
Q 47.40625 15.53125 47.40625 23.390625 
Q 47.40625 31.296875 43.53125 35.828125 
Q 39.65625 40.375 33.015625 40.375 
z
M 52.59375 71.296875 
L 52.59375 62.3125 
Q 48.875 64.0625 45.09375 64.984375 
Q 41.3125 65.921875 37.59375 65.921875 
Q 27.828125 65.921875 22.671875 59.328125 
Q 17.53125 52.734375 16.796875 39.40625 
Q 19.671875 43.65625 24.015625 45.921875 
Q 28.375 48.1875 33.59375 48.1875 
Q 44.578125 48.1875 50.953125 41.515625 
Q 57.328125 34.859375 57.328125 23.390625 
Q 57.328125 12.15625 50.6875 5.359375 
Q 44.046875 -1.421875 33.015625 -1.421875 
Q 20.359375 -1.421875 13.671875 8.265625 
Q 6.984375 17.96875 6.984375 36.375 
Q 6.984375 53.65625 15.1875 63.9375 
Q 23.390625 74.21875 37.203125 74.21875 
Q 40.921875 74.21875 44.703125 73.484375 
Q 48.484375 72.75 52.59375 71.296875 
z
" id="DejaVuSans-54"/>
      </defs>
      <g transform="translate(150.36793 121.117813)rotate(-90)scale(0.12 -0.12)">
       <use xlink:href="#DejaVuSans-54"/>
      </g>
     </g>
    </g>
    <g id="xtick_7">
     <g id="line2d_8">
      <g>
       <use style="stroke:#000000;stroke-width:0.8;" x="167.076393" xlink:href="#m27ab3c7239" y="106.482813"/>
      </g>
     </g>
     <g id="text_7">
      <!-- 7 -->
      <defs>
       <path d="M 8.203125 72.90625 
L 55.078125 72.90625 
L 55.078125 68.703125 
L 28.609375 0 
L 18.3125 0 
L 43.21875 64.59375 
L 8.203125 64.59375 
z
" id="DejaVuSans-55"/>
      </defs>
      <g transform="translate(170.387643 121.117813)rotate(-90)scale(0.12 -0.12)">
       <use xlink:href="#DejaVuSans-55"/>
      </g>
     </g>
    </g>
    <g id="xtick_8">
     <g id="line2d_9">
      <g>
       <use style="stroke:#000000;stroke-width:0.8;" x="187.096107" xlink:href="#m27ab3c7239" y="106.482813"/>
      </g>
     </g>
     <g id="text_8">
      <!-- 8 -->
      <defs>
       <path d="M 31.78125 34.625 
Q 24.75 34.625 20.71875 30.859375 
Q 16.703125 27.09375 16.703125 20.515625 
Q 16.703125 13.921875 20.71875 10.15625 
Q 24.75 6.390625 31.78125 6.390625 
Q 38.8125 6.390625 42.859375 10.171875 
Q 46.921875 13.96875 46.921875 20.515625 
Q 46.921875 27.09375 42.890625 30.859375 
Q 38.875 34.625 31.78125 34.625 
z
M 21.921875 38.8125 
Q 15.578125 40.375 12.03125 44.71875 
Q 8.5 49.078125 8.5 55.328125 
Q 8.5 64.0625 14.71875 69.140625 
Q 20.953125 74.21875 31.78125 74.21875 
Q 42.671875 74.21875 48.875 69.140625 
Q 55.078125 64.0625 55.078125 55.328125 
Q 55.078125 49.078125 51.53125 44.71875 
Q 48 40.375 41.703125 38.8125 
Q 48.828125 37.15625 52.796875 32.3125 
Q 56.78125 27.484375 56.78125 20.515625 
Q 56.78125 9.90625 50.3125 4.234375 
Q 43.84375 -1.421875 31.78125 -1.421875 
Q 19.734375 -1.421875 13.25 4.234375 
Q 6.78125 9.90625 6.78125 20.515625 
Q 6.78125 27.484375 10.78125 32.3125 
Q 14.796875 37.15625 21.921875 38.8125 
z
M 18.3125 54.390625 
Q 18.3125 48.734375 21.84375 45.5625 
Q 25.390625 42.390625 31.78125 42.390625 
Q 38.140625 42.390625 41.71875 45.5625 
Q 45.3125 48.734375 45.3125 54.390625 
Q 45.3125 60.0625 41.71875 63.234375 
Q 38.140625 66.40625 31.78125 66.40625 
Q 25.390625 66.40625 21.84375 63.234375 
Q 18.3125 60.0625 18.3125 54.390625 
z
" id="DejaVuSans-56"/>
      </defs>
      <g transform="translate(190.407357 121.117813)rotate(-90)scale(0.12 -0.12)">
       <use xlink:href="#DejaVuSans-56"/>
      </g>
     </g>
    </g>
    <g id="xtick_9">
     <g id="line2d_10">
      <g>
       <use style="stroke:#000000;stroke-width:0.8;" x="207.11582" xlink:href="#m27ab3c7239" y="106.482813"/>
      </g>
     </g>
     <g id="text_9">
      <!-- 9 -->
      <defs>
       <path d="M 10.984375 1.515625 
L 10.984375 10.5 
Q 14.703125 8.734375 18.5 7.8125 
Q 22.3125 6.890625 25.984375 6.890625 
Q 35.75 6.890625 40.890625 13.453125 
Q 46.046875 20.015625 46.78125 33.40625 
Q 43.953125 29.203125 39.59375 26.953125 
Q 35.25 24.703125 29.984375 24.703125 
Q 19.046875 24.703125 12.671875 31.3125 
Q 6.296875 37.9375 6.296875 49.421875 
Q 6.296875 60.640625 12.9375 67.421875 
Q 19.578125 74.21875 30.609375 74.21875 
Q 43.265625 74.21875 49.921875 64.515625 
Q 56.59375 54.828125 56.59375 36.375 
Q 56.59375 19.140625 48.40625 8.859375 
Q 40.234375 -1.421875 26.421875 -1.421875 
Q 22.703125 -1.421875 18.890625 -0.6875 
Q 15.09375 0.046875 10.984375 1.515625 
z
M 30.609375 32.421875 
Q 37.25 32.421875 41.125 36.953125 
Q 45.015625 41.5 45.015625 49.421875 
Q 45.015625 57.28125 41.125 61.84375 
Q 37.25 66.40625 30.609375 66.40625 
Q 23.96875 66.40625 20.09375 61.84375 
Q 16.21875 57.28125 16.21875 49.421875 
Q 16.21875 41.5 20.09375 36.953125 
Q 23.96875 32.421875 30.609375 32.421875 
z
" id="DejaVuSans-57"/>
      </defs>
      <g transform="translate(210.42707 121.117813)rotate(-90)scale(0.12 -0.12)">
       <use xlink:href="#DejaVuSans-57"/>
      </g>
     </g>
    </g>
    <g id="xtick_10">
     <g id="line2d_11">
      <g>
       <use style="stroke:#000000;stroke-width:0.8;" x="227.135533" xlink:href="#m27ab3c7239" y="106.482813"/>
      </g>
     </g>
     <g id="text_10">
      <!-- 10 -->
      <defs>
       <path d="M 31.78125 66.40625 
Q 24.171875 66.40625 20.328125 58.90625 
Q 16.5 51.421875 16.5 36.375 
Q 16.5 21.390625 20.328125 13.890625 
Q 24.171875 6.390625 31.78125 6.390625 
Q 39.453125 6.390625 43.28125 13.890625 
Q 47.125 21.390625 47.125 36.375 
Q 47.125 51.421875 43.28125 58.90625 
Q 39.453125 66.40625 31.78125 66.40625 
z
M 31.78125 74.21875 
Q 44.046875 74.21875 50.515625 64.515625 
Q 56.984375 54.828125 56.984375 36.375 
Q 56.984375 17.96875 50.515625 8.265625 
Q 44.046875 -1.421875 31.78125 -1.421875 
Q 19.53125 -1.421875 13.0625 8.265625 
Q 6.59375 17.96875 6.59375 36.375 
Q 6.59375 54.828125 13.0625 64.515625 
Q 19.53125 74.21875 31.78125 74.21875 
z
" id="DejaVuSans-48"/>
      </defs>
      <g transform="translate(230.446783 128.752813)rotate(-90)scale(0.12 -0.12)">
       <use xlink:href="#DejaVuSans-49"/>
       <use x="63.623047" xlink:href="#DejaVuSans-48"/>
      </g>
     </g>
    </g>
    <g id="xtick_11">
     <g id="line2d_12">
      <g>
       <use style="stroke:#000000;stroke-width:0.8;" x="247.155246" xlink:href="#m27ab3c7239" y="106.482813"/>
      </g>
     </g>
     <g id="text_11">
      <!-- 11 -->
      <g transform="translate(250.466496 128.752813)rotate(-90)scale(0.12 -0.12)">
       <use xlink:href="#DejaVuSans-49"/>
       <use x="63.623047" xlink:href="#DejaVuSans-49"/>
      </g>
     </g>
    </g>
    <g id="xtick_12">
     <g id="line2d_13">
      <g>
       <use style="stroke:#000000;stroke-width:0.8;" x="267.17496" xlink:href="#m27ab3c7239" y="106.482813"/>
      </g>
     </g>
     <g id="text_12">
      <!-- 12 -->
      <g transform="translate(270.48621 128.752813)rotate(-90)scale(0.12 -0.12)">
       <use xlink:href="#DejaVuSans-49"/>
       <use x="63.623047" xlink:href="#DejaVuSans-50"/>
      </g>
     </g>
    </g>
    <g id="xtick_13">
     <g id="line2d_14">
      <g>
       <use style="stroke:#000000;stroke-width:0.8;" x="287.194673" xlink:href="#m27ab3c7239" y="106.482813"/>
      </g>
     </g>
     <g id="text_13">
      <!-- 13 -->
      <g transform="translate(290.505923 128.752813)rotate(-90)scale(0.12 -0.12)">
       <use xlink:href="#DejaVuSans-49"/>
       <use x="63.623047" xlink:href="#DejaVuSans-51"/>
      </g>
     </g>
    </g>
    <g id="xtick_14">
     <g id="line2d_15">
      <g>
       <use style="stroke:#000000;stroke-width:0.8;" x="307.214386" xlink:href="#m27ab3c7239" y="106.482813"/>
      </g>
     </g>
     <g id="text_14">
      <!-- 14 -->
      <g transform="translate(310.525636 128.752813)rotate(-90)scale(0.12 -0.12)">
       <use xlink:href="#DejaVuSans-49"/>
       <use x="63.623047" xlink:href="#DejaVuSans-52"/>
      </g>
     </g>
    </g>
   </g>
   <g id="matplotlib.axis_2">
    <g id="ytick_1">
     <g id="line2d_16">
      <defs>
       <path d="M 0 0 
L -3.5 0 
" id="md2ea3b9960" style="stroke:#000000;stroke-width:0.8;"/>
      </defs>
      <g>
       <use style="stroke:#000000;stroke-width:0.8;" x="37.44875" xlink:href="#md2ea3b9960" y="106.482813"/>
      </g>
     </g>
     <g id="text_15">
      <!-- 0 -->
      <g transform="translate(22.81375 111.041875)scale(0.12 -0.12)">
       <use xlink:href="#DejaVuSans-48"/>
      </g>
     </g>
    </g>
    <g id="ytick_2">
     <g id="line2d_17">
      <g>
       <use style="stroke:#000000;stroke-width:0.8;" x="37.44875" xlink:href="#md2ea3b9960" y="65.407813"/>
      </g>
     </g>
     <g id="text_16">
      <!-- 1 -->
      <g transform="translate(22.81375 69.966875)scale(0.12 -0.12)">
       <use xlink:href="#DejaVuSans-49"/>
      </g>
     </g>
    </g>
    <g id="ytick_3">
     <g id="line2d_18">
      <g>
       <use style="stroke:#000000;stroke-width:0.8;" x="37.44875" xlink:href="#md2ea3b9960" y="24.332813"/>
      </g>
     </g>
     <g id="text_17">
      <!-- 2 -->
      <g transform="translate(22.81375 28.891875)scale(0.12 -0.12)">
       <use xlink:href="#DejaVuSans-50"/>
      </g>
     </g>
    </g>
    <g id="text_18">
     <!-- bits -->
     <defs>
      <path d="M 48.6875 27.296875 
Q 48.6875 37.203125 44.609375 42.84375 
Q 40.53125 48.484375 33.40625 48.484375 
Q 26.265625 48.484375 22.1875 42.84375 
Q 18.109375 37.203125 18.109375 27.296875 
Q 18.109375 17.390625 22.1875 11.75 
Q 26.265625 6.109375 33.40625 6.109375 
Q 40.53125 6.109375 44.609375 11.75 
Q 48.6875 17.390625 48.6875 27.296875 
z
M 18.109375 46.390625 
Q 20.953125 51.265625 25.265625 53.625 
Q 29.59375 56 35.59375 56 
Q 45.5625 56 51.78125 48.09375 
Q 58.015625 40.1875 58.015625 27.296875 
Q 58.015625 14.40625 51.78125 6.484375 
Q 45.5625 -1.421875 35.59375 -1.421875 
Q 29.59375 -1.421875 25.265625 0.953125 
Q 20.953125 3.328125 18.109375 8.203125 
L 18.109375 0 
L 9.078125 0 
L 9.078125 75.984375 
L 18.109375 75.984375 
z
" id="DejaVuSans-98"/>
      <path d="M 9.421875 54.6875 
L 18.40625 54.6875 
L 18.40625 0 
L 9.421875 0 
z
M 9.421875 75.984375 
L 18.40625 75.984375 
L 18.40625 64.59375 
L 9.421875 64.59375 
z
" id="DejaVuSans-105"/>
      <path d="M 18.3125 70.21875 
L 18.3125 54.6875 
L 36.8125 54.6875 
L 36.8125 47.703125 
L 18.3125 47.703125 
L 18.3125 18.015625 
Q 18.3125 11.328125 20.140625 9.421875 
Q 21.96875 7.515625 27.59375 7.515625 
L 36.8125 7.515625 
L 36.8125 0 
L 27.59375 0 
Q 17.1875 0 13.234375 3.875 
Q 9.28125 7.765625 9.28125 18.015625 
L 9.28125 47.703125 
L 2.6875 47.703125 
L 2.6875 54.6875 
L 9.28125 54.6875 
L 9.28125 70.21875 
z
" id="DejaVuSans-116"/>
      <path d="M 44.28125 53.078125 
L 44.28125 44.578125 
Q 40.484375 46.53125 36.375 47.5 
Q 32.28125 48.484375 27.875 48.484375 
Q 21.1875 48.484375 17.84375 46.4375 
Q 14.5 44.390625 14.5 40.28125 
Q 14.5 37.15625 16.890625 35.375 
Q 19.28125 33.59375 26.515625 31.984375 
L 29.59375 31.296875 
Q 39.15625 29.25 43.1875 25.515625 
Q 47.21875 21.78125 47.21875 15.09375 
Q 47.21875 7.46875 41.1875 3.015625 
Q 35.15625 -1.421875 24.609375 -1.421875 
Q 20.21875 -1.421875 15.453125 -0.5625 
Q 10.6875 0.296875 5.421875 2 
L 5.421875 11.28125 
Q 10.40625 8.6875 15.234375 7.390625 
Q 20.0625 6.109375 24.8125 6.109375 
Q 31.15625 6.109375 34.5625 8.28125 
Q 37.984375 10.453125 37.984375 14.40625 
Q 37.984375 18.0625 35.515625 20.015625 
Q 33.0625 21.96875 24.703125 23.78125 
L 21.578125 24.515625 
Q 13.234375 26.265625 9.515625 29.90625 
Q 5.8125 33.546875 5.8125 39.890625 
Q 5.8125 47.609375 11.28125 51.796875 
Q 16.75 56 26.8125 56 
Q 31.78125 56 36.171875 55.265625 
Q 40.578125 54.546875 44.28125 53.078125 
z
" id="DejaVuSans-115"/>
     </defs>
     <g transform="translate(16.318125 76.361563)rotate(-90)scale(0.12 -0.12)">
      <use xlink:href="#DejaVuSans-98"/>
      <use x="63.476562" xlink:href="#DejaVuSans-105"/>
      <use x="91.259766" xlink:href="#DejaVuSans-116"/>
      <use x="130.46875" xlink:href="#DejaVuSans-115"/>
     </g>
    </g>
   </g>
   <g id="patch_57">
    <path d="M 37.44875 106.482813 
L 37.44875 24.332813 
" style="fill:none;stroke:#000000;stroke-linecap:square;stroke-linejoin:miter;stroke-width:0.8;"/>
   </g>
   <g id="patch_58">
    <path d="M 316.72375 106.482813 
L 316.72375 24.332813 
" style="fill:none;stroke:#000000;stroke-linecap:square;stroke-linejoin:miter;stroke-width:0.8;"/>
   </g>
   <g id="patch_59">
    <path d="M 37.44875 106.482813 
L 316.72375 106.482813 
" style="fill:none;stroke:#000000;stroke-linecap:square;stroke-linejoin:miter;stroke-width:0.8;"/>
   </g>
   <g id="patch_60">
    <path d="M 37.44875 24.332813 
L 316.72375 24.332813 
" style="fill:none;stroke:#000000;stroke-linecap:square;stroke-linejoin:miter;stroke-width:0.8;"/>
   </g>
   <g id="text_19">
    <!-- MEF2D_MOUSE.H11MO.0.A -->
    <defs>
     <path d="M 9.8125 72.90625 
L 24.515625 72.90625 
L 43.109375 23.296875 
L 61.8125 72.90625 
L 76.515625 72.90625 
L 76.515625 0 
L 66.890625 0 
L 66.890625 64.015625 
L 48.09375 14.015625 
L 38.1875 14.015625 
L 19.390625 64.015625 
L 19.390625 0 
L 9.8125 0 
z
" id="DejaVuSans-77"/>
     <path d="M 9.8125 72.90625 
L 55.90625 72.90625 
L 55.90625 64.59375 
L 19.671875 64.59375 
L 19.671875 43.015625 
L 54.390625 43.015625 
L 54.390625 34.71875 
L 19.671875 34.71875 
L 19.671875 8.296875 
L 56.78125 8.296875 
L 56.78125 0 
L 9.8125 0 
z
" id="DejaVuSans-69"/>
     <path d="M 9.8125 72.90625 
L 51.703125 72.90625 
L 51.703125 64.59375 
L 19.671875 64.59375 
L 19.671875 43.109375 
L 48.578125 43.109375 
L 48.578125 34.8125 
L 19.671875 34.8125 
L 19.671875 0 
L 9.8125 0 
z
" id="DejaVuSans-70"/>
     <path d="M 19.671875 64.796875 
L 19.671875 8.109375 
L 31.59375 8.109375 
Q 46.6875 8.109375 53.6875 14.9375 
Q 60.6875 21.78125 60.6875 36.53125 
Q 60.6875 51.171875 53.6875 57.984375 
Q 46.6875 64.796875 31.59375 64.796875 
z
M 9.8125 72.90625 
L 30.078125 72.90625 
Q 51.265625 72.90625 61.171875 64.09375 
Q 71.09375 55.28125 71.09375 36.53125 
Q 71.09375 17.671875 61.125 8.828125 
Q 51.171875 0 30.078125 0 
L 9.8125 0 
z
" id="DejaVuSans-68"/>
     <path d="M 50.984375 -16.609375 
L 50.984375 -23.578125 
L -0.984375 -23.578125 
L -0.984375 -16.609375 
z
" id="DejaVuSans-95"/>
     <path d="M 39.40625 66.21875 
Q 28.65625 66.21875 22.328125 58.203125 
Q 16.015625 50.203125 16.015625 36.375 
Q 16.015625 22.609375 22.328125 14.59375 
Q 28.65625 6.59375 39.40625 6.59375 
Q 50.140625 6.59375 56.421875 14.59375 
Q 62.703125 22.609375 62.703125 36.375 
Q 62.703125 50.203125 56.421875 58.203125 
Q 50.140625 66.21875 39.40625 66.21875 
z
M 39.40625 74.21875 
Q 54.734375 74.21875 63.90625 63.9375 
Q 73.09375 53.65625 73.09375 36.375 
Q 73.09375 19.140625 63.90625 8.859375 
Q 54.734375 -1.421875 39.40625 -1.421875 
Q 24.03125 -1.421875 14.8125 8.828125 
Q 5.609375 19.09375 5.609375 36.375 
Q 5.609375 53.65625 14.8125 63.9375 
Q 24.03125 74.21875 39.40625 74.21875 
z
" id="DejaVuSans-79"/>
     <path d="M 8.6875 72.90625 
L 18.609375 72.90625 
L 18.609375 28.609375 
Q 18.609375 16.890625 22.84375 11.734375 
Q 27.09375 6.59375 36.625 6.59375 
Q 46.09375 6.59375 50.34375 11.734375 
Q 54.59375 16.890625 54.59375 28.609375 
L 54.59375 72.90625 
L 64.5 72.90625 
L 64.5 27.390625 
Q 64.5 13.140625 57.4375 5.859375 
Q 50.390625 -1.421875 36.625 -1.421875 
Q 22.796875 -1.421875 15.734375 5.859375 
Q 8.6875 13.140625 8.6875 27.390625 
z
" id="DejaVuSans-85"/>
     <path d="M 53.515625 70.515625 
L 53.515625 60.890625 
Q 47.90625 63.578125 42.921875 64.890625 
Q 37.9375 66.21875 33.296875 66.21875 
Q 25.25 66.21875 20.875 63.09375 
Q 16.5 59.96875 16.5 54.203125 
Q 16.5 49.359375 19.40625 46.890625 
Q 22.3125 44.4375 30.421875 42.921875 
L 36.375 41.703125 
Q 47.40625 39.59375 52.65625 34.296875 
Q 57.90625 29 57.90625 20.125 
Q 57.90625 9.515625 50.796875 4.046875 
Q 43.703125 -1.421875 29.984375 -1.421875 
Q 24.8125 -1.421875 18.96875 -0.25 
Q 13.140625 0.921875 6.890625 3.21875 
L 6.890625 13.375 
Q 12.890625 10.015625 18.65625 8.296875 
Q 24.421875 6.59375 29.984375 6.59375 
Q 38.421875 6.59375 43.015625 9.90625 
Q 47.609375 13.234375 47.609375 19.390625 
Q 47.609375 24.75 44.3125 27.78125 
Q 41.015625 30.8125 33.5 32.328125 
L 27.484375 33.5 
Q 16.453125 35.6875 11.515625 40.375 
Q 6.59375 45.0625 6.59375 53.421875 
Q 6.59375 63.09375 13.40625 68.65625 
Q 20.21875 74.21875 32.171875 74.21875 
Q 37.3125 74.21875 42.625 73.28125 
Q 47.953125 72.359375 53.515625 70.515625 
z
" id="DejaVuSans-83"/>
     <path d="M 10.6875 12.40625 
L 21 12.40625 
L 21 0 
L 10.6875 0 
z
" id="DejaVuSans-46"/>
     <path d="M 9.8125 72.90625 
L 19.671875 72.90625 
L 19.671875 43.015625 
L 55.515625 43.015625 
L 55.515625 72.90625 
L 65.375 72.90625 
L 65.375 0 
L 55.515625 0 
L 55.515625 34.71875 
L 19.671875 34.71875 
L 19.671875 0 
L 9.8125 0 
z
" id="DejaVuSans-72"/>
     <path d="M 34.1875 63.1875 
L 20.796875 26.90625 
L 47.609375 26.90625 
z
M 28.609375 72.90625 
L 39.796875 72.90625 
L 67.578125 0 
L 57.328125 0 
L 50.6875 18.703125 
L 17.828125 18.703125 
L 11.1875 0 
L 0.78125 0 
z
" id="DejaVuSans-65"/>
    </defs>
    <g transform="translate(75.293672 18.332813)scale(0.15 -0.15)">
     <use xlink:href="#DejaVuSans-77"/>
     <use x="86.279297" xlink:href="#DejaVuSans-69"/>
     <use x="149.462891" xlink:href="#DejaVuSans-70"/>
     <use x="206.982422" xlink:href="#DejaVuSans-50"/>
     <use x="270.605469" xlink:href="#DejaVuSans-68"/>
     <use x="347.607422" xlink:href="#DejaVuSans-95"/>
     <use x="397.607422" xlink:href="#DejaVuSans-77"/>
     <use x="483.886719" xlink:href="#DejaVuSans-79"/>
     <use x="562.597656" xlink:href="#DejaVuSans-85"/>
     <use x="635.791016" xlink:href="#DejaVuSans-83"/>
     <use x="699.267578" xlink:href="#DejaVuSans-69"/>
     <use x="762.451172" xlink:href="#DejaVuSans-46"/>
     <use x="794.238281" xlink:href="#DejaVuSans-72"/>
     <use x="869.433594" xlink:href="#DejaVuSans-49"/>
     <use x="933.056641" xlink:href="#DejaVuSans-49"/>
     <use x="996.679688" xlink:href="#DejaVuSans-77"/>
     <use x="1082.958984" xlink:href="#DejaVuSans-79"/>
     <use x="1161.607422" xlink:href="#DejaVuSans-46"/>
     <use x="1193.394531" xlink:href="#DejaVuSans-48"/>
     <use x="1257.017578" xlink:href="#DejaVuSans-46"/>
     <use x="1288.804688" xlink:href="#DejaVuSans-65"/>
    </g>
   </g>
  </g>
 </g>
 <defs>
  <clipPath id="p7afd6df247">
   <rect height="82.15" width="279.275" x="37.44875" y="24.332813"/>
  </clipPath>
 </defs>
</svg>
