<?xml version="1.0" encoding="utf-8" standalone="no"?>
<!DOCTYPE svg PUBLIC "-//W3C//DTD SVG 1.1//EN"
  "http://www.w3.org/Graphics/SVG/1.1/DTD/svg11.dtd">
<!-- Created with matplotlib (https://matplotlib.org/) -->
<svg height="136.077812pt" version="1.1" viewBox="0 0 231.42375 136.077812" width="231.42375pt" xmlns="http://www.w3.org/2000/svg" xmlns:xlink="http://www.w3.org/1999/xlink">
 <defs>
  <style type="text/css">
*{stroke-linecap:butt;stroke-linejoin:round;}
  </style>
 </defs>
 <g id="figure_1">
  <g id="patch_1">
   <path d="M 0 136.077812 
L 231.42375 136.077812 
L 231.42375 0 
L 0 0 
z
" style="fill:#ffffff;"/>
  </g>
  <g id="axes_1">
   <g id="patch_2">
    <path d="M 37.44875 106.607812 
L 220.72375 106.607812 
L 220.72375 24.332812 
L 37.44875 24.332812 
z
" style="fill:#ffffff;"/>
   </g>
   <g id="line2d_1">
    <path clip-path="url(#pf3050ba79a)" d="M 37.44875 106.607812 
L 220.72375 106.607812 
" style="fill:none;stroke:#000000;stroke-linecap:square;stroke-width:0.5;"/>
   </g>
   <g id="patch_3">
    <path clip-path="url(#pf3050ba79a)" d="M 37.44875 105.861153 
L 54.947368 105.861153 
L 54.947368 106.006772 
L 48.651935 106.006772 
L 48.651935 106.607812 
L 43.756391 106.607812 
L 43.756391 106.006772 
L 37.44875 106.006772 
z
" style="fill:#ff0000;"/>
   </g>
   <g id="patch_4">
    <path clip-path="url(#pf3050ba79a)" d="M 54.947368 105.804085 
Q 53.483639 105.832372 51.900871 105.84668 
Q 50.318104 105.861153 48.594254 105.861153 
Q 43.453567 105.861153 40.451158 105.753925 
Q 37.44875 105.646697 37.44875 105.463324 
Q 37.44875 105.279293 40.451158 105.172229 
Q 43.453567 105.065001 48.594254 105.065001 
Q 50.318104 105.065001 51.900871 105.079474 
Q 53.483639 105.093782 54.947368 105.122069 
L 54.947368 105.280773 
Q 53.470412 105.243276 52.037545 105.225843 
Q 50.604678 105.20841 49.02191 105.20841 
Q 46.182628 105.20841 44.555773 105.276332 
Q 42.933326 105.34409 42.933326 105.463324 
Q 42.933326 105.582064 44.555773 105.649986 
Q 46.182628 105.717744 49.02191 105.717744 
Q 50.604678 105.717744 52.037545 105.700311 
Q 53.470412 105.682714 54.947368 105.645217 
z
" style="fill:#0000ff;"/>
   </g>
   <g id="patch_5">
    <path clip-path="url(#pf3050ba79a)" d="M 49.570058 104.761213 
L 42.840371 104.761213 
L 41.777789 105.065001 
L 37.44875 105.065001 
L 43.631046 103.397385 
L 48.765072 103.397385 
L 54.947368 105.065001 
L 50.621907 105.065001 
z
M 43.913686 104.451707 
L 48.48601 104.451707 
L 46.203426 103.788378 
z
" style="fill:#008000;"/>
   </g>
   <g id="patch_6">
    <path clip-path="url(#pf3050ba79a)" d="M 54.947368 103.218079 
Q 53.182604 103.307732 51.284502 103.352763 
Q 49.3864 103.397385 47.362803 103.397385 
Q 42.790103 103.397385 40.119427 103.130473 
Q 37.44875 102.863562 37.44875 102.407111 
Q 37.44875 101.945338 40.166487 101.680473 
Q 42.888146 101.415609 47.621636 101.415609 
Q 49.445225 101.415609 51.115869 101.451634 
Q 52.790434 101.487249 54.272836 101.557661 
L 54.272836 101.952707 
Q 52.743374 101.862235 51.229598 101.817613 
Q 49.715822 101.772582 48.194204 101.772582 
Q 45.378424 101.772582 43.852883 101.93715 
Q 42.327343 102.101309 42.327343 102.407111 
Q 42.327343 102.710047 43.79798 102.875434 
Q 45.268617 103.040411 47.974588 103.040411 
Q 48.711868 103.040411 49.343261 103.030996 
Q 49.974655 103.021171 50.476632 103.000702 
L 50.476632 102.62981 
L 47.594184 102.62981 
L 47.594184 102.299446 
L 54.947368 102.299446 
z
" style="fill:#ffa600;"/>
   </g>
   <g id="patch_7">
    <path clip-path="url(#pf3050ba79a)" d="M 67.989656 106.484011 
L 61.259969 106.484011 
L 60.197387 106.607812 
L 55.868348 106.607812 
L 62.050644 105.928213 
L 67.18467 105.928213 
L 73.366966 106.607812 
L 69.041505 106.607812 
z
M 62.333284 106.357878 
L 66.905608 106.357878 
L 64.623024 106.087553 
z
" style="fill:#008000;"/>
   </g>
   <g id="patch_8">
    <path clip-path="url(#pf3050ba79a)" d="M 73.366966 105.852214 
Q 71.602202 105.890213 69.7041 105.9093 
Q 67.805998 105.928213 65.782401 105.928213 
Q 61.209701 105.928213 58.539025 105.815082 
Q 55.868348 105.701951 55.868348 105.508483 
Q 55.868348 105.312759 58.586085 105.200496 
Q 61.307744 105.088232 66.041234 105.088232 
Q 67.864823 105.088232 69.535467 105.103502 
Q 71.210032 105.118597 72.692434 105.148442 
L 72.692434 105.315883 
Q 71.162972 105.277536 69.649196 105.258623 
Q 68.13542 105.239536 66.613802 105.239536 
Q 63.798022 105.239536 62.272481 105.309289 
Q 60.746941 105.378868 60.746941 105.508483 
Q 60.746941 105.636883 62.217578 105.706983 
Q 63.688215 105.776909 66.394186 105.776909 
Q 67.131466 105.776909 67.762859 105.772918 
Q 68.394253 105.768753 68.89623 105.760078 
L 68.89623 105.602874 
L 66.013782 105.602874 
L 66.013782 105.462849 
L 73.366966 105.462849 
z
" style="fill:#ffa600;"/>
   </g>
   <g id="patch_9">
    <path clip-path="url(#pf3050ba79a)" d="M 55.868348 103.698961 
L 73.366966 103.698961 
L 73.366966 103.969908 
L 67.071533 103.969908 
L 67.071533 105.088232 
L 62.175989 105.088232 
L 62.175989 103.969908 
L 55.868348 103.969908 
z
" style="fill:#ff0000;"/>
   </g>
   <g id="patch_10">
    <path clip-path="url(#pf3050ba79a)" d="M 73.366966 103.560868 
Q 71.903237 103.629318 70.320469 103.663941 
Q 68.737702 103.698961 67.013852 103.698961 
Q 61.873165 103.698961 58.870756 103.439489 
Q 55.868348 103.180017 55.868348 102.736288 
Q 55.868348 102.290967 58.870756 102.031893 
Q 61.873165 101.77242 67.013852 101.77242 
Q 68.737702 101.77242 70.320469 101.807441 
Q 71.903237 101.842064 73.366966 101.910514 
L 73.366966 102.294548 
Q 71.89001 102.203813 70.457143 102.161629 
Q 69.024276 102.119444 67.441508 102.119444 
Q 64.602226 102.119444 62.975371 102.283803 
Q 61.352924 102.447764 61.352924 102.736288 
Q 61.352924 103.023617 62.975371 103.187976 
Q 64.602226 103.351937 67.441508 103.351937 
Q 69.024276 103.351937 70.457143 103.309753 
Q 71.89001 103.267171 73.366966 103.176435 
z
" style="fill:#0000ff;"/>
   </g>
   <g id="patch_11">
    <path clip-path="url(#pf3050ba79a)" d="M 91.786564 106.586328 
Q 90.0218 106.59707 88.123698 106.602466 
Q 86.225596 106.607812 84.201999 106.607812 
Q 79.629299 106.607812 76.958623 106.575831 
Q 74.287946 106.543849 74.287946 106.489156 
Q 74.287946 106.433825 77.005683 106.402089 
Q 79.727342 106.370352 84.460832 106.370352 
Q 86.284421 106.370352 87.955065 106.374669 
Q 89.62963 106.378936 91.112032 106.387373 
L 91.112032 106.434708 
Q 89.58257 106.423868 88.068794 106.418521 
Q 86.555018 106.413125 85.033399 106.413125 
Q 82.21762 106.413125 80.692079 106.432844 
Q 79.166539 106.452514 79.166539 106.489156 
Q 79.166539 106.525454 80.637176 106.545271 
Q 82.107813 106.565039 84.813784 106.565039 
Q 85.551064 106.565039 86.182457 106.563911 
Q 86.813851 106.562734 87.315828 106.560281 
L 87.315828 106.51584 
L 84.43338 106.51584 
L 84.43338 106.476255 
L 91.786564 106.476255 
z
" style="fill:#ffa600;"/>
   </g>
   <g id="patch_12">
    <path clip-path="url(#pf3050ba79a)" d="M 86.409254 106.00005 
L 79.679567 106.00005 
L 78.616985 106.370352 
L 74.287946 106.370352 
L 80.470242 104.337611 
L 85.604268 104.337611 
L 91.786564 106.370352 
L 87.461103 106.370352 
z
M 80.752882 105.622777 
L 85.325206 105.622777 
L 83.042622 104.814212 
z
" style="fill:#008000;"/>
   </g>
   <g id="patch_13">
    <path clip-path="url(#pf3050ba79a)" d="M 74.287946 93.594455 
L 91.786564 93.594455 
L 91.786564 95.68967 
L 85.491131 95.68967 
L 85.491131 104.337611 
L 80.595587 104.337611 
L 80.595587 95.68967 
L 74.287946 95.68967 
z
" style="fill:#ff0000;"/>
   </g>
   <g id="patch_14">
    <path clip-path="url(#pf3050ba79a)" d="M 91.786564 92.722261 
Q 90.322835 93.154588 88.740067 93.373265 
Q 87.1573 93.594455 85.43345 93.594455 
Q 80.292763 93.594455 77.290354 91.955635 
Q 74.287946 90.316814 74.287946 87.514229 
Q 74.287946 84.70159 77.290354 83.065283 
Q 80.292763 81.426462 85.43345 81.426462 
Q 87.1573 81.426462 88.740067 81.647653 
Q 90.322835 81.86633 91.786564 82.298657 
L 91.786564 84.724212 
Q 90.309608 84.151127 88.876741 83.884693 
Q 87.443874 83.618259 85.861106 83.618259 
Q 83.021824 83.618259 81.394968 84.656347 
Q 79.772522 85.691921 79.772522 87.514229 
Q 79.772522 89.328997 81.394968 90.367084 
Q 83.021824 91.402658 85.861106 91.402658 
Q 87.443874 91.402658 88.876741 91.136224 
Q 90.309608 90.867277 91.786564 90.294192 
z
" style="fill:#0000ff;"/>
   </g>
   <g id="patch_15">
    <path clip-path="url(#pf3050ba79a)" d="M 110.206162 106.599643 
Q 108.441398 106.603728 106.543296 106.605779 
Q 104.645194 106.607812 102.621597 106.607812 
Q 98.048897 106.607812 95.378221 106.595652 
Q 92.707544 106.583491 92.707544 106.562694 
Q 92.707544 106.541655 95.425281 106.529588 
Q 98.14694 106.51752 102.88043 106.51752 
Q 104.704019 106.51752 106.374663 106.519162 
Q 108.049228 106.520784 109.53163 106.523992 
L 109.53163 106.541991 
Q 108.002168 106.537869 106.488392 106.535836 
Q 104.974616 106.533785 103.452997 106.533785 
Q 100.637218 106.533785 99.111677 106.541282 
Q 97.586137 106.548762 97.586137 106.562694 
Q 97.586137 106.576497 99.056774 106.584032 
Q 100.527411 106.591548 103.233382 106.591548 
Q 103.970662 106.591548 104.602055 106.591119 
Q 105.233449 106.590672 105.735426 106.589739 
L 105.735426 106.572841 
L 102.852978 106.572841 
L 102.852978 106.557789 
L 110.206162 106.557789 
z
" style="fill:#ffa600;"/>
   </g>
   <g id="patch_16">
    <path clip-path="url(#pf3050ba79a)" d="M 110.206162 106.480858 
Q 108.742433 106.499031 107.159665 106.508223 
Q 105.576898 106.51752 103.853048 106.51752 
Q 98.712361 106.51752 95.709952 106.448633 
Q 92.707544 106.379745 92.707544 106.261938 
Q 92.707544 106.143709 95.709952 106.074926 
Q 98.712361 106.006039 103.853048 106.006039 
Q 105.576898 106.006039 107.159665 106.015336 
Q 108.742433 106.024528 110.206162 106.042701 
L 110.206162 106.14466 
Q 108.729206 106.12057 107.296339 106.10937 
Q 105.863472 106.098171 104.280704 106.098171 
Q 101.441422 106.098171 99.814566 106.141807 
Q 98.19212 106.185337 98.19212 106.261938 
Q 98.19212 106.338222 99.814566 106.381858 
Q 101.441422 106.425388 104.280704 106.425388 
Q 105.863472 106.425388 107.296339 106.414189 
Q 108.729206 106.402883 110.206162 106.378794 
z
" style="fill:#0000ff;"/>
   </g>
   <g id="patch_17">
    <path clip-path="url(#pf3050ba79a)" d="M 92.707544 104.802565 
L 110.206162 104.802565 
L 110.206162 105.037276 
L 103.910729 105.037276 
L 103.910729 106.006039 
L 99.015185 106.006039 
L 99.015185 105.037276 
L 92.707544 105.037276 
z
" style="fill:#ff0000;"/>
   </g>
   <g id="patch_18">
    <path clip-path="url(#pf3050ba79a)" d="M 104.828852 91.582485 
L 98.099165 91.582485 
L 97.036583 104.802565 
L 92.707544 104.802565 
L 98.88984 32.232102 
L 104.023866 32.232102 
L 110.206162 104.802565 
L 105.880701 104.802565 
z
M 99.17248 78.113557 
L 103.744804 78.113557 
L 101.46222 49.247123 
z
" style="fill:#008000;"/>
   </g>
   <g id="patch_19">
    <path clip-path="url(#pf3050ba79a)" d="M 128.62576 106.576125 
Q 126.860996 106.591969 124.962894 106.599927 
Q 123.064792 106.607812 121.041195 106.607812 
Q 116.468495 106.607812 113.797819 106.560643 
Q 111.127142 106.513474 111.127142 106.432809 
Q 111.127142 106.351203 113.844879 106.304395 
Q 116.566538 106.257588 121.300028 106.257588 
Q 123.123617 106.257588 124.794261 106.263954 
Q 126.468826 106.270248 127.951228 106.282692 
L 127.951228 106.352505 
Q 126.421766 106.336517 124.90799 106.328631 
Q 123.394214 106.320673 121.872595 106.320673 
Q 119.056816 106.320673 117.531275 106.349756 
Q 116.005735 106.378766 116.005735 106.432809 
Q 116.005735 106.486344 117.476372 106.515572 
Q 118.947008 106.544727 121.65298 106.544727 
Q 122.39026 106.544727 123.021653 106.543063 
Q 123.653047 106.541327 124.155024 106.53771 
L 124.155024 106.472165 
L 121.272576 106.472165 
L 121.272576 106.413782 
L 128.62576 106.413782 
z
" style="fill:#ffa600;"/>
   </g>
   <g id="patch_20">
    <path clip-path="url(#pf3050ba79a)" d="M 111.127142 105.557138 
L 128.62576 105.557138 
L 128.62576 105.693745 
L 122.330327 105.693745 
L 122.330327 106.257588 
L 117.434783 106.257588 
L 117.434783 105.693745 
L 111.127142 105.693745 
z
" style="fill:#ff0000;"/>
   </g>
   <g id="patch_21">
    <path clip-path="url(#pf3050ba79a)" d="M 128.62576 105.47764 
Q 127.162031 105.517045 125.579263 105.536977 
Q 123.996496 105.557138 122.272646 105.557138 
Q 117.131959 105.557138 114.12955 105.407763 
Q 111.127142 105.258389 111.127142 105.002941 
Q 111.127142 104.746576 114.12955 104.59743 
Q 117.131959 104.448056 122.272646 104.448056 
Q 123.996496 104.448056 125.579263 104.468217 
Q 127.162031 104.488149 128.62576 104.527554 
L 128.62576 104.748638 
Q 127.148804 104.696402 125.715937 104.672118 
Q 124.283069 104.647833 122.700302 104.647833 
Q 119.86102 104.647833 118.234164 104.742452 
Q 116.611718 104.836842 116.611718 105.002941 
Q 116.611718 105.168352 118.234164 105.262971 
Q 119.86102 105.357361 122.700302 105.357361 
Q 124.283069 105.357361 125.715937 105.333076 
Q 127.148804 105.308562 128.62576 105.256327 
z
" style="fill:#0000ff;"/>
   </g>
   <g id="patch_22">
    <path clip-path="url(#pf3050ba79a)" d="M 123.24845 91.624161 
L 116.518763 91.624161 
L 115.456181 104.448056 
L 111.127142 104.448056 
L 117.309438 34.052417 
L 122.443464 34.052417 
L 128.62576 104.448056 
L 124.300299 104.448056 
z
M 117.592078 78.558876 
L 122.164402 78.558876 
L 119.881818 50.557524 
z
" style="fill:#008000;"/>
   </g>
   <g id="patch_23">
    <path clip-path="url(#pf3050ba79a)" d="M 141.668048 105.982424 
L 134.938361 105.982424 
L 133.875779 106.607812 
L 129.54674 106.607812 
L 135.729036 103.174798 
L 140.863062 103.174798 
L 147.045358 106.607812 
L 142.719897 106.607812 
z
M 136.011676 105.345263 
L 140.584 105.345263 
L 138.301416 103.979709 
z
" style="fill:#008000;"/>
   </g>
   <g id="patch_24">
    <path clip-path="url(#pf3050ba79a)" d="M 129.54674 35.854634 
L 147.045358 35.854634 
L 147.045358 48.983941 
L 140.749925 48.983941 
L 140.749925 103.174798 
L 135.854381 103.174798 
L 135.854381 48.983941 
L 129.54674 48.983941 
z
" style="fill:#ff0000;"/>
   </g>
   <g id="patch_25">
    <path clip-path="url(#pf3050ba79a)" d="M 165.464956 106.502244 
Q 163.700192 106.555028 161.80209 106.581541 
Q 159.903988 106.607812 157.880391 106.607812 
Q 153.307691 106.607812 150.637015 106.450664 
Q 147.966338 106.293516 147.966338 106.024774 
Q 147.966338 105.752898 150.684075 105.596955 
Q 153.405734 105.441012 158.139223 105.441012 
Q 159.962813 105.441012 161.633457 105.462222 
Q 163.308022 105.483191 164.790424 105.524647 
L 164.790424 105.757236 
Q 163.260962 105.70397 161.747186 105.677698 
Q 160.23341 105.651185 158.711791 105.651185 
Q 155.896012 105.651185 154.370471 105.748077 
Q 152.844931 105.844728 152.844931 106.024774 
Q 152.844931 106.203132 154.315568 106.300506 
Q 155.786204 106.397639 158.492176 106.397639 
Q 159.229456 106.397639 159.860849 106.392095 
Q 160.492243 106.386311 160.99422 106.37426 
L 160.99422 106.155891 
L 158.111772 106.155891 
L 158.111772 105.961384 
L 165.464956 105.961384 
z
" style="fill:#ffa600;"/>
   </g>
   <g id="patch_26">
    <path clip-path="url(#pf3050ba79a)" d="M 160.087646 105.13302 
L 153.357959 105.13302 
L 152.295377 105.441012 
L 147.966338 105.441012 
L 154.148634 103.750316 
L 159.28266 103.750316 
L 165.464956 105.441012 
L 161.139495 105.441012 
z
M 154.431274 104.81923 
L 159.003598 104.81923 
L 156.721014 104.14672 
z
" style="fill:#008000;"/>
   </g>
   <g id="patch_27">
    <path clip-path="url(#pf3050ba79a)" d="M 165.464956 103.629128 
Q 164.001227 103.689198 162.418459 103.719582 
Q 160.835692 103.750316 159.111842 103.750316 
Q 153.971155 103.750316 150.968746 103.522608 
Q 147.966338 103.2949 147.966338 102.905492 
Q 147.966338 102.514687 150.968746 102.287328 
Q 153.971155 102.05962 159.111842 102.05962 
Q 160.835692 102.05962 162.418459 102.090354 
Q 164.001227 102.120738 165.464956 102.180808 
L 165.464956 102.51783 
Q 163.988 102.438202 162.555133 102.401182 
Q 161.122265 102.364162 159.539498 102.364162 
Q 156.700216 102.364162 155.07336 102.5084 
Q 153.450914 102.652289 153.450914 102.905492 
Q 153.450914 103.157647 155.07336 103.301885 
Q 156.700216 103.445774 159.539498 103.445774 
Q 161.122265 103.445774 162.555133 103.408754 
Q 163.988 103.371385 165.464956 103.291757 
z
" style="fill:#0000ff;"/>
   </g>
   <g id="patch_28">
    <path clip-path="url(#pf3050ba79a)" d="M 147.966338 44.623132 
L 165.464956 44.623132 
L 165.464956 55.824848 
L 159.169523 55.824848 
L 159.169523 102.05962 
L 154.273979 102.05962 
L 154.273979 55.824848 
L 147.966338 55.824848 
z
" style="fill:#ff0000;"/>
   </g>
   <g id="patch_29">
    <path clip-path="url(#pf3050ba79a)" d="M 183.884554 106.559753 
Q 182.11979 106.583783 180.221688 106.595853 
Q 178.323586 106.607812 176.299989 106.607812 
Q 171.727289 106.607812 169.056613 106.536273 
Q 166.385936 106.464733 166.385936 106.342391 
Q 166.385936 106.218622 169.103673 106.147631 
Q 171.825332 106.076639 176.558821 106.076639 
Q 178.382411 106.076639 180.053055 106.086295 
Q 181.72762 106.095841 183.210022 106.114714 
L 183.210022 106.220597 
Q 181.68056 106.196348 180.166784 106.184388 
Q 178.653008 106.172319 177.131389 106.172319 
Q 174.31561 106.172319 172.790069 106.216428 
Q 171.264529 106.260427 171.264529 106.342391 
Q 171.264529 106.423586 172.735166 106.467915 
Q 174.205802 106.512133 176.911774 106.512133 
Q 177.649054 106.512133 178.280447 106.50961 
Q 178.91184 106.506976 179.413818 106.50149 
L 179.413818 106.40208 
L 176.53137 106.40208 
L 176.53137 106.313533 
L 183.884554 106.313533 
z
" style="fill:#ffa600;"/>
   </g>
   <g id="patch_30">
    <path clip-path="url(#pf3050ba79a)" d="M 166.385936 102.730432 
L 183.884554 102.730432 
L 183.884554 103.383036 
L 177.589121 103.383036 
L 177.589121 106.076639 
L 172.693577 106.076639 
L 172.693577 103.383036 
L 166.385936 103.383036 
z
" style="fill:#ff0000;"/>
   </g>
   <g id="patch_31">
    <path clip-path="url(#pf3050ba79a)" d="M 178.507244 91.061374 
L 171.777557 91.061374 
L 170.714975 102.730432 
L 166.385936 102.730432 
L 172.568232 38.674171 
L 177.702258 38.674171 
L 183.884554 102.730432 
L 179.559093 102.730432 
z
M 172.850872 79.172664 
L 177.423196 79.172664 
L 175.140612 53.692934 
z
" style="fill:#008000;"/>
   </g>
   <g id="patch_32">
    <path clip-path="url(#pf3050ba79a)" d="M 202.304152 106.545768 
Q 200.840423 106.576522 199.257655 106.592078 
Q 197.674888 106.607812 195.951038 106.607812 
Q 190.810351 106.607812 187.807942 106.491232 
Q 184.805534 106.374652 184.805534 106.175286 
Q 184.805534 105.975205 187.807942 105.858803 
Q 190.810351 105.742223 195.951038 105.742223 
Q 197.674888 105.742223 199.257655 105.757958 
Q 200.840423 105.773514 202.304152 105.804268 
L 202.304152 105.976814 
Q 200.827196 105.936047 199.394329 105.917093 
Q 197.961461 105.89814 196.378694 105.89814 
Q 193.539412 105.89814 191.912556 105.971986 
Q 190.29011 106.045653 190.29011 106.175286 
Q 190.29011 106.304382 191.912556 106.378228 
Q 193.539412 106.451896 196.378694 106.451896 
Q 197.961461 106.451896 199.394329 106.432942 
Q 200.827196 106.41381 202.304152 106.373043 
z
" style="fill:#0000ff;"/>
   </g>
   <g id="patch_33">
    <path clip-path="url(#pf3050ba79a)" d="M 184.805534 104.599276 
L 202.304152 104.599276 
L 202.304152 104.822183 
L 196.008719 104.822183 
L 196.008719 105.742223 
L 191.113175 105.742223 
L 191.113175 104.822183 
L 184.805534 104.822183 
z
" style="fill:#ff0000;"/>
   </g>
   <g id="patch_34">
    <path clip-path="url(#pf3050ba79a)" d="M 202.304152 104.405967 
Q 200.539388 104.502621 198.641286 104.551169 
Q 196.743184 104.599276 194.719587 104.599276 
Q 190.146887 104.599276 187.476211 104.311519 
Q 184.805534 104.023762 184.805534 103.531662 
Q 184.805534 103.033824 187.523271 102.748274 
Q 190.24493 102.462723 194.978419 102.462723 
Q 196.802009 102.462723 198.472653 102.501562 
Q 200.147218 102.539959 201.62962 102.61587 
L 201.62962 103.041768 
Q 200.100158 102.944231 198.586382 102.896124 
Q 197.072606 102.847576 195.550987 102.847576 
Q 192.735208 102.847576 191.209667 103.024997 
Q 189.684127 103.201977 189.684127 103.531662 
Q 189.684127 103.858257 191.154764 104.036561 
Q 192.6254 104.214423 195.331372 104.214423 
Q 196.068652 104.214423 196.700045 104.204272 
Q 197.331438 104.19368 197.833416 104.171612 
L 197.833416 103.771754 
L 194.950968 103.771754 
L 194.950968 103.415588 
L 202.304152 103.415588 
z
" style="fill:#ffa600;"/>
   </g>
   <g id="patch_35">
    <path clip-path="url(#pf3050ba79a)" d="M 196.926842 101.879181 
L 190.197155 101.879181 
L 189.134573 102.462723 
L 184.805534 102.462723 
L 190.98783 99.259419 
L 196.121856 99.259419 
L 202.304152 102.462723 
L 197.978691 102.462723 
z
M 191.27047 101.284654 
L 195.842794 101.284654 
L 193.56021 100.010472 
z
" style="fill:#008000;"/>
   </g>
   <g id="patch_36">
    <path clip-path="url(#pf3050ba79a)" d="M 220.72375 106.575144 
Q 218.958986 106.591478 217.060884 106.599683 
Q 215.162782 106.607812 213.139185 106.607812 
Q 208.566485 106.607812 205.895808 106.559183 
Q 203.225132 106.510553 203.225132 106.427391 
Q 203.225132 106.343259 205.942869 106.295002 
Q 208.664528 106.246746 213.398017 106.246746 
Q 215.221607 106.246746 216.892251 106.253309 
Q 218.566816 106.259798 220.049218 106.272627 
L 220.049218 106.344601 
Q 218.519756 106.328118 217.00598 106.319988 
Q 215.492204 106.311784 213.970585 106.311784 
Q 211.154806 106.311784 209.629265 106.341767 
Q 208.103725 106.371676 208.103725 106.427391 
Q 208.103725 106.482584 209.574362 106.512716 
Q 211.044998 106.542774 213.75097 106.542774 
Q 214.48825 106.542774 215.119643 106.541059 
Q 215.751036 106.539269 216.253014 106.535539 
L 216.253014 106.467965 
L 213.370566 106.467965 
L 213.370566 106.407775 
L 220.72375 106.407775 
z
" style="fill:#ffa600;"/>
   </g>
   <g id="patch_37">
    <path clip-path="url(#pf3050ba79a)" d="M 215.34644 106.154179 
L 208.616753 106.154179 
L 207.554171 106.246746 
L 203.225132 106.246746 
L 209.407428 105.738611 
L 214.541454 105.738611 
L 220.72375 106.246746 
L 216.398289 106.246746 
z
M 209.690068 106.05987 
L 214.262392 106.05987 
L 211.979808 105.857749 
z
" style="fill:#008000;"/>
   </g>
   <g id="patch_38">
    <path clip-path="url(#pf3050ba79a)" d="M 203.225132 105.123947 
L 220.72375 105.123947 
L 220.72375 105.243824 
L 214.428317 105.243824 
L 214.428317 105.738611 
L 209.532773 105.738611 
L 209.532773 105.243824 
L 203.225132 105.243824 
z
" style="fill:#ff0000;"/>
   </g>
   <g id="patch_39">
    <path clip-path="url(#pf3050ba79a)" d="M 220.72375 105.067319 
Q 219.260021 105.095389 217.677253 105.109586 
Q 216.094486 105.123947 214.370636 105.123947 
Q 209.229949 105.123947 206.22754 105.017546 
Q 203.225132 104.911144 203.225132 104.729185 
Q 203.225132 104.546573 206.22754 104.440335 
Q 209.229949 104.333933 214.370636 104.333933 
Q 216.094486 104.333933 217.677253 104.348294 
Q 219.260021 104.362492 220.72375 104.390561 
L 220.72375 104.548042 
Q 219.246794 104.510834 217.813927 104.493535 
Q 216.381059 104.476237 214.798292 104.476237 
Q 211.95901 104.476237 210.332154 104.543635 
Q 208.709708 104.610871 208.709708 104.729185 
Q 208.709708 104.84701 210.332154 104.914408 
Q 211.95901 104.981644 214.798292 104.981644 
Q 216.381059 104.981644 217.813927 104.964345 
Q 219.246794 104.946884 220.72375 104.909676 
z
" style="fill:#0000ff;"/>
   </g>
   <g id="matplotlib.axis_1">
    <g id="xtick_1">
     <g id="line2d_2">
      <defs>
       <path d="M 0 0 
L 0 3.5 
" id="m4039fb67d8" style="stroke:#000000;stroke-width:0.8;"/>
      </defs>
      <g>
       <use style="stroke:#000000;stroke-width:0.8;" x="46.198059" xlink:href="#m4039fb67d8" y="106.607812"/>
      </g>
     </g>
     <g id="text_1">
      <!-- 1 -->
      <defs>
       <path d="M 12.40625 8.296875 
L 28.515625 8.296875 
L 28.515625 63.921875 
L 10.984375 60.40625 
L 10.984375 69.390625 
L 28.421875 72.90625 
L 38.28125 72.90625 
L 38.28125 8.296875 
L 54.390625 8.296875 
L 54.390625 0 
L 12.40625 0 
z
" id="DejaVuSans-49"/>
      </defs>
      <g transform="translate(49.509309 121.242812)rotate(-90)scale(0.12 -0.12)">
       <use xlink:href="#DejaVuSans-49"/>
      </g>
     </g>
    </g>
    <g id="xtick_2">
     <g id="line2d_3">
      <g>
       <use style="stroke:#000000;stroke-width:0.8;" x="64.617657" xlink:href="#m4039fb67d8" y="106.607812"/>
      </g>
     </g>
     <g id="text_2">
      <!-- 2 -->
      <defs>
       <path d="M 19.1875 8.296875 
L 53.609375 8.296875 
L 53.609375 0 
L 7.328125 0 
L 7.328125 8.296875 
Q 12.9375 14.109375 22.625 23.890625 
Q 32.328125 33.6875 34.8125 36.53125 
Q 39.546875 41.84375 41.421875 45.53125 
Q 43.3125 49.21875 43.3125 52.78125 
Q 43.3125 58.59375 39.234375 62.25 
Q 35.15625 65.921875 28.609375 65.921875 
Q 23.96875 65.921875 18.8125 64.3125 
Q 13.671875 62.703125 7.8125 59.421875 
L 7.8125 69.390625 
Q 13.765625 71.78125 18.9375 73 
Q 24.125 74.21875 28.421875 74.21875 
Q 39.75 74.21875 46.484375 68.546875 
Q 53.21875 62.890625 53.21875 53.421875 
Q 53.21875 48.921875 51.53125 44.890625 
Q 49.859375 40.875 45.40625 35.40625 
Q 44.1875 33.984375 37.640625 27.21875 
Q 31.109375 20.453125 19.1875 8.296875 
z
" id="DejaVuSans-50"/>
      </defs>
      <g transform="translate(67.928907 121.242812)rotate(-90)scale(0.12 -0.12)">
       <use xlink:href="#DejaVuSans-50"/>
      </g>
     </g>
    </g>
    <g id="xtick_3">
     <g id="line2d_4">
      <g>
       <use style="stroke:#000000;stroke-width:0.8;" x="83.037255" xlink:href="#m4039fb67d8" y="106.607812"/>
      </g>
     </g>
     <g id="text_3">
      <!-- 3 -->
      <defs>
       <path d="M 40.578125 39.3125 
Q 47.65625 37.796875 51.625 33 
Q 55.609375 28.21875 55.609375 21.1875 
Q 55.609375 10.40625 48.1875 4.484375 
Q 40.765625 -1.421875 27.09375 -1.421875 
Q 22.515625 -1.421875 17.65625 -0.515625 
Q 12.796875 0.390625 7.625 2.203125 
L 7.625 11.71875 
Q 11.71875 9.328125 16.59375 8.109375 
Q 21.484375 6.890625 26.8125 6.890625 
Q 36.078125 6.890625 40.9375 10.546875 
Q 45.796875 14.203125 45.796875 21.1875 
Q 45.796875 27.640625 41.28125 31.265625 
Q 36.765625 34.90625 28.71875 34.90625 
L 20.21875 34.90625 
L 20.21875 43.015625 
L 29.109375 43.015625 
Q 36.375 43.015625 40.234375 45.921875 
Q 44.09375 48.828125 44.09375 54.296875 
Q 44.09375 59.90625 40.109375 62.90625 
Q 36.140625 65.921875 28.71875 65.921875 
Q 24.65625 65.921875 20.015625 65.03125 
Q 15.375 64.15625 9.8125 62.3125 
L 9.8125 71.09375 
Q 15.4375 72.65625 20.34375 73.4375 
Q 25.25 74.21875 29.59375 74.21875 
Q 40.828125 74.21875 47.359375 69.109375 
Q 53.90625 64.015625 53.90625 55.328125 
Q 53.90625 49.265625 50.4375 45.09375 
Q 46.96875 40.921875 40.578125 39.3125 
z
" id="DejaVuSans-51"/>
      </defs>
      <g transform="translate(86.348505 121.242812)rotate(-90)scale(0.12 -0.12)">
       <use xlink:href="#DejaVuSans-51"/>
      </g>
     </g>
    </g>
    <g id="xtick_4">
     <g id="line2d_5">
      <g>
       <use style="stroke:#000000;stroke-width:0.8;" x="101.456853" xlink:href="#m4039fb67d8" y="106.607812"/>
      </g>
     </g>
     <g id="text_4">
      <!-- 4 -->
      <defs>
       <path d="M 37.796875 64.3125 
L 12.890625 25.390625 
L 37.796875 25.390625 
z
M 35.203125 72.90625 
L 47.609375 72.90625 
L 47.609375 25.390625 
L 58.015625 25.390625 
L 58.015625 17.1875 
L 47.609375 17.1875 
L 47.609375 0 
L 37.796875 0 
L 37.796875 17.1875 
L 4.890625 17.1875 
L 4.890625 26.703125 
z
" id="DejaVuSans-52"/>
      </defs>
      <g transform="translate(104.768103 121.242812)rotate(-90)scale(0.12 -0.12)">
       <use xlink:href="#DejaVuSans-52"/>
      </g>
     </g>
    </g>
    <g id="xtick_5">
     <g id="line2d_6">
      <g>
       <use style="stroke:#000000;stroke-width:0.8;" x="119.876451" xlink:href="#m4039fb67d8" y="106.607812"/>
      </g>
     </g>
     <g id="text_5">
      <!-- 5 -->
      <defs>
       <path d="M 10.796875 72.90625 
L 49.515625 72.90625 
L 49.515625 64.59375 
L 19.828125 64.59375 
L 19.828125 46.734375 
Q 21.96875 47.46875 24.109375 47.828125 
Q 26.265625 48.1875 28.421875 48.1875 
Q 40.625 48.1875 47.75 41.5 
Q 54.890625 34.8125 54.890625 23.390625 
Q 54.890625 11.625 47.5625 5.09375 
Q 40.234375 -1.421875 26.90625 -1.421875 
Q 22.3125 -1.421875 17.546875 -0.640625 
Q 12.796875 0.140625 7.71875 1.703125 
L 7.71875 11.625 
Q 12.109375 9.234375 16.796875 8.0625 
Q 21.484375 6.890625 26.703125 6.890625 
Q 35.15625 6.890625 40.078125 11.328125 
Q 45.015625 15.765625 45.015625 23.390625 
Q 45.015625 31 40.078125 35.4375 
Q 35.15625 39.890625 26.703125 39.890625 
Q 22.75 39.890625 18.8125 39.015625 
Q 14.890625 38.140625 10.796875 36.28125 
z
" id="DejaVuSans-53"/>
      </defs>
      <g transform="translate(123.187701 121.242812)rotate(-90)scale(0.12 -0.12)">
       <use xlink:href="#DejaVuSans-53"/>
      </g>
     </g>
    </g>
    <g id="xtick_6">
     <g id="line2d_7">
      <g>
       <use style="stroke:#000000;stroke-width:0.8;" x="138.296049" xlink:href="#m4039fb67d8" y="106.607812"/>
      </g>
     </g>
     <g id="text_6">
      <!-- 6 -->
      <defs>
       <path d="M 33.015625 40.375 
Q 26.375 40.375 22.484375 35.828125 
Q 18.609375 31.296875 18.609375 23.390625 
Q 18.609375 15.53125 22.484375 10.953125 
Q 26.375 6.390625 33.015625 6.390625 
Q 39.65625 6.390625 43.53125 10.953125 
Q 47.40625 15.53125 47.40625 23.390625 
Q 47.40625 31.296875 43.53125 35.828125 
Q 39.65625 40.375 33.015625 40.375 
z
M 52.59375 71.296875 
L 52.59375 62.3125 
Q 48.875 64.0625 45.09375 64.984375 
Q 41.3125 65.921875 37.59375 65.921875 
Q 27.828125 65.921875 22.671875 59.328125 
Q 17.53125 52.734375 16.796875 39.40625 
Q 19.671875 43.65625 24.015625 45.921875 
Q 28.375 48.1875 33.59375 48.1875 
Q 44.578125 48.1875 50.953125 41.515625 
Q 57.328125 34.859375 57.328125 23.390625 
Q 57.328125 12.15625 50.6875 5.359375 
Q 44.046875 -1.421875 33.015625 -1.421875 
Q 20.359375 -1.421875 13.671875 8.265625 
Q 6.984375 17.96875 6.984375 36.375 
Q 6.984375 53.65625 15.1875 63.9375 
Q 23.390625 74.21875 37.203125 74.21875 
Q 40.921875 74.21875 44.703125 73.484375 
Q 48.484375 72.75 52.59375 71.296875 
z
" id="DejaVuSans-54"/>
      </defs>
      <g transform="translate(141.607299 121.242812)rotate(-90)scale(0.12 -0.12)">
       <use xlink:href="#DejaVuSans-54"/>
      </g>
     </g>
    </g>
    <g id="xtick_7">
     <g id="line2d_8">
      <g>
       <use style="stroke:#000000;stroke-width:0.8;" x="156.715647" xlink:href="#m4039fb67d8" y="106.607812"/>
      </g>
     </g>
     <g id="text_7">
      <!-- 7 -->
      <defs>
       <path d="M 8.203125 72.90625 
L 55.078125 72.90625 
L 55.078125 68.703125 
L 28.609375 0 
L 18.3125 0 
L 43.21875 64.59375 
L 8.203125 64.59375 
z
" id="DejaVuSans-55"/>
      </defs>
      <g transform="translate(160.026897 121.242812)rotate(-90)scale(0.12 -0.12)">
       <use xlink:href="#DejaVuSans-55"/>
      </g>
     </g>
    </g>
    <g id="xtick_8">
     <g id="line2d_9">
      <g>
       <use style="stroke:#000000;stroke-width:0.8;" x="175.135245" xlink:href="#m4039fb67d8" y="106.607812"/>
      </g>
     </g>
     <g id="text_8">
      <!-- 8 -->
      <defs>
       <path d="M 31.78125 34.625 
Q 24.75 34.625 20.71875 30.859375 
Q 16.703125 27.09375 16.703125 20.515625 
Q 16.703125 13.921875 20.71875 10.15625 
Q 24.75 6.390625 31.78125 6.390625 
Q 38.8125 6.390625 42.859375 10.171875 
Q 46.921875 13.96875 46.921875 20.515625 
Q 46.921875 27.09375 42.890625 30.859375 
Q 38.875 34.625 31.78125 34.625 
z
M 21.921875 38.8125 
Q 15.578125 40.375 12.03125 44.71875 
Q 8.5 49.078125 8.5 55.328125 
Q 8.5 64.0625 14.71875 69.140625 
Q 20.953125 74.21875 31.78125 74.21875 
Q 42.671875 74.21875 48.875 69.140625 
Q 55.078125 64.0625 55.078125 55.328125 
Q 55.078125 49.078125 51.53125 44.71875 
Q 48 40.375 41.703125 38.8125 
Q 48.828125 37.15625 52.796875 32.3125 
Q 56.78125 27.484375 56.78125 20.515625 
Q 56.78125 9.90625 50.3125 4.234375 
Q 43.84375 -1.421875 31.78125 -1.421875 
Q 19.734375 -1.421875 13.25 4.234375 
Q 6.78125 9.90625 6.78125 20.515625 
Q 6.78125 27.484375 10.78125 32.3125 
Q 14.796875 37.15625 21.921875 38.8125 
z
M 18.3125 54.390625 
Q 18.3125 48.734375 21.84375 45.5625 
Q 25.390625 42.390625 31.78125 42.390625 
Q 38.140625 42.390625 41.71875 45.5625 
Q 45.3125 48.734375 45.3125 54.390625 
Q 45.3125 60.0625 41.71875 63.234375 
Q 38.140625 66.40625 31.78125 66.40625 
Q 25.390625 66.40625 21.84375 63.234375 
Q 18.3125 60.0625 18.3125 54.390625 
z
" id="DejaVuSans-56"/>
      </defs>
      <g transform="translate(178.446495 121.242812)rotate(-90)scale(0.12 -0.12)">
       <use xlink:href="#DejaVuSans-56"/>
      </g>
     </g>
    </g>
    <g id="xtick_9">
     <g id="line2d_10">
      <g>
       <use style="stroke:#000000;stroke-width:0.8;" x="193.554843" xlink:href="#m4039fb67d8" y="106.607812"/>
      </g>
     </g>
     <g id="text_9">
      <!-- 9 -->
      <defs>
       <path d="M 10.984375 1.515625 
L 10.984375 10.5 
Q 14.703125 8.734375 18.5 7.8125 
Q 22.3125 6.890625 25.984375 6.890625 
Q 35.75 6.890625 40.890625 13.453125 
Q 46.046875 20.015625 46.78125 33.40625 
Q 43.953125 29.203125 39.59375 26.953125 
Q 35.25 24.703125 29.984375 24.703125 
Q 19.046875 24.703125 12.671875 31.3125 
Q 6.296875 37.9375 6.296875 49.421875 
Q 6.296875 60.640625 12.9375 67.421875 
Q 19.578125 74.21875 30.609375 74.21875 
Q 43.265625 74.21875 49.921875 64.515625 
Q 56.59375 54.828125 56.59375 36.375 
Q 56.59375 19.140625 48.40625 8.859375 
Q 40.234375 -1.421875 26.421875 -1.421875 
Q 22.703125 -1.421875 18.890625 -0.6875 
Q 15.09375 0.046875 10.984375 1.515625 
z
M 30.609375 32.421875 
Q 37.25 32.421875 41.125 36.953125 
Q 45.015625 41.5 45.015625 49.421875 
Q 45.015625 57.28125 41.125 61.84375 
Q 37.25 66.40625 30.609375 66.40625 
Q 23.96875 66.40625 20.09375 61.84375 
Q 16.21875 57.28125 16.21875 49.421875 
Q 16.21875 41.5 20.09375 36.953125 
Q 23.96875 32.421875 30.609375 32.421875 
z
" id="DejaVuSans-57"/>
      </defs>
      <g transform="translate(196.866093 121.242812)rotate(-90)scale(0.12 -0.12)">
       <use xlink:href="#DejaVuSans-57"/>
      </g>
     </g>
    </g>
    <g id="xtick_10">
     <g id="line2d_11">
      <g>
       <use style="stroke:#000000;stroke-width:0.8;" x="211.974441" xlink:href="#m4039fb67d8" y="106.607812"/>
      </g>
     </g>
     <g id="text_10">
      <!-- 10 -->
      <defs>
       <path d="M 31.78125 66.40625 
Q 24.171875 66.40625 20.328125 58.90625 
Q 16.5 51.421875 16.5 36.375 
Q 16.5 21.390625 20.328125 13.890625 
Q 24.171875 6.390625 31.78125 6.390625 
Q 39.453125 6.390625 43.28125 13.890625 
Q 47.125 21.390625 47.125 36.375 
Q 47.125 51.421875 43.28125 58.90625 
Q 39.453125 66.40625 31.78125 66.40625 
z
M 31.78125 74.21875 
Q 44.046875 74.21875 50.515625 64.515625 
Q 56.984375 54.828125 56.984375 36.375 
Q 56.984375 17.96875 50.515625 8.265625 
Q 44.046875 -1.421875 31.78125 -1.421875 
Q 19.53125 -1.421875 13.0625 8.265625 
Q 6.59375 17.96875 6.59375 36.375 
Q 6.59375 54.828125 13.0625 64.515625 
Q 19.53125 74.21875 31.78125 74.21875 
z
" id="DejaVuSans-48"/>
      </defs>
      <g transform="translate(215.285691 128.877813)rotate(-90)scale(0.12 -0.12)">
       <use xlink:href="#DejaVuSans-49"/>
       <use x="63.623047" xlink:href="#DejaVuSans-48"/>
      </g>
     </g>
    </g>
   </g>
   <g id="matplotlib.axis_2">
    <g id="ytick_1">
     <g id="line2d_12">
      <defs>
       <path d="M 0 0 
L -3.5 0 
" id="m488230371d" style="stroke:#000000;stroke-width:0.8;"/>
      </defs>
      <g>
       <use style="stroke:#000000;stroke-width:0.8;" x="37.44875" xlink:href="#m488230371d" y="106.607812"/>
      </g>
     </g>
     <g id="text_11">
      <!-- 0 -->
      <g transform="translate(22.81375 111.166875)scale(0.12 -0.12)">
       <use xlink:href="#DejaVuSans-48"/>
      </g>
     </g>
    </g>
    <g id="ytick_2">
     <g id="line2d_13">
      <g>
       <use style="stroke:#000000;stroke-width:0.8;" x="37.44875" xlink:href="#m488230371d" y="65.470312"/>
      </g>
     </g>
     <g id="text_12">
      <!-- 1 -->
      <g transform="translate(22.81375 70.029375)scale(0.12 -0.12)">
       <use xlink:href="#DejaVuSans-49"/>
      </g>
     </g>
    </g>
    <g id="ytick_3">
     <g id="line2d_14">
      <g>
       <use style="stroke:#000000;stroke-width:0.8;" x="37.44875" xlink:href="#m488230371d" y="24.332812"/>
      </g>
     </g>
     <g id="text_13">
      <!-- 2 -->
      <g transform="translate(22.81375 28.891875)scale(0.12 -0.12)">
       <use xlink:href="#DejaVuSans-50"/>
      </g>
     </g>
    </g>
    <g id="text_14">
     <!-- bits -->
     <defs>
      <path d="M 48.6875 27.296875 
Q 48.6875 37.203125 44.609375 42.84375 
Q 40.53125 48.484375 33.40625 48.484375 
Q 26.265625 48.484375 22.1875 42.84375 
Q 18.109375 37.203125 18.109375 27.296875 
Q 18.109375 17.390625 22.1875 11.75 
Q 26.265625 6.109375 33.40625 6.109375 
Q 40.53125 6.109375 44.609375 11.75 
Q 48.6875 17.390625 48.6875 27.296875 
z
M 18.109375 46.390625 
Q 20.953125 51.265625 25.265625 53.625 
Q 29.59375 56 35.59375 56 
Q 45.5625 56 51.78125 48.09375 
Q 58.015625 40.1875 58.015625 27.296875 
Q 58.015625 14.40625 51.78125 6.484375 
Q 45.5625 -1.421875 35.59375 -1.421875 
Q 29.59375 -1.421875 25.265625 0.953125 
Q 20.953125 3.328125 18.109375 8.203125 
L 18.109375 0 
L 9.078125 0 
L 9.078125 75.984375 
L 18.109375 75.984375 
z
" id="DejaVuSans-98"/>
      <path d="M 9.421875 54.6875 
L 18.40625 54.6875 
L 18.40625 0 
L 9.421875 0 
z
M 9.421875 75.984375 
L 18.40625 75.984375 
L 18.40625 64.59375 
L 9.421875 64.59375 
z
" id="DejaVuSans-105"/>
      <path d="M 18.3125 70.21875 
L 18.3125 54.6875 
L 36.8125 54.6875 
L 36.8125 47.703125 
L 18.3125 47.703125 
L 18.3125 18.015625 
Q 18.3125 11.328125 20.140625 9.421875 
Q 21.96875 7.515625 27.59375 7.515625 
L 36.8125 7.515625 
L 36.8125 0 
L 27.59375 0 
Q 17.1875 0 13.234375 3.875 
Q 9.28125 7.765625 9.28125 18.015625 
L 9.28125 47.703125 
L 2.6875 47.703125 
L 2.6875 54.6875 
L 9.28125 54.6875 
L 9.28125 70.21875 
z
" id="DejaVuSans-116"/>
      <path d="M 44.28125 53.078125 
L 44.28125 44.578125 
Q 40.484375 46.53125 36.375 47.5 
Q 32.28125 48.484375 27.875 48.484375 
Q 21.1875 48.484375 17.84375 46.4375 
Q 14.5 44.390625 14.5 40.28125 
Q 14.5 37.15625 16.890625 35.375 
Q 19.28125 33.59375 26.515625 31.984375 
L 29.59375 31.296875 
Q 39.15625 29.25 43.1875 25.515625 
Q 47.21875 21.78125 47.21875 15.09375 
Q 47.21875 7.46875 41.1875 3.015625 
Q 35.15625 -1.421875 24.609375 -1.421875 
Q 20.21875 -1.421875 15.453125 -0.5625 
Q 10.6875 0.296875 5.421875 2 
L 5.421875 11.28125 
Q 10.40625 8.6875 15.234375 7.390625 
Q 20.0625 6.109375 24.8125 6.109375 
Q 31.15625 6.109375 34.5625 8.28125 
Q 37.984375 10.453125 37.984375 14.40625 
Q 37.984375 18.0625 35.515625 20.015625 
Q 33.0625 21.96875 24.703125 23.78125 
L 21.578125 24.515625 
Q 13.234375 26.265625 9.515625 29.90625 
Q 5.8125 33.546875 5.8125 39.890625 
Q 5.8125 47.609375 11.28125 51.796875 
Q 16.75 56 26.8125 56 
Q 31.78125 56 36.171875 55.265625 
Q 40.578125 54.546875 44.28125 53.078125 
z
" id="DejaVuSans-115"/>
     </defs>
     <g transform="translate(16.318125 76.424062)rotate(-90)scale(0.12 -0.12)">
      <use xlink:href="#DejaVuSans-98"/>
      <use x="63.476562" xlink:href="#DejaVuSans-105"/>
      <use x="91.259766" xlink:href="#DejaVuSans-116"/>
      <use x="130.46875" xlink:href="#DejaVuSans-115"/>
     </g>
    </g>
   </g>
   <g id="patch_40">
    <path d="M 37.44875 106.607812 
L 37.44875 24.332812 
" style="fill:none;stroke:#000000;stroke-linecap:square;stroke-linejoin:miter;stroke-width:0.8;"/>
   </g>
   <g id="patch_41">
    <path d="M 220.72375 106.607812 
L 220.72375 24.332812 
" style="fill:none;stroke:#000000;stroke-linecap:square;stroke-linejoin:miter;stroke-width:0.8;"/>
   </g>
   <g id="patch_42">
    <path d="M 37.44875 106.607812 
L 220.72375 106.607812 
" style="fill:none;stroke:#000000;stroke-linecap:square;stroke-linejoin:miter;stroke-width:0.8;"/>
   </g>
   <g id="patch_43">
    <path d="M 37.44875 24.332812 
L 220.72375 24.332812 
" style="fill:none;stroke:#000000;stroke-linecap:square;stroke-linejoin:miter;stroke-width:0.8;"/>
   </g>
   <g id="text_15">
    <!-- RAX_HUMAN.MA0718.1 -->
    <defs>
     <path d="M 44.390625 34.1875 
Q 47.5625 33.109375 50.5625 29.59375 
Q 53.5625 26.078125 56.59375 19.921875 
L 66.609375 0 
L 56 0 
L 46.6875 18.703125 
Q 43.0625 26.03125 39.671875 28.421875 
Q 36.28125 30.8125 30.421875 30.8125 
L 19.671875 30.8125 
L 19.671875 0 
L 9.8125 0 
L 9.8125 72.90625 
L 32.078125 72.90625 
Q 44.578125 72.90625 50.734375 67.671875 
Q 56.890625 62.453125 56.890625 51.90625 
Q 56.890625 45.015625 53.6875 40.46875 
Q 50.484375 35.9375 44.390625 34.1875 
z
M 19.671875 64.796875 
L 19.671875 38.921875 
L 32.078125 38.921875 
Q 39.203125 38.921875 42.84375 42.21875 
Q 46.484375 45.515625 46.484375 51.90625 
Q 46.484375 58.296875 42.84375 61.546875 
Q 39.203125 64.796875 32.078125 64.796875 
z
" id="DejaVuSans-82"/>
     <path d="M 34.1875 63.1875 
L 20.796875 26.90625 
L 47.609375 26.90625 
z
M 28.609375 72.90625 
L 39.796875 72.90625 
L 67.578125 0 
L 57.328125 0 
L 50.6875 18.703125 
L 17.828125 18.703125 
L 11.1875 0 
L 0.78125 0 
z
" id="DejaVuSans-65"/>
     <path d="M 6.296875 72.90625 
L 16.890625 72.90625 
L 35.015625 45.796875 
L 53.21875 72.90625 
L 63.8125 72.90625 
L 40.375 37.890625 
L 65.375 0 
L 54.78125 0 
L 34.28125 31 
L 13.625 0 
L 2.984375 0 
L 29 38.921875 
z
" id="DejaVuSans-88"/>
     <path d="M 50.984375 -16.609375 
L 50.984375 -23.578125 
L -0.984375 -23.578125 
L -0.984375 -16.609375 
z
" id="DejaVuSans-95"/>
     <path d="M 9.8125 72.90625 
L 19.671875 72.90625 
L 19.671875 43.015625 
L 55.515625 43.015625 
L 55.515625 72.90625 
L 65.375 72.90625 
L 65.375 0 
L 55.515625 0 
L 55.515625 34.71875 
L 19.671875 34.71875 
L 19.671875 0 
L 9.8125 0 
z
" id="DejaVuSans-72"/>
     <path d="M 8.6875 72.90625 
L 18.609375 72.90625 
L 18.609375 28.609375 
Q 18.609375 16.890625 22.84375 11.734375 
Q 27.09375 6.59375 36.625 6.59375 
Q 46.09375 6.59375 50.34375 11.734375 
Q 54.59375 16.890625 54.59375 28.609375 
L 54.59375 72.90625 
L 64.5 72.90625 
L 64.5 27.390625 
Q 64.5 13.140625 57.4375 5.859375 
Q 50.390625 -1.421875 36.625 -1.421875 
Q 22.796875 -1.421875 15.734375 5.859375 
Q 8.6875 13.140625 8.6875 27.390625 
z
" id="DejaVuSans-85"/>
     <path d="M 9.8125 72.90625 
L 24.515625 72.90625 
L 43.109375 23.296875 
L 61.8125 72.90625 
L 76.515625 72.90625 
L 76.515625 0 
L 66.890625 0 
L 66.890625 64.015625 
L 48.09375 14.015625 
L 38.1875 14.015625 
L 19.390625 64.015625 
L 19.390625 0 
L 9.8125 0 
z
" id="DejaVuSans-77"/>
     <path d="M 9.8125 72.90625 
L 23.09375 72.90625 
L 55.421875 11.921875 
L 55.421875 72.90625 
L 64.984375 72.90625 
L 64.984375 0 
L 51.703125 0 
L 19.390625 60.984375 
L 19.390625 0 
L 9.8125 0 
z
" id="DejaVuSans-78"/>
     <path d="M 10.6875 12.40625 
L 21 12.40625 
L 21 0 
L 10.6875 0 
z
" id="DejaVuSans-46"/>
    </defs>
    <g transform="translate(41.291719 18.332812)scale(0.15 -0.15)">
     <use xlink:href="#DejaVuSans-82"/>
     <use x="69.419922" xlink:href="#DejaVuSans-65"/>
     <use x="137.828125" xlink:href="#DejaVuSans-88"/>
     <use x="206.333984" xlink:href="#DejaVuSans-95"/>
     <use x="256.333984" xlink:href="#DejaVuSans-72"/>
     <use x="331.529297" xlink:href="#DejaVuSans-85"/>
     <use x="404.722656" xlink:href="#DejaVuSans-77"/>
     <use x="491.001953" xlink:href="#DejaVuSans-65"/>
     <use x="559.410156" xlink:href="#DejaVuSans-78"/>
     <use x="634.214844" xlink:href="#DejaVuSans-46"/>
     <use x="666.001953" xlink:href="#DejaVuSans-77"/>
     <use x="752.28125" xlink:href="#DejaVuSans-65"/>
     <use x="820.689453" xlink:href="#DejaVuSans-48"/>
     <use x="884.3125" xlink:href="#DejaVuSans-55"/>
     <use x="947.935547" xlink:href="#DejaVuSans-49"/>
     <use x="1011.558594" xlink:href="#DejaVuSans-56"/>
     <use x="1075.181641" xlink:href="#DejaVuSans-46"/>
     <use x="1106.96875" xlink:href="#DejaVuSans-49"/>
    </g>
   </g>
  </g>
 </g>
 <defs>
  <clipPath id="pf3050ba79a">
   <rect height="82.275" width="183.275" x="37.44875" y="24.332812"/>
  </clipPath>
 </defs>
</svg>
