<?xml version="1.0" encoding="utf-8" standalone="no"?>
<!DOCTYPE svg PUBLIC "-//W3C//DTD SVG 1.1//EN"
  "http://www.w3.org/Graphics/SVG/1.1/DTD/svg11.dtd">
<!-- Created with matplotlib (https://matplotlib.org/) -->
<svg height="273.4675pt" version="1.1" viewBox="0 0 280.9375 273.4675" width="280.9375pt" xmlns="http://www.w3.org/2000/svg" xmlns:xlink="http://www.w3.org/1999/xlink">
 <defs>
  <style type="text/css">
*{stroke-linecap:butt;stroke-linejoin:round;}
  </style>
 </defs>
 <g id="figure_1">
  <g id="patch_1">
   <path d="M 0 273.4675 
L 280.9375 273.4675 
L 280.9375 0 
L 0 0 
z
" style="fill:#ffffff;"/>
  </g>
  <g id="axes_1">
   <g id="patch_2">
    <path d="M 48.8975 232.04 
L 270.2375 232.04 
L 270.2375 10.7 
L 48.8975 10.7 
z
" style="fill:#ffffff;"/>
   </g>
   <g id="line2d_1">
    <path clip-path="url(#paa1d9e4814)" d="M 48.8975 109.966215 
L 270.2375 109.966215 
" style="fill:none;stroke:#000000;stroke-dasharray:7.4,3.2;stroke-dashoffset:0;stroke-width:2;"/>
   </g>
   <g id="matplotlib.axis_1">
    <g id="xtick_1">
     <g id="line2d_2">
      <defs>
       <path d="M 0 0 
L 0 3.5 
" id="ma632cb719a" style="stroke:#000000;stroke-width:0.8;"/>
      </defs>
      <g>
       <use style="stroke:#000000;stroke-width:0.8;" x="58.958409" xlink:href="#ma632cb719a" y="232.04"/>
      </g>
     </g>
     <g id="text_1">
      <!-- 0.0 -->
      <defs>
       <path d="M 31.78125 66.40625 
Q 24.171875 66.40625 20.328125 58.90625 
Q 16.5 51.421875 16.5 36.375 
Q 16.5 21.390625 20.328125 13.890625 
Q 24.171875 6.390625 31.78125 6.390625 
Q 39.453125 6.390625 43.28125 13.890625 
Q 47.125 21.390625 47.125 36.375 
Q 47.125 51.421875 43.28125 58.90625 
Q 39.453125 66.40625 31.78125 66.40625 
z
M 31.78125 74.21875 
Q 44.046875 74.21875 50.515625 64.515625 
Q 56.984375 54.828125 56.984375 36.375 
Q 56.984375 17.96875 50.515625 8.265625 
Q 44.046875 -1.421875 31.78125 -1.421875 
Q 19.53125 -1.421875 13.0625 8.265625 
Q 6.59375 17.96875 6.59375 36.375 
Q 6.59375 54.828125 13.0625 64.515625 
Q 19.53125 74.21875 31.78125 74.21875 
z
" id="DejaVuSans-48"/>
       <path d="M 10.6875 12.40625 
L 21 12.40625 
L 21 0 
L 10.6875 0 
z
" id="DejaVuSans-46"/>
      </defs>
      <g transform="translate(49.416534 248.158125)scale(0.12 -0.12)">
       <use xlink:href="#DejaVuSans-48"/>
       <use x="63.623047" xlink:href="#DejaVuSans-46"/>
       <use x="95.410156" xlink:href="#DejaVuSans-48"/>
      </g>
     </g>
    </g>
    <g id="xtick_2">
     <g id="line2d_3">
      <g>
       <use style="stroke:#000000;stroke-width:0.8;" x="99.202045" xlink:href="#ma632cb719a" y="232.04"/>
      </g>
     </g>
     <g id="text_2">
      <!-- 0.2 -->
      <defs>
       <path d="M 19.1875 8.296875 
L 53.609375 8.296875 
L 53.609375 0 
L 7.328125 0 
L 7.328125 8.296875 
Q 12.9375 14.109375 22.625 23.890625 
Q 32.328125 33.6875 34.8125 36.53125 
Q 39.546875 41.84375 41.421875 45.53125 
Q 43.3125 49.21875 43.3125 52.78125 
Q 43.3125 58.59375 39.234375 62.25 
Q 35.15625 65.921875 28.609375 65.921875 
Q 23.96875 65.921875 18.8125 64.3125 
Q 13.671875 62.703125 7.8125 59.421875 
L 7.8125 69.390625 
Q 13.765625 71.78125 18.9375 73 
Q 24.125 74.21875 28.421875 74.21875 
Q 39.75 74.21875 46.484375 68.546875 
Q 53.21875 62.890625 53.21875 53.421875 
Q 53.21875 48.921875 51.53125 44.890625 
Q 49.859375 40.875 45.40625 35.40625 
Q 44.1875 33.984375 37.640625 27.21875 
Q 31.109375 20.453125 19.1875 8.296875 
z
" id="DejaVuSans-50"/>
      </defs>
      <g transform="translate(89.66017 248.158125)scale(0.12 -0.12)">
       <use xlink:href="#DejaVuSans-48"/>
       <use x="63.623047" xlink:href="#DejaVuSans-46"/>
       <use x="95.410156" xlink:href="#DejaVuSans-50"/>
      </g>
     </g>
    </g>
    <g id="xtick_3">
     <g id="line2d_4">
      <g>
       <use style="stroke:#000000;stroke-width:0.8;" x="139.445682" xlink:href="#ma632cb719a" y="232.04"/>
      </g>
     </g>
     <g id="text_3">
      <!-- 0.4 -->
      <defs>
       <path d="M 37.796875 64.3125 
L 12.890625 25.390625 
L 37.796875 25.390625 
z
M 35.203125 72.90625 
L 47.609375 72.90625 
L 47.609375 25.390625 
L 58.015625 25.390625 
L 58.015625 17.1875 
L 47.609375 17.1875 
L 47.609375 0 
L 37.796875 0 
L 37.796875 17.1875 
L 4.890625 17.1875 
L 4.890625 26.703125 
z
" id="DejaVuSans-52"/>
      </defs>
      <g transform="translate(129.903807 248.158125)scale(0.12 -0.12)">
       <use xlink:href="#DejaVuSans-48"/>
       <use x="63.623047" xlink:href="#DejaVuSans-46"/>
       <use x="95.410156" xlink:href="#DejaVuSans-52"/>
      </g>
     </g>
    </g>
    <g id="xtick_4">
     <g id="line2d_5">
      <g>
       <use style="stroke:#000000;stroke-width:0.8;" x="179.689318" xlink:href="#ma632cb719a" y="232.04"/>
      </g>
     </g>
     <g id="text_4">
      <!-- 0.6 -->
      <defs>
       <path d="M 33.015625 40.375 
Q 26.375 40.375 22.484375 35.828125 
Q 18.609375 31.296875 18.609375 23.390625 
Q 18.609375 15.53125 22.484375 10.953125 
Q 26.375 6.390625 33.015625 6.390625 
Q 39.65625 6.390625 43.53125 10.953125 
Q 47.40625 15.53125 47.40625 23.390625 
Q 47.40625 31.296875 43.53125 35.828125 
Q 39.65625 40.375 33.015625 40.375 
z
M 52.59375 71.296875 
L 52.59375 62.3125 
Q 48.875 64.0625 45.09375 64.984375 
Q 41.3125 65.921875 37.59375 65.921875 
Q 27.828125 65.921875 22.671875 59.328125 
Q 17.53125 52.734375 16.796875 39.40625 
Q 19.671875 43.65625 24.015625 45.921875 
Q 28.375 48.1875 33.59375 48.1875 
Q 44.578125 48.1875 50.953125 41.515625 
Q 57.328125 34.859375 57.328125 23.390625 
Q 57.328125 12.15625 50.6875 5.359375 
Q 44.046875 -1.421875 33.015625 -1.421875 
Q 20.359375 -1.421875 13.671875 8.265625 
Q 6.984375 17.96875 6.984375 36.375 
Q 6.984375 53.65625 15.1875 63.9375 
Q 23.390625 74.21875 37.203125 74.21875 
Q 40.921875 74.21875 44.703125 73.484375 
Q 48.484375 72.75 52.59375 71.296875 
z
" id="DejaVuSans-54"/>
      </defs>
      <g transform="translate(170.147443 248.158125)scale(0.12 -0.12)">
       <use xlink:href="#DejaVuSans-48"/>
       <use x="63.623047" xlink:href="#DejaVuSans-46"/>
       <use x="95.410156" xlink:href="#DejaVuSans-54"/>
      </g>
     </g>
    </g>
    <g id="xtick_5">
     <g id="line2d_6">
      <g>
       <use style="stroke:#000000;stroke-width:0.8;" x="219.932955" xlink:href="#ma632cb719a" y="232.04"/>
      </g>
     </g>
     <g id="text_5">
      <!-- 0.8 -->
      <defs>
       <path d="M 31.78125 34.625 
Q 24.75 34.625 20.71875 30.859375 
Q 16.703125 27.09375 16.703125 20.515625 
Q 16.703125 13.921875 20.71875 10.15625 
Q 24.75 6.390625 31.78125 6.390625 
Q 38.8125 6.390625 42.859375 10.171875 
Q 46.921875 13.96875 46.921875 20.515625 
Q 46.921875 27.09375 42.890625 30.859375 
Q 38.875 34.625 31.78125 34.625 
z
M 21.921875 38.8125 
Q 15.578125 40.375 12.03125 44.71875 
Q 8.5 49.078125 8.5 55.328125 
Q 8.5 64.0625 14.71875 69.140625 
Q 20.953125 74.21875 31.78125 74.21875 
Q 42.671875 74.21875 48.875 69.140625 
Q 55.078125 64.0625 55.078125 55.328125 
Q 55.078125 49.078125 51.53125 44.71875 
Q 48 40.375 41.703125 38.8125 
Q 48.828125 37.15625 52.796875 32.3125 
Q 56.78125 27.484375 56.78125 20.515625 
Q 56.78125 9.90625 50.3125 4.234375 
Q 43.84375 -1.421875 31.78125 -1.421875 
Q 19.734375 -1.421875 13.25 4.234375 
Q 6.78125 9.90625 6.78125 20.515625 
Q 6.78125 27.484375 10.78125 32.3125 
Q 14.796875 37.15625 21.921875 38.8125 
z
M 18.3125 54.390625 
Q 18.3125 48.734375 21.84375 45.5625 
Q 25.390625 42.390625 31.78125 42.390625 
Q 38.140625 42.390625 41.71875 45.5625 
Q 45.3125 48.734375 45.3125 54.390625 
Q 45.3125 60.0625 41.71875 63.234375 
Q 38.140625 66.40625 31.78125 66.40625 
Q 25.390625 66.40625 21.84375 63.234375 
Q 18.3125 60.0625 18.3125 54.390625 
z
" id="DejaVuSans-56"/>
      </defs>
      <g transform="translate(210.39108 248.158125)scale(0.12 -0.12)">
       <use xlink:href="#DejaVuSans-48"/>
       <use x="63.623047" xlink:href="#DejaVuSans-46"/>
       <use x="95.410156" xlink:href="#DejaVuSans-56"/>
      </g>
     </g>
    </g>
    <g id="xtick_6">
     <g id="line2d_7">
      <g>
       <use style="stroke:#000000;stroke-width:0.8;" x="260.176591" xlink:href="#ma632cb719a" y="232.04"/>
      </g>
     </g>
     <g id="text_6">
      <!-- 1.0 -->
      <defs>
       <path d="M 12.40625 8.296875 
L 28.515625 8.296875 
L 28.515625 63.921875 
L 10.984375 60.40625 
L 10.984375 69.390625 
L 28.421875 72.90625 
L 38.28125 72.90625 
L 38.28125 8.296875 
L 54.390625 8.296875 
L 54.390625 0 
L 12.40625 0 
z
" id="DejaVuSans-49"/>
      </defs>
      <g transform="translate(250.634716 248.158125)scale(0.12 -0.12)">
       <use xlink:href="#DejaVuSans-49"/>
       <use x="63.623047" xlink:href="#DejaVuSans-46"/>
       <use x="95.410156" xlink:href="#DejaVuSans-48"/>
      </g>
     </g>
    </g>
    <g id="text_7">
     <!-- Recall -->
     <defs>
      <path d="M 44.390625 34.1875 
Q 47.5625 33.109375 50.5625 29.59375 
Q 53.5625 26.078125 56.59375 19.921875 
L 66.609375 0 
L 56 0 
L 46.6875 18.703125 
Q 43.0625 26.03125 39.671875 28.421875 
Q 36.28125 30.8125 30.421875 30.8125 
L 19.671875 30.8125 
L 19.671875 0 
L 9.8125 0 
L 9.8125 72.90625 
L 32.078125 72.90625 
Q 44.578125 72.90625 50.734375 67.671875 
Q 56.890625 62.453125 56.890625 51.90625 
Q 56.890625 45.015625 53.6875 40.46875 
Q 50.484375 35.9375 44.390625 34.1875 
z
M 19.671875 64.796875 
L 19.671875 38.921875 
L 32.078125 38.921875 
Q 39.203125 38.921875 42.84375 42.21875 
Q 46.484375 45.515625 46.484375 51.90625 
Q 46.484375 58.296875 42.84375 61.546875 
Q 39.203125 64.796875 32.078125 64.796875 
z
" id="DejaVuSans-82"/>
      <path d="M 56.203125 29.59375 
L 56.203125 25.203125 
L 14.890625 25.203125 
Q 15.484375 15.921875 20.484375 11.0625 
Q 25.484375 6.203125 34.421875 6.203125 
Q 39.59375 6.203125 44.453125 7.46875 
Q 49.3125 8.734375 54.109375 11.28125 
L 54.109375 2.78125 
Q 49.265625 0.734375 44.1875 -0.34375 
Q 39.109375 -1.421875 33.890625 -1.421875 
Q 20.796875 -1.421875 13.15625 6.1875 
Q 5.515625 13.8125 5.515625 26.8125 
Q 5.515625 40.234375 12.765625 48.109375 
Q 20.015625 56 32.328125 56 
Q 43.359375 56 49.78125 48.890625 
Q 56.203125 41.796875 56.203125 29.59375 
z
M 47.21875 32.234375 
Q 47.125 39.59375 43.09375 43.984375 
Q 39.0625 48.390625 32.421875 48.390625 
Q 24.90625 48.390625 20.390625 44.140625 
Q 15.875 39.890625 15.1875 32.171875 
z
" id="DejaVuSans-101"/>
      <path d="M 48.78125 52.59375 
L 48.78125 44.1875 
Q 44.96875 46.296875 41.140625 47.34375 
Q 37.3125 48.390625 33.40625 48.390625 
Q 24.65625 48.390625 19.8125 42.84375 
Q 14.984375 37.3125 14.984375 27.296875 
Q 14.984375 17.28125 19.8125 11.734375 
Q 24.65625 6.203125 33.40625 6.203125 
Q 37.3125 6.203125 41.140625 7.25 
Q 44.96875 8.296875 48.78125 10.40625 
L 48.78125 2.09375 
Q 45.015625 0.34375 40.984375 -0.53125 
Q 36.96875 -1.421875 32.421875 -1.421875 
Q 20.0625 -1.421875 12.78125 6.34375 
Q 5.515625 14.109375 5.515625 27.296875 
Q 5.515625 40.671875 12.859375 48.328125 
Q 20.21875 56 33.015625 56 
Q 37.15625 56 41.109375 55.140625 
Q 45.0625 54.296875 48.78125 52.59375 
z
" id="DejaVuSans-99"/>
      <path d="M 34.28125 27.484375 
Q 23.390625 27.484375 19.1875 25 
Q 14.984375 22.515625 14.984375 16.5 
Q 14.984375 11.71875 18.140625 8.90625 
Q 21.296875 6.109375 26.703125 6.109375 
Q 34.1875 6.109375 38.703125 11.40625 
Q 43.21875 16.703125 43.21875 25.484375 
L 43.21875 27.484375 
z
M 52.203125 31.203125 
L 52.203125 0 
L 43.21875 0 
L 43.21875 8.296875 
Q 40.140625 3.328125 35.546875 0.953125 
Q 30.953125 -1.421875 24.3125 -1.421875 
Q 15.921875 -1.421875 10.953125 3.296875 
Q 6 8.015625 6 15.921875 
Q 6 25.140625 12.171875 29.828125 
Q 18.359375 34.515625 30.609375 34.515625 
L 43.21875 34.515625 
L 43.21875 35.40625 
Q 43.21875 41.609375 39.140625 45 
Q 35.0625 48.390625 27.6875 48.390625 
Q 23 48.390625 18.546875 47.265625 
Q 14.109375 46.140625 10.015625 43.890625 
L 10.015625 52.203125 
Q 14.9375 54.109375 19.578125 55.046875 
Q 24.21875 56 28.609375 56 
Q 40.484375 56 46.34375 49.84375 
Q 52.203125 43.703125 52.203125 31.203125 
z
" id="DejaVuSans-97"/>
      <path d="M 9.421875 75.984375 
L 18.40625 75.984375 
L 18.40625 0 
L 9.421875 0 
z
" id="DejaVuSans-108"/>
     </defs>
     <g transform="translate(141.400625 263.771875)scale(0.12 -0.12)">
      <use xlink:href="#DejaVuSans-82"/>
      <use x="69.419922" xlink:href="#DejaVuSans-101"/>
      <use x="130.943359" xlink:href="#DejaVuSans-99"/>
      <use x="185.923828" xlink:href="#DejaVuSans-97"/>
      <use x="247.203125" xlink:href="#DejaVuSans-108"/>
      <use x="274.986328" xlink:href="#DejaVuSans-108"/>
     </g>
    </g>
   </g>
   <g id="matplotlib.axis_2">
    <g id="ytick_1">
     <g id="line2d_8">
      <defs>
       <path d="M 0 0 
L -3.5 0 
" id="m8b18d69bbd" style="stroke:#000000;stroke-width:0.8;"/>
      </defs>
      <g>
       <use style="stroke:#000000;stroke-width:0.8;" x="48.8975" xlink:href="#m8b18d69bbd" y="221.979091"/>
      </g>
     </g>
     <g id="text_8">
      <!-- 0.0 -->
      <g transform="translate(22.81375 226.538153)scale(0.12 -0.12)">
       <use xlink:href="#DejaVuSans-48"/>
       <use x="63.623047" xlink:href="#DejaVuSans-46"/>
       <use x="95.410156" xlink:href="#DejaVuSans-48"/>
      </g>
     </g>
    </g>
    <g id="ytick_2">
     <g id="line2d_9">
      <g>
       <use style="stroke:#000000;stroke-width:0.8;" x="48.8975" xlink:href="#m8b18d69bbd" y="181.735455"/>
      </g>
     </g>
     <g id="text_9">
      <!-- 0.2 -->
      <g transform="translate(22.81375 186.294517)scale(0.12 -0.12)">
       <use xlink:href="#DejaVuSans-48"/>
       <use x="63.623047" xlink:href="#DejaVuSans-46"/>
       <use x="95.410156" xlink:href="#DejaVuSans-50"/>
      </g>
     </g>
    </g>
    <g id="ytick_3">
     <g id="line2d_10">
      <g>
       <use style="stroke:#000000;stroke-width:0.8;" x="48.8975" xlink:href="#m8b18d69bbd" y="141.491818"/>
      </g>
     </g>
     <g id="text_10">
      <!-- 0.4 -->
      <g transform="translate(22.81375 146.050881)scale(0.12 -0.12)">
       <use xlink:href="#DejaVuSans-48"/>
       <use x="63.623047" xlink:href="#DejaVuSans-46"/>
       <use x="95.410156" xlink:href="#DejaVuSans-52"/>
      </g>
     </g>
    </g>
    <g id="ytick_4">
     <g id="line2d_11">
      <g>
       <use style="stroke:#000000;stroke-width:0.8;" x="48.8975" xlink:href="#m8b18d69bbd" y="101.248182"/>
      </g>
     </g>
     <g id="text_11">
      <!-- 0.6 -->
      <g transform="translate(22.81375 105.807244)scale(0.12 -0.12)">
       <use xlink:href="#DejaVuSans-48"/>
       <use x="63.623047" xlink:href="#DejaVuSans-46"/>
       <use x="95.410156" xlink:href="#DejaVuSans-54"/>
      </g>
     </g>
    </g>
    <g id="ytick_5">
     <g id="line2d_12">
      <g>
       <use style="stroke:#000000;stroke-width:0.8;" x="48.8975" xlink:href="#m8b18d69bbd" y="61.004545"/>
      </g>
     </g>
     <g id="text_12">
      <!-- 0.8 -->
      <g transform="translate(22.81375 65.563608)scale(0.12 -0.12)">
       <use xlink:href="#DejaVuSans-48"/>
       <use x="63.623047" xlink:href="#DejaVuSans-46"/>
       <use x="95.410156" xlink:href="#DejaVuSans-56"/>
      </g>
     </g>
    </g>
    <g id="ytick_6">
     <g id="line2d_13">
      <g>
       <use style="stroke:#000000;stroke-width:0.8;" x="48.8975" xlink:href="#m8b18d69bbd" y="20.760909"/>
      </g>
     </g>
     <g id="text_13">
      <!-- 1.0 -->
      <g transform="translate(22.81375 25.319972)scale(0.12 -0.12)">
       <use xlink:href="#DejaVuSans-49"/>
       <use x="63.623047" xlink:href="#DejaVuSans-46"/>
       <use x="95.410156" xlink:href="#DejaVuSans-48"/>
      </g>
     </g>
    </g>
    <g id="text_14">
     <!-- Precision -->
     <defs>
      <path d="M 19.671875 64.796875 
L 19.671875 37.40625 
L 32.078125 37.40625 
Q 38.96875 37.40625 42.71875 40.96875 
Q 46.484375 44.53125 46.484375 51.125 
Q 46.484375 57.671875 42.71875 61.234375 
Q 38.96875 64.796875 32.078125 64.796875 
z
M 9.8125 72.90625 
L 32.078125 72.90625 
Q 44.34375 72.90625 50.609375 67.359375 
Q 56.890625 61.8125 56.890625 51.125 
Q 56.890625 40.328125 50.609375 34.8125 
Q 44.34375 29.296875 32.078125 29.296875 
L 19.671875 29.296875 
L 19.671875 0 
L 9.8125 0 
z
" id="DejaVuSans-80"/>
      <path d="M 41.109375 46.296875 
Q 39.59375 47.171875 37.8125 47.578125 
Q 36.03125 48 33.890625 48 
Q 26.265625 48 22.1875 43.046875 
Q 18.109375 38.09375 18.109375 28.8125 
L 18.109375 0 
L 9.078125 0 
L 9.078125 54.6875 
L 18.109375 54.6875 
L 18.109375 46.1875 
Q 20.953125 51.171875 25.484375 53.578125 
Q 30.03125 56 36.53125 56 
Q 37.453125 56 38.578125 55.875 
Q 39.703125 55.765625 41.0625 55.515625 
z
" id="DejaVuSans-114"/>
      <path d="M 9.421875 54.6875 
L 18.40625 54.6875 
L 18.40625 0 
L 9.421875 0 
z
M 9.421875 75.984375 
L 18.40625 75.984375 
L 18.40625 64.59375 
L 9.421875 64.59375 
z
" id="DejaVuSans-105"/>
      <path d="M 44.28125 53.078125 
L 44.28125 44.578125 
Q 40.484375 46.53125 36.375 47.5 
Q 32.28125 48.484375 27.875 48.484375 
Q 21.1875 48.484375 17.84375 46.4375 
Q 14.5 44.390625 14.5 40.28125 
Q 14.5 37.15625 16.890625 35.375 
Q 19.28125 33.59375 26.515625 31.984375 
L 29.59375 31.296875 
Q 39.15625 29.25 43.1875 25.515625 
Q 47.21875 21.78125 47.21875 15.09375 
Q 47.21875 7.46875 41.1875 3.015625 
Q 35.15625 -1.421875 24.609375 -1.421875 
Q 20.21875 -1.421875 15.453125 -0.5625 
Q 10.6875 0.296875 5.421875 2 
L 5.421875 11.28125 
Q 10.40625 8.6875 15.234375 7.390625 
Q 20.0625 6.109375 24.8125 6.109375 
Q 31.15625 6.109375 34.5625 8.28125 
Q 37.984375 10.453125 37.984375 14.40625 
Q 37.984375 18.0625 35.515625 20.015625 
Q 33.0625 21.96875 24.703125 23.78125 
L 21.578125 24.515625 
Q 13.234375 26.265625 9.515625 29.90625 
Q 5.8125 33.546875 5.8125 39.890625 
Q 5.8125 47.609375 11.28125 51.796875 
Q 16.75 56 26.8125 56 
Q 31.78125 56 36.171875 55.265625 
Q 40.578125 54.546875 44.28125 53.078125 
z
" id="DejaVuSans-115"/>
      <path d="M 30.609375 48.390625 
Q 23.390625 48.390625 19.1875 42.75 
Q 14.984375 37.109375 14.984375 27.296875 
Q 14.984375 17.484375 19.15625 11.84375 
Q 23.34375 6.203125 30.609375 6.203125 
Q 37.796875 6.203125 41.984375 11.859375 
Q 46.1875 17.53125 46.1875 27.296875 
Q 46.1875 37.015625 41.984375 42.703125 
Q 37.796875 48.390625 30.609375 48.390625 
z
M 30.609375 56 
Q 42.328125 56 49.015625 48.375 
Q 55.71875 40.765625 55.71875 27.296875 
Q 55.71875 13.875 49.015625 6.21875 
Q 42.328125 -1.421875 30.609375 -1.421875 
Q 18.84375 -1.421875 12.171875 6.21875 
Q 5.515625 13.875 5.515625 27.296875 
Q 5.515625 40.765625 12.171875 48.375 
Q 18.84375 56 30.609375 56 
z
" id="DejaVuSans-111"/>
      <path d="M 54.890625 33.015625 
L 54.890625 0 
L 45.90625 0 
L 45.90625 32.71875 
Q 45.90625 40.484375 42.875 44.328125 
Q 39.84375 48.1875 33.796875 48.1875 
Q 26.515625 48.1875 22.3125 43.546875 
Q 18.109375 38.921875 18.109375 30.90625 
L 18.109375 0 
L 9.078125 0 
L 9.078125 54.6875 
L 18.109375 54.6875 
L 18.109375 46.1875 
Q 21.34375 51.125 25.703125 53.5625 
Q 30.078125 56 35.796875 56 
Q 45.21875 56 50.046875 50.171875 
Q 54.890625 44.34375 54.890625 33.015625 
z
" id="DejaVuSans-110"/>
     </defs>
     <g transform="translate(16.318125 148.375625)rotate(-90)scale(0.12 -0.12)">
      <use xlink:href="#DejaVuSans-80"/>
      <use x="60.287109" xlink:href="#DejaVuSans-114"/>
      <use x="101.369141" xlink:href="#DejaVuSans-101"/>
      <use x="162.892578" xlink:href="#DejaVuSans-99"/>
      <use x="217.873047" xlink:href="#DejaVuSans-105"/>
      <use x="245.65625" xlink:href="#DejaVuSans-115"/>
      <use x="297.755859" xlink:href="#DejaVuSans-105"/>
      <use x="325.539062" xlink:href="#DejaVuSans-111"/>
      <use x="386.720703" xlink:href="#DejaVuSans-110"/>
     </g>
    </g>
   </g>
   <g id="PolyCollection_1">
    <defs>
     <path d="M 58.958409 -252.706591 
L 58.958409 -252.706591 
L 60.990916 -252.706591 
L 63.023423 -252.706591 
L 65.05593 -252.706591 
L 67.088437 -252.706591 
L 69.120944 -242.285374 
L 71.15345 -233.254091 
L 73.185957 -235.747912 
L 75.218464 -229.58275 
L 77.250971 -231.90649 
L 79.283478 -230.65783 
L 81.315985 -229.299731 
L 83.348492 -231.029803 
L 85.380999 -227.84036 
L 87.413506 -226.208554 
L 89.446012 -226.253325 
L 91.478519 -228.060427 
L 93.511026 -223.212829 
L 95.543533 -221.971188 
L 97.57604 -223.336362 
L 99.608547 -221.844214 
L 101.641054 -222.466905 
L 103.673561 -223.575542 
L 105.706067 -224.592359 
L 107.738574 -224.711615 
L 109.771081 -221.956053 
L 111.803588 -219.786355 
L 113.836095 -218.864267 
L 115.868602 -217.765138 
L 117.901109 -218.101989 
L 119.933616 -219.688405 
L 121.966123 -219.672279 
L 123.998629 -220.570124 
L 126.031136 -221.129113 
L 128.063643 -221.575346 
L 130.09615 -222.327775 
L 132.128657 -221.599968 
L 134.161164 -221.704536 
L 136.193671 -220.799046 
L 138.226178 -220.105779 
L 140.258685 -220.003399 
L 142.291191 -218.171985 
L 144.323698 -218.933406 
L 146.356205 -217.897516 
L 148.388712 -215.705866 
L 150.421219 -215.489251 
L 152.453726 -214.646404 
L 154.486233 -214.371908 
L 156.51874 -212.767308 
L 158.551247 -210.818771 
L 160.583753 -210.929546 
L 162.61626 -210.752279 
L 164.648767 -210.396915 
L 166.681274 -210.082012 
L 168.713781 -209.178812 
L 170.746288 -208.597256 
L 172.778795 -207.939257 
L 174.811302 -207.390653 
L 176.843809 -206.116966 
L 178.876315 -204.129054 
L 180.908822 -203.514709 
L 182.941329 -203.473755 
L 184.973836 -202.356054 
L 187.006343 -202.441129 
L 189.03885 -203.041864 
L 191.071357 -202.421447 
L 193.103864 -200.844262 
L 195.136371 -201.132676 
L 197.168877 -199.792184 
L 199.201384 -199.591237 
L 201.233891 -199.933876 
L 203.266398 -199.580041 
L 205.298905 -198.768838 
L 207.331412 -197.804712 
L 209.363919 -197.024669 
L 211.396426 -196.429553 
L 213.428933 -195.075875 
L 215.461439 -194.84968 
L 217.493946 -194.563072 
L 219.526453 -192.776528 
L 221.55896 -192.777183 
L 223.591467 -193.035457 
L 225.623974 -191.695463 
L 227.656481 -189.846396 
L 229.688988 -189.20982 
L 231.721494 -187.690868 
L 233.754001 -185.468485 
L 235.786508 -184.622359 
L 237.819015 -183.788893 
L 239.851522 -182.941295 
L 241.884029 -182.239869 
L 243.916536 -180.268412 
L 245.949043 -178.970023 
L 247.98155 -178.052513 
L 250.014056 -174.765752 
L 252.046563 -174.554462 
L 254.07907 -174.107003 
L 256.111577 -172.973355 
L 258.144084 -168.884523 
L 260.176591 -164.344284 
L 260.176591 -170.279949 
L 260.176591 -170.279949 
L 258.144084 -173.794018 
L 256.111577 -175.272582 
L 254.07907 -177.460685 
L 252.046563 -178.953279 
L 250.014056 -179.627628 
L 247.98155 -181.420935 
L 245.949043 -182.00206 
L 243.916536 -183.305511 
L 241.884029 -184.394712 
L 239.851522 -185.999829 
L 237.819015 -185.60932 
L 235.786508 -187.609083 
L 233.754001 -188.094142 
L 231.721494 -189.084639 
L 229.688988 -192.044193 
L 227.656481 -195.070518 
L 225.623974 -197.737019 
L 223.591467 -197.950511 
L 221.55896 -198.422415 
L 219.526453 -198.367138 
L 217.493946 -198.998596 
L 215.461439 -198.935915 
L 213.428933 -200.57051 
L 211.396426 -201.070466 
L 209.363919 -203.629243 
L 207.331412 -204.047805 
L 205.298905 -204.619556 
L 203.266398 -205.732256 
L 201.233891 -206.140009 
L 199.201384 -206.357312 
L 197.168877 -206.305511 
L 195.136371 -206.363191 
L 193.103864 -205.850738 
L 191.071357 -206.77731 
L 189.03885 -211.795758 
L 187.006343 -213.596585 
L 184.973836 -216.501116 
L 182.941329 -216.452757 
L 180.908822 -216.875544 
L 178.876315 -217.081747 
L 176.843809 -217.95494 
L 174.811302 -219.365419 
L 172.778795 -219.867375 
L 170.746288 -219.811127 
L 168.713781 -219.871293 
L 166.681274 -221.105786 
L 164.648767 -221.565415 
L 162.61626 -221.491107 
L 160.583753 -221.091265 
L 158.551247 -221.004301 
L 156.51874 -221.412523 
L 154.486233 -222.36266 
L 152.453726 -224.958366 
L 150.421219 -225.204371 
L 148.388712 -224.934734 
L 146.356205 -225.118124 
L 144.323698 -226.733445 
L 142.291191 -226.967421 
L 140.258685 -226.488676 
L 138.226178 -228.7433 
L 136.193671 -228.949522 
L 134.161164 -229.794424 
L 132.128657 -230.20435 
L 130.09615 -229.714271 
L 128.063643 -229.114884 
L 126.031136 -229.900211 
L 123.998629 -231.786591 
L 121.966123 -232.200954 
L 119.933616 -232.537522 
L 117.901109 -234.792261 
L 115.868602 -234.509488 
L 113.836095 -237.167851 
L 111.803588 -237.898052 
L 109.771081 -237.246391 
L 107.738574 -238.868297 
L 105.706067 -240.096698 
L 103.673561 -242.5249 
L 101.641054 -243.608606 
L 99.608547 -245.835847 
L 97.57604 -245.485484 
L 95.543533 -245.083032 
L 93.511026 -245.211086 
L 91.478519 -245.52298 
L 89.446012 -247.878141 
L 87.413506 -248.128368 
L 85.380999 -249.055074 
L 83.348492 -251.719425 
L 81.315985 -251.618502 
L 79.283478 -250.905739 
L 77.250971 -250.605354 
L 75.218464 -250.370609 
L 73.185957 -252.706591 
L 71.15345 -252.706591 
L 69.120944 -252.706591 
L 67.088437 -252.706591 
L 65.05593 -252.706591 
L 63.023423 -252.706591 
L 60.990916 -252.706591 
L 58.958409 -252.706591 
z
" id="me9cb70c348" style="stroke:#000000;stroke-opacity:0.2;"/>
    </defs>
    <g clip-path="url(#paa1d9e4814)">
     <use style="fill-opacity:0.2;stroke:#000000;stroke-opacity:0.2;" x="0" xlink:href="#me9cb70c348" y="273.4675"/>
    </g>
   </g>
   <g id="PolyCollection_2">
    <defs>
     <path d="M 58.958409 -252.706591 
L 58.958409 -252.706591 
L 60.990916 -213.682459 
L 63.023423 -195.913498 
L 65.05593 -211.261993 
L 67.088437 -204.542815 
L 69.120944 -208.095387 
L 71.15345 -214.234909 
L 73.185957 -215.015676 
L 75.218464 -218.96707 
L 77.250971 -219.06399 
L 79.283478 -220.370562 
L 81.315985 -217.721875 
L 83.348492 -215.967234 
L 85.380999 -218.289276 
L 87.413506 -216.865723 
L 89.446012 -218.834988 
L 91.478519 -218.24451 
L 93.511026 -214.928985 
L 95.543533 -215.55363 
L 97.57604 -214.567846 
L 99.608547 -217.0998 
L 101.641054 -216.109047 
L 103.673561 -217.634485 
L 105.706067 -217.848704 
L 107.738574 -219.057618 
L 109.771081 -216.673835 
L 111.803588 -214.348227 
L 113.836095 -214.365705 
L 115.868602 -212.675256 
L 117.901109 -212.896434 
L 119.933616 -213.96937 
L 121.966123 -212.134318 
L 123.998629 -210.485848 
L 126.031136 -211.214538 
L 128.063643 -210.908597 
L 130.09615 -206.818597 
L 132.128657 -205.468707 
L 134.161164 -204.314271 
L 136.193671 -202.01845 
L 138.226178 -201.954479 
L 140.258685 -202.91135 
L 142.291191 -203.538535 
L 144.323698 -202.062404 
L 146.356205 -200.983118 
L 148.388712 -199.541612 
L 150.421219 -198.63001 
L 152.453726 -197.865823 
L 154.486233 -198.045747 
L 156.51874 -194.015143 
L 158.551247 -193.416043 
L 160.583753 -191.87802 
L 162.61626 -191.073629 
L 164.648767 -190.954198 
L 166.681274 -190.380643 
L 168.713781 -189.435355 
L 170.746288 -188.028938 
L 172.778795 -186.012444 
L 174.811302 -185.000028 
L 176.843809 -184.838992 
L 178.876315 -184.191059 
L 180.908822 -183.165677 
L 182.941329 -180.63415 
L 184.973836 -180.410605 
L 187.006343 -180.440338 
L 189.03885 -179.694195 
L 191.071357 -180.284021 
L 193.103864 -178.582309 
L 195.136371 -178.307608 
L 197.168877 -178.589293 
L 199.201384 -178.983006 
L 201.233891 -179.318003 
L 203.266398 -179.284026 
L 205.298905 -179.432202 
L 207.331412 -177.164066 
L 209.363919 -177.517851 
L 211.396426 -176.396011 
L 213.428933 -176.469928 
L 215.461439 -175.21916 
L 217.493946 -175.357608 
L 219.526453 -174.344395 
L 221.55896 -173.719304 
L 223.591467 -173.103991 
L 225.623974 -172.906795 
L 227.656481 -172.59754 
L 229.688988 -172.252251 
L 231.721494 -172.638769 
L 233.754001 -173.068011 
L 235.786508 -172.023923 
L 237.819015 -171.833791 
L 239.851522 -170.154649 
L 241.884029 -169.587033 
L 243.916536 -169.641749 
L 245.949043 -168.81197 
L 247.98155 -167.862409 
L 250.014056 -167.425904 
L 252.046563 -165.921617 
L 254.07907 -164.382503 
L 256.111577 -164.190788 
L 258.144084 -164.454632 
L 260.176591 -164.147411 
L 260.176591 -165.753158 
L 260.176591 -165.753158 
L 258.144084 -167.04797 
L 256.111577 -167.965447 
L 254.07907 -170.594809 
L 252.046563 -173.628101 
L 250.014056 -173.649312 
L 247.98155 -174.779307 
L 245.949043 -176.498976 
L 243.916536 -177.164825 
L 241.884029 -177.40436 
L 239.851522 -178.455823 
L 237.819015 -179.703704 
L 235.786508 -180.271602 
L 233.754001 -180.799787 
L 231.721494 -180.657471 
L 229.688988 -180.82846 
L 227.656481 -180.715655 
L 225.623974 -181.039193 
L 223.591467 -182.899276 
L 221.55896 -182.318426 
L 219.526453 -182.557367 
L 217.493946 -182.808265 
L 215.461439 -183.569329 
L 213.428933 -185.384285 
L 211.396426 -185.266674 
L 209.363919 -186.751444 
L 207.331412 -187.223273 
L 205.298905 -187.301058 
L 203.266398 -187.816899 
L 201.233891 -188.384903 
L 199.201384 -191.240671 
L 197.168877 -191.612169 
L 195.136371 -191.841152 
L 193.103864 -192.793428 
L 191.071357 -194.986977 
L 189.03885 -199.120766 
L 187.006343 -202.115306 
L 184.973836 -203.312265 
L 182.941329 -203.469526 
L 180.908822 -204.062383 
L 178.876315 -205.114251 
L 176.843809 -206.014767 
L 174.811302 -208.086582 
L 172.778795 -208.721804 
L 170.746288 -207.977376 
L 168.713781 -209.13886 
L 166.681274 -212.848314 
L 164.648767 -213.590928 
L 162.61626 -213.592392 
L 160.583753 -213.686244 
L 158.551247 -215.392468 
L 156.51874 -214.891312 
L 154.486233 -214.787703 
L 152.453726 -214.362213 
L 150.421219 -213.839195 
L 148.388712 -214.869744 
L 146.356205 -215.365886 
L 144.323698 -215.247666 
L 142.291191 -217.230752 
L 140.258685 -218.062125 
L 138.226178 -217.331755 
L 136.193671 -218.685383 
L 134.161164 -218.089356 
L 132.128657 -222.790478 
L 130.09615 -222.269589 
L 128.063643 -221.856164 
L 126.031136 -221.219142 
L 123.998629 -223.450073 
L 121.966123 -224.856017 
L 119.933616 -227.290562 
L 117.901109 -226.529034 
L 115.868602 -225.657891 
L 113.836095 -226.725469 
L 111.803588 -230.091355 
L 109.771081 -229.809357 
L 107.738574 -229.749074 
L 105.706067 -228.867681 
L 103.673561 -229.350404 
L 101.641054 -229.961072 
L 99.608547 -229.01568 
L 97.57604 -232.233563 
L 95.543533 -231.287783 
L 93.511026 -230.558196 
L 91.478519 -232.558105 
L 89.446012 -234.598039 
L 87.413506 -233.405508 
L 85.380999 -232.373184 
L 83.348492 -230.837801 
L 81.315985 -231.962911 
L 79.283478 -242.383739 
L 77.250971 -242.949719 
L 75.218464 -246.081825 
L 73.185957 -245.191846 
L 71.15345 -243.697349 
L 69.120944 -242.108329 
L 67.088437 -240.594835 
L 65.05593 -241.959316 
L 63.023423 -237.312782 
L 60.990916 -252.706591 
L 58.958409 -252.706591 
z
" id="m8cb4e34f89" style="stroke:#e69b04;stroke-opacity:0.2;"/>
    </defs>
    <g clip-path="url(#paa1d9e4814)">
     <use style="fill:#e69b04;fill-opacity:0.2;stroke:#e69b04;stroke-opacity:0.2;" x="0" xlink:href="#m8cb4e34f89" y="273.4675"/>
    </g>
   </g>
   <g id="PolyCollection_3">
    <defs>
     <path d="M 58.958409 -230.552056 
L 58.958409 -51.488409 
L 60.990916 -118.029016 
L 63.023423 -136.103456 
L 65.05593 -137.377091 
L 67.088437 -141.856372 
L 69.120944 -147.659667 
L 71.15345 -136.668266 
L 73.185957 -136.876926 
L 75.218464 -130.520382 
L 77.250971 -133.623756 
L 79.283478 -140.909021 
L 81.315985 -144.497406 
L 83.348492 -144.516481 
L 85.380999 -144.093124 
L 87.413506 -145.801618 
L 89.446012 -149.589095 
L 91.478519 -151.724571 
L 93.511026 -152.128002 
L 95.543533 -154.292587 
L 97.57604 -155.312415 
L 99.608547 -154.439712 
L 101.641054 -155.183277 
L 103.673561 -155.94855 
L 105.706067 -156.721783 
L 107.738574 -158.916879 
L 109.771081 -159.099342 
L 111.803588 -160.800246 
L 113.836095 -161.59921 
L 115.868602 -162.501964 
L 117.901109 -163.296916 
L 119.933616 -163.641815 
L 121.966123 -163.370305 
L 123.998629 -163.920191 
L 126.031136 -163.579176 
L 128.063643 -164.533184 
L 130.09615 -164.949062 
L 132.128657 -164.485799 
L 134.161164 -163.928946 
L 136.193671 -164.510017 
L 138.226178 -164.909531 
L 140.258685 -164.214772 
L 142.291191 -164.655296 
L 144.323698 -163.569981 
L 146.356205 -164.10202 
L 148.388712 -162.966184 
L 150.421219 -164.17078 
L 152.453726 -164.447192 
L 154.486233 -163.832547 
L 156.51874 -164.654819 
L 158.551247 -165.701443 
L 160.583753 -164.17591 
L 162.61626 -164.124633 
L 164.648767 -164.274594 
L 166.681274 -164.849492 
L 168.713781 -164.195479 
L 170.746288 -165.012579 
L 172.778795 -165.44941 
L 174.811302 -165.941415 
L 176.843809 -165.112377 
L 178.876315 -165.872666 
L 180.908822 -166.586981 
L 182.941329 -166.812294 
L 184.973836 -166.727522 
L 187.006343 -166.278034 
L 189.03885 -166.673723 
L 191.071357 -166.601825 
L 193.103864 -166.703899 
L 195.136371 -166.507706 
L 197.168877 -167.019547 
L 199.201384 -167.312293 
L 201.233891 -167.20714 
L 203.266398 -167.650555 
L 205.298905 -167.993568 
L 207.331412 -168.529524 
L 209.363919 -169.108295 
L 211.396426 -168.413623 
L 213.428933 -168.959948 
L 215.461439 -168.542953 
L 217.493946 -168.384251 
L 219.526453 -168.868634 
L 221.55896 -169.21175 
L 223.591467 -169.348604 
L 225.623974 -169.935733 
L 227.656481 -169.626187 
L 229.688988 -169.876062 
L 231.721494 -169.558504 
L 233.754001 -169.737943 
L 235.786508 -169.542432 
L 237.819015 -168.895498 
L 239.851522 -168.518917 
L 241.884029 -168.42903 
L 243.916536 -167.772381 
L 245.949043 -166.448504 
L 247.98155 -166.227965 
L 250.014056 -166.269172 
L 252.046563 -165.189722 
L 254.07907 -165.083403 
L 256.111577 -165.238701 
L 258.144084 -165.531238 
L 260.176591 -163.862619 
L 260.176591 -165.425712 
L 260.176591 -165.425712 
L 258.144084 -166.567914 
L 256.111577 -167.376415 
L 254.07907 -168.730638 
L 252.046563 -169.447693 
L 250.014056 -171.113248 
L 247.98155 -170.783184 
L 245.949043 -171.031867 
L 243.916536 -171.590455 
L 241.884029 -171.726449 
L 239.851522 -171.874573 
L 237.819015 -171.728472 
L 235.786508 -171.776998 
L 233.754001 -171.998485 
L 231.721494 -172.946593 
L 229.688988 -174.060734 
L 227.656481 -173.970151 
L 225.623974 -174.818031 
L 223.591467 -175.09293 
L 221.55896 -174.515971 
L 219.526453 -174.151615 
L 217.493946 -174.287586 
L 215.461439 -173.891958 
L 213.428933 -173.398129 
L 211.396426 -172.835132 
L 209.363919 -173.337369 
L 207.331412 -173.15573 
L 205.298905 -173.87727 
L 203.266398 -173.807351 
L 201.233891 -174.638914 
L 199.201384 -174.259397 
L 197.168877 -173.699199 
L 195.136371 -174.621333 
L 193.103864 -174.751761 
L 191.071357 -175.239036 
L 189.03885 -174.422799 
L 187.006343 -174.578028 
L 184.973836 -173.984837 
L 182.941329 -173.577304 
L 180.908822 -173.742253 
L 178.876315 -173.27425 
L 176.843809 -173.067601 
L 174.811302 -172.714419 
L 172.778795 -172.644061 
L 170.746288 -172.741073 
L 168.713781 -172.50219 
L 166.681274 -172.607711 
L 164.648767 -171.788854 
L 162.61626 -170.975382 
L 160.583753 -170.975048 
L 158.551247 -171.248824 
L 156.51874 -171.662534 
L 154.486233 -172.098032 
L 152.453726 -172.364614 
L 150.421219 -172.77088 
L 148.388712 -173.333696 
L 146.356205 -173.063586 
L 144.323698 -173.469714 
L 142.291191 -176.088262 
L 140.258685 -175.039096 
L 138.226178 -174.406867 
L 136.193671 -173.590283 
L 134.161164 -173.298488 
L 132.128657 -172.410901 
L 130.09615 -171.634059 
L 128.063643 -170.649168 
L 126.031136 -170.191214 
L 123.998629 -169.444723 
L 121.966123 -168.409482 
L 119.933616 -169.369331 
L 117.901109 -167.989742 
L 115.868602 -167.904821 
L 113.836095 -169.307285 
L 111.803588 -168.166372 
L 109.771081 -167.4358 
L 107.738574 -167.901031 
L 105.706067 -166.947489 
L 103.673561 -166.306511 
L 101.641054 -164.958207 
L 99.608547 -164.606324 
L 97.57604 -164.711017 
L 95.543533 -163.214584 
L 93.511026 -164.203965 
L 91.478519 -161.463295 
L 89.446012 -159.762726 
L 87.413506 -160.478182 
L 85.380999 -159.820633 
L 83.348492 -168.071132 
L 81.315985 -165.958752 
L 79.283478 -162.970707 
L 77.250971 -181.864842 
L 75.218464 -187.090371 
L 73.185957 -186.336817 
L 71.15345 -183.3611 
L 69.120944 -185.59705 
L 67.088437 -179.328102 
L 65.05593 -171.580158 
L 63.023423 -183.982756 
L 60.990916 -216.723273 
L 58.958409 -230.552056 
z
" id="m427f9830b8" style="stroke:#009980;stroke-opacity:0.2;"/>
    </defs>
    <g clip-path="url(#paa1d9e4814)">
     <use style="fill:#009980;fill-opacity:0.2;stroke:#009980;stroke-opacity:0.2;" x="0" xlink:href="#m427f9830b8" y="273.4675"/>
    </g>
   </g>
   <g id="patch_3">
    <path d="M 48.8975 232.04 
L 48.8975 10.7 
" style="fill:none;stroke:#000000;stroke-linecap:square;stroke-linejoin:miter;stroke-width:0.8;"/>
   </g>
   <g id="patch_4">
    <path d="M 270.2375 232.04 
L 270.2375 10.7 
" style="fill:none;stroke:#000000;stroke-linecap:square;stroke-linejoin:miter;stroke-width:0.8;"/>
   </g>
   <g id="patch_5">
    <path d="M 48.8975 232.04 
L 270.2375 232.04 
" style="fill:none;stroke:#000000;stroke-linecap:square;stroke-linejoin:miter;stroke-width:0.8;"/>
   </g>
   <g id="patch_6">
    <path d="M 48.8975 10.7 
L 270.2375 10.7 
" style="fill:none;stroke:#000000;stroke-linecap:square;stroke-linejoin:miter;stroke-width:0.8;"/>
   </g>
   <g id="line2d_14">
    <path clip-path="url(#paa1d9e4814)" d="M 58.958409 20.760909 
L 60.990916 20.760909 
L 63.023423 20.760909 
L 65.05593 20.760909 
L 67.088437 20.760909 
L 69.120944 24.234648 
L 71.15345 29.166107 
L 73.185957 28.080923 
L 75.218464 33.490821 
L 77.250971 32.211578 
L 79.283478 32.685715 
L 81.315985 33.008384 
L 83.348492 32.092886 
L 85.380999 35.019783 
L 87.413506 36.299039 
L 89.446012 36.401767 
L 91.478519 36.675796 
L 93.511026 39.255543 
L 95.543533 39.94039 
L 97.57604 39.056577 
L 99.608547 39.62747 
L 101.641054 40.429744 
L 103.673561 40.417279 
L 105.706067 41.122971 
L 107.738574 41.677544 
L 109.771081 43.866278 
L 111.803588 44.625297 
L 113.836095 45.451441 
L 115.868602 47.330187 
L 117.901109 47.020375 
L 119.933616 47.354537 
L 121.966123 47.530883 
L 123.998629 47.289142 
L 126.031136 47.952838 
L 128.063643 48.122385 
L 130.09615 47.446477 
L 132.128657 47.565341 
L 134.161164 47.71802 
L 136.193671 48.593216 
L 138.226178 49.04296 
L 140.258685 50.221462 
L 142.291191 50.897797 
L 144.323698 50.634075 
L 146.356205 51.95968 
L 148.388712 53.1472 
L 150.421219 53.120689 
L 152.453726 53.665115 
L 154.486233 55.100216 
L 156.51874 56.377585 
L 158.551247 57.555964 
L 160.583753 57.457094 
L 162.61626 57.345807 
L 164.648767 57.486335 
L 166.681274 57.873601 
L 168.713781 58.942447 
L 170.746288 59.263308 
L 172.778795 59.564184 
L 174.811302 60.089464 
L 176.843809 61.431547 
L 178.876315 62.8621 
L 180.908822 63.272373 
L 182.941329 63.504244 
L 184.973836 64.038915 
L 187.006343 65.448643 
L 189.03885 66.048689 
L 191.071357 68.868122 
L 193.103864 70.12 
L 195.136371 69.719566 
L 197.168877 70.418653 
L 199.201384 70.493225 
L 201.233891 70.430558 
L 203.266398 70.811352 
L 205.298905 71.773303 
L 207.331412 72.541242 
L 209.363919 73.140544 
L 211.396426 74.717491 
L 213.428933 75.644308 
L 215.461439 76.574702 
L 217.493946 76.686666 
L 219.526453 77.895667 
L 221.55896 77.867701 
L 223.591467 77.974516 
L 225.623974 78.751259 
L 227.656481 81.009043 
L 229.688988 82.840494 
L 231.721494 85.079746 
L 233.754001 86.686186 
L 235.786508 87.351779 
L 237.819015 88.768393 
L 239.851522 88.996938 
L 241.884029 90.15021 
L 243.916536 91.680539 
L 245.949043 92.981458 
L 247.98155 93.730776 
L 250.014056 96.27081 
L 252.046563 96.71363 
L 254.07907 97.683656 
L 256.111577 99.344532 
L 258.144084 102.128229 
L 260.176591 106.155383 
" style="fill:none;stroke:#000000;stroke-linecap:square;stroke-width:2;"/>
   </g>
   <g id="line2d_15">
    <path clip-path="url(#paa1d9e4814)" d="M 58.958409 20.760909 
L 60.990916 33.768953 
L 63.023423 56.85436 
L 65.05593 46.856846 
L 67.088437 50.898675 
L 69.120944 48.365642 
L 71.15345 44.501371 
L 73.185957 43.363739 
L 75.218464 40.943052 
L 77.250971 42.460646 
L 79.283478 42.090349 
L 81.315985 48.625107 
L 83.348492 50.064982 
L 85.380999 48.13627 
L 87.413506 48.331884 
L 89.446012 46.750986 
L 91.478519 48.066193 
L 93.511026 50.72391 
L 95.543533 50.046794 
L 97.57604 50.066795 
L 99.608547 50.40976 
L 101.641054 50.432441 
L 103.673561 49.975055 
L 105.706067 50.109308 
L 107.738574 49.064154 
L 109.771081 50.225904 
L 111.803588 51.247709 
L 113.836095 52.921913 
L 115.868602 54.300927 
L 117.901109 53.754766 
L 119.933616 52.837534 
L 121.966123 54.972333 
L 123.998629 56.499539 
L 126.031136 57.25066 
L 128.063643 57.08512 
L 130.09615 58.923407 
L 132.128657 59.337908 
L 134.161164 62.265686 
L 136.193671 63.115583 
L 138.226178 63.824383 
L 140.258685 62.980762 
L 142.291191 63.082856 
L 144.323698 64.812465 
L 146.356205 65.292998 
L 148.388712 66.261822 
L 150.421219 67.232897 
L 152.453726 67.353482 
L 154.486233 67.050775 
L 156.51874 69.014272 
L 158.551247 69.063245 
L 160.583753 70.685368 
L 162.61626 71.13449 
L 164.648767 71.194937 
L 166.681274 71.853021 
L 168.713781 74.180392 
L 170.746288 75.464343 
L 172.778795 76.100376 
L 174.811302 76.924195 
L 176.843809 78.04062 
L 178.876315 78.814845 
L 180.908822 79.85347 
L 182.941329 81.415662 
L 184.973836 81.606065 
L 187.006343 82.189678 
L 189.03885 84.060019 
L 191.071357 85.832001 
L 193.103864 87.779631 
L 195.136371 88.39312 
L 197.168877 88.366769 
L 199.201384 88.355662 
L 201.233891 89.616047 
L 203.266398 89.917037 
L 205.298905 90.10087 
L 207.331412 91.27383 
L 209.363919 91.332853 
L 211.396426 92.636157 
L 213.428933 92.540393 
L 215.461439 94.073255 
L 217.493946 94.384563 
L 219.526453 95.016619 
L 221.55896 95.448635 
L 223.591467 95.465866 
L 225.623974 96.494506 
L 227.656481 96.810903 
L 229.688988 96.927145 
L 231.721494 96.81938 
L 233.754001 96.533601 
L 235.786508 97.319738 
L 237.819015 97.698753 
L 239.851522 99.162264 
L 241.884029 99.971803 
L 243.916536 100.064213 
L 245.949043 100.812027 
L 247.98155 102.146642 
L 250.014056 102.929892 
L 252.046563 103.692641 
L 254.07907 105.978844 
L 256.111577 107.389382 
L 258.144084 107.716199 
L 260.176591 108.517216 
" style="fill:none;stroke:#e69b04;stroke-linecap:square;stroke-width:2;"/>
   </g>
   <g id="line2d_16">
    <path clip-path="url(#paa1d9e4814)" d="M 58.958409 141.491818 
L 60.990916 106.091355 
L 63.023423 113.424394 
L 65.05593 118.988876 
L 67.088437 112.875263 
L 69.120944 106.839141 
L 71.15345 113.452817 
L 73.185957 111.860628 
L 75.218464 114.662123 
L 77.250971 115.723201 
L 79.283478 121.527636 
L 81.315985 118.239421 
L 83.348492 117.173694 
L 85.380999 121.510622 
L 87.413506 120.3276 
L 89.446012 118.79159 
L 91.478519 116.873567 
L 93.511026 115.301516 
L 95.543533 114.713915 
L 97.57604 113.455784 
L 99.608547 113.944482 
L 101.641054 113.396758 
L 103.673561 112.33997 
L 105.706067 111.632864 
L 107.738574 110.058545 
L 109.771081 110.199929 
L 111.803588 108.984191 
L 113.836095 108.014252 
L 115.868602 108.264107 
L 117.901109 107.824171 
L 119.933616 106.961927 
L 121.966123 107.577607 
L 123.998629 106.785043 
L 126.031136 106.582305 
L 128.063643 105.876324 
L 130.09615 105.175939 
L 132.128657 105.01915 
L 134.161164 104.853783 
L 136.193671 104.41735 
L 138.226178 103.809301 
L 140.258685 103.840566 
L 142.291191 103.095721 
L 144.323698 104.947652 
L 146.356205 104.884697 
L 148.388712 105.31756 
L 150.421219 104.99667 
L 152.453726 105.061597 
L 154.486233 105.502211 
L 156.51874 105.308823 
L 158.551247 104.992366 
L 160.583753 105.892021 
L 162.61626 105.917492 
L 164.648767 105.435776 
L 166.681274 104.738898 
L 168.713781 105.118665 
L 170.746288 104.590674 
L 172.778795 104.420765 
L 174.811302 104.139583 
L 176.843809 104.377511 
L 178.876315 103.894042 
L 180.908822 103.302883 
L 182.941329 103.272701 
L 184.973836 103.111321 
L 187.006343 103.039469 
L 189.03885 102.919239 
L 191.071357 102.547069 
L 193.103864 102.73967 
L 195.136371 102.902981 
L 197.168877 103.108127 
L 199.201384 102.681655 
L 201.233891 102.544473 
L 203.266398 102.738547 
L 205.298905 102.532081 
L 207.331412 102.624873 
L 209.363919 102.244668 
L 211.396426 102.843122 
L 213.428933 102.288461 
L 215.461439 102.250045 
L 217.493946 102.131581 
L 219.526453 101.957375 
L 221.55896 101.60364 
L 223.591467 101.246733 
L 225.623974 101.090618 
L 227.656481 101.669331 
L 229.688988 101.499102 
L 231.721494 102.214952 
L 233.754001 102.599286 
L 235.786508 102.807785 
L 237.819015 103.155515 
L 239.851522 103.270755 
L 241.884029 103.38976 
L 243.916536 103.786082 
L 245.949043 104.727314 
L 247.98155 104.961925 
L 250.014056 104.77629 
L 252.046563 106.148792 
L 254.07907 106.560479 
L 256.111577 107.159942 
L 258.144084 107.417924 
L 260.176591 108.823334 
" style="fill:none;stroke:#009980;stroke-linecap:square;stroke-width:2;"/>
   </g>
   <g id="legend_1">
    <g id="line2d_17">
     <path d="M 59.6975 179.316875 
L 83.6975 179.316875 
" style="fill:none;stroke:#000000;stroke-linecap:square;stroke-width:2;"/>
    </g>
    <g id="line2d_18"/>
    <g id="text_15">
     <!-- SVM -->
     <defs>
      <path d="M 53.515625 70.515625 
L 53.515625 60.890625 
Q 47.90625 63.578125 42.921875 64.890625 
Q 37.9375 66.21875 33.296875 66.21875 
Q 25.25 66.21875 20.875 63.09375 
Q 16.5 59.96875 16.5 54.203125 
Q 16.5 49.359375 19.40625 46.890625 
Q 22.3125 44.4375 30.421875 42.921875 
L 36.375 41.703125 
Q 47.40625 39.59375 52.65625 34.296875 
Q 57.90625 29 57.90625 20.125 
Q 57.90625 9.515625 50.796875 4.046875 
Q 43.703125 -1.421875 29.984375 -1.421875 
Q 24.8125 -1.421875 18.96875 -0.25 
Q 13.140625 0.921875 6.890625 3.21875 
L 6.890625 13.375 
Q 12.890625 10.015625 18.65625 8.296875 
Q 24.421875 6.59375 29.984375 6.59375 
Q 38.421875 6.59375 43.015625 9.90625 
Q 47.609375 13.234375 47.609375 19.390625 
Q 47.609375 24.75 44.3125 27.78125 
Q 41.015625 30.8125 33.5 32.328125 
L 27.484375 33.5 
Q 16.453125 35.6875 11.515625 40.375 
Q 6.59375 45.0625 6.59375 53.421875 
Q 6.59375 63.09375 13.40625 68.65625 
Q 20.21875 74.21875 32.171875 74.21875 
Q 37.3125 74.21875 42.625 73.28125 
Q 47.953125 72.359375 53.515625 70.515625 
z
" id="DejaVuSans-83"/>
      <path d="M 28.609375 0 
L 0.78125 72.90625 
L 11.078125 72.90625 
L 34.1875 11.53125 
L 57.328125 72.90625 
L 67.578125 72.90625 
L 39.796875 0 
z
" id="DejaVuSans-86"/>
      <path d="M 9.8125 72.90625 
L 24.515625 72.90625 
L 43.109375 23.296875 
L 61.8125 72.90625 
L 76.515625 72.90625 
L 76.515625 0 
L 66.890625 0 
L 66.890625 64.015625 
L 48.09375 14.015625 
L 38.1875 14.015625 
L 19.390625 64.015625 
L 19.390625 0 
L 9.8125 0 
z
" id="DejaVuSans-77"/>
     </defs>
     <g transform="translate(93.2975 183.516875)scale(0.12 -0.12)">
      <use xlink:href="#DejaVuSans-83"/>
      <use x="63.476562" xlink:href="#DejaVuSans-86"/>
      <use x="131.884766" xlink:href="#DejaVuSans-77"/>
     </g>
    </g>
    <g id="line2d_19">
     <path d="M 59.6975 196.930625 
L 83.6975 196.930625 
" style="fill:none;stroke:#e69b04;stroke-linecap:square;stroke-width:2;"/>
    </g>
    <g id="line2d_20"/>
    <g id="text_16">
     <!-- 8 TFs -->
     <defs>
      <path id="DejaVuSans-32"/>
      <path d="M -0.296875 72.90625 
L 61.375 72.90625 
L 61.375 64.59375 
L 35.5 64.59375 
L 35.5 0 
L 25.59375 0 
L 25.59375 64.59375 
L -0.296875 64.59375 
z
" id="DejaVuSans-84"/>
      <path d="M 9.8125 72.90625 
L 51.703125 72.90625 
L 51.703125 64.59375 
L 19.671875 64.59375 
L 19.671875 43.109375 
L 48.578125 43.109375 
L 48.578125 34.8125 
L 19.671875 34.8125 
L 19.671875 0 
L 9.8125 0 
z
" id="DejaVuSans-70"/>
     </defs>
     <g transform="translate(93.2975 201.130625)scale(0.12 -0.12)">
      <use xlink:href="#DejaVuSans-56"/>
      <use x="63.623047" xlink:href="#DejaVuSans-32"/>
      <use x="95.410156" xlink:href="#DejaVuSans-84"/>
      <use x="156.494141" xlink:href="#DejaVuSans-70"/>
      <use x="214.013672" xlink:href="#DejaVuSans-115"/>
     </g>
    </g>
    <g id="line2d_21">
     <path d="M 59.6975 214.544375 
L 83.6975 214.544375 
" style="fill:none;stroke:#009980;stroke-linecap:square;stroke-width:2;"/>
    </g>
    <g id="line2d_22"/>
    <g id="text_17">
     <!-- CRX -->
     <defs>
      <path d="M 64.40625 67.28125 
L 64.40625 56.890625 
Q 59.421875 61.53125 53.78125 63.8125 
Q 48.140625 66.109375 41.796875 66.109375 
Q 29.296875 66.109375 22.65625 58.46875 
Q 16.015625 50.828125 16.015625 36.375 
Q 16.015625 21.96875 22.65625 14.328125 
Q 29.296875 6.6875 41.796875 6.6875 
Q 48.140625 6.6875 53.78125 8.984375 
Q 59.421875 11.28125 64.40625 15.921875 
L 64.40625 5.609375 
Q 59.234375 2.09375 53.4375 0.328125 
Q 47.65625 -1.421875 41.21875 -1.421875 
Q 24.65625 -1.421875 15.125 8.703125 
Q 5.609375 18.84375 5.609375 36.375 
Q 5.609375 53.953125 15.125 64.078125 
Q 24.65625 74.21875 41.21875 74.21875 
Q 47.75 74.21875 53.53125 72.484375 
Q 59.328125 70.75 64.40625 67.28125 
z
" id="DejaVuSans-67"/>
      <path d="M 6.296875 72.90625 
L 16.890625 72.90625 
L 35.015625 45.796875 
L 53.21875 72.90625 
L 63.8125 72.90625 
L 40.375 37.890625 
L 65.375 0 
L 54.78125 0 
L 34.28125 31 
L 13.625 0 
L 2.984375 0 
L 29 38.921875 
z
" id="DejaVuSans-88"/>
     </defs>
     <g transform="translate(93.2975 218.744375)scale(0.12 -0.12)">
      <use xlink:href="#DejaVuSans-67"/>
      <use x="69.824219" xlink:href="#DejaVuSans-82"/>
      <use x="139.306641" xlink:href="#DejaVuSans-88"/>
     </g>
    </g>
   </g>
  </g>
 </g>
 <defs>
  <clipPath id="paa1d9e4814">
   <rect height="221.34" width="221.34" x="48.8975" y="10.7"/>
  </clipPath>
 </defs>
</svg>
