<?xml version="1.0" encoding="utf-8" standalone="no"?>
<!DOCTYPE svg PUBLIC "-//W3C//DTD SVG 1.1//EN"
  "http://www.w3.org/Graphics/SVG/1.1/DTD/svg11.dtd">
<!-- Created with matplotlib (https://matplotlib.org/) -->
<svg height="273.4675pt" version="1.1" viewBox="0 0 280.9375 273.4675" width="280.9375pt" xmlns="http://www.w3.org/2000/svg" xmlns:xlink="http://www.w3.org/1999/xlink">
 <defs>
  <style type="text/css">
*{stroke-linecap:butt;stroke-linejoin:round;}
  </style>
 </defs>
 <g id="figure_1">
  <g id="patch_1">
   <path d="M 0 273.4675 
L 280.9375 273.4675 
L 280.9375 0 
L 0 0 
z
" style="fill:#ffffff;"/>
  </g>
  <g id="axes_1">
   <g id="patch_2">
    <path d="M 48.8975 232.04 
L 270.2375 232.04 
L 270.2375 10.7 
L 48.8975 10.7 
z
" style="fill:#ffffff;"/>
   </g>
   <g id="matplotlib.axis_1">
    <g id="xtick_1">
     <g id="line2d_1">
      <defs>
       <path d="M 0 0 
L 0 3.5 
" id="m5f67aeef62" style="stroke:#000000;stroke-width:0.8;"/>
      </defs>
      <g>
       <use style="stroke:#000000;stroke-width:0.8;" x="58.958409" xlink:href="#m5f67aeef62" y="232.04"/>
      </g>
     </g>
     <g id="text_1">
      <!-- 0.0 -->
      <defs>
       <path d="M 31.78125 66.40625 
Q 24.171875 66.40625 20.328125 58.90625 
Q 16.5 51.421875 16.5 36.375 
Q 16.5 21.390625 20.328125 13.890625 
Q 24.171875 6.390625 31.78125 6.390625 
Q 39.453125 6.390625 43.28125 13.890625 
Q 47.125 21.390625 47.125 36.375 
Q 47.125 51.421875 43.28125 58.90625 
Q 39.453125 66.40625 31.78125 66.40625 
z
M 31.78125 74.21875 
Q 44.046875 74.21875 50.515625 64.515625 
Q 56.984375 54.828125 56.984375 36.375 
Q 56.984375 17.96875 50.515625 8.265625 
Q 44.046875 -1.421875 31.78125 -1.421875 
Q 19.53125 -1.421875 13.0625 8.265625 
Q 6.59375 17.96875 6.59375 36.375 
Q 6.59375 54.828125 13.0625 64.515625 
Q 19.53125 74.21875 31.78125 74.21875 
z
" id="DejaVuSans-48"/>
       <path d="M 10.6875 12.40625 
L 21 12.40625 
L 21 0 
L 10.6875 0 
z
" id="DejaVuSans-46"/>
      </defs>
      <g transform="translate(49.416534 248.158125)scale(0.12 -0.12)">
       <use xlink:href="#DejaVuSans-48"/>
       <use x="63.623047" xlink:href="#DejaVuSans-46"/>
       <use x="95.410156" xlink:href="#DejaVuSans-48"/>
      </g>
     </g>
    </g>
    <g id="xtick_2">
     <g id="line2d_2">
      <g>
       <use style="stroke:#000000;stroke-width:0.8;" x="99.202045" xlink:href="#m5f67aeef62" y="232.04"/>
      </g>
     </g>
     <g id="text_2">
      <!-- 0.2 -->
      <defs>
       <path d="M 19.1875 8.296875 
L 53.609375 8.296875 
L 53.609375 0 
L 7.328125 0 
L 7.328125 8.296875 
Q 12.9375 14.109375 22.625 23.890625 
Q 32.328125 33.6875 34.8125 36.53125 
Q 39.546875 41.84375 41.421875 45.53125 
Q 43.3125 49.21875 43.3125 52.78125 
Q 43.3125 58.59375 39.234375 62.25 
Q 35.15625 65.921875 28.609375 65.921875 
Q 23.96875 65.921875 18.8125 64.3125 
Q 13.671875 62.703125 7.8125 59.421875 
L 7.8125 69.390625 
Q 13.765625 71.78125 18.9375 73 
Q 24.125 74.21875 28.421875 74.21875 
Q 39.75 74.21875 46.484375 68.546875 
Q 53.21875 62.890625 53.21875 53.421875 
Q 53.21875 48.921875 51.53125 44.890625 
Q 49.859375 40.875 45.40625 35.40625 
Q 44.1875 33.984375 37.640625 27.21875 
Q 31.109375 20.453125 19.1875 8.296875 
z
" id="DejaVuSans-50"/>
      </defs>
      <g transform="translate(89.66017 248.158125)scale(0.12 -0.12)">
       <use xlink:href="#DejaVuSans-48"/>
       <use x="63.623047" xlink:href="#DejaVuSans-46"/>
       <use x="95.410156" xlink:href="#DejaVuSans-50"/>
      </g>
     </g>
    </g>
    <g id="xtick_3">
     <g id="line2d_3">
      <g>
       <use style="stroke:#000000;stroke-width:0.8;" x="139.445682" xlink:href="#m5f67aeef62" y="232.04"/>
      </g>
     </g>
     <g id="text_3">
      <!-- 0.4 -->
      <defs>
       <path d="M 37.796875 64.3125 
L 12.890625 25.390625 
L 37.796875 25.390625 
z
M 35.203125 72.90625 
L 47.609375 72.90625 
L 47.609375 25.390625 
L 58.015625 25.390625 
L 58.015625 17.1875 
L 47.609375 17.1875 
L 47.609375 0 
L 37.796875 0 
L 37.796875 17.1875 
L 4.890625 17.1875 
L 4.890625 26.703125 
z
" id="DejaVuSans-52"/>
      </defs>
      <g transform="translate(129.903807 248.158125)scale(0.12 -0.12)">
       <use xlink:href="#DejaVuSans-48"/>
       <use x="63.623047" xlink:href="#DejaVuSans-46"/>
       <use x="95.410156" xlink:href="#DejaVuSans-52"/>
      </g>
     </g>
    </g>
    <g id="xtick_4">
     <g id="line2d_4">
      <g>
       <use style="stroke:#000000;stroke-width:0.8;" x="179.689318" xlink:href="#m5f67aeef62" y="232.04"/>
      </g>
     </g>
     <g id="text_4">
      <!-- 0.6 -->
      <defs>
       <path d="M 33.015625 40.375 
Q 26.375 40.375 22.484375 35.828125 
Q 18.609375 31.296875 18.609375 23.390625 
Q 18.609375 15.53125 22.484375 10.953125 
Q 26.375 6.390625 33.015625 6.390625 
Q 39.65625 6.390625 43.53125 10.953125 
Q 47.40625 15.53125 47.40625 23.390625 
Q 47.40625 31.296875 43.53125 35.828125 
Q 39.65625 40.375 33.015625 40.375 
z
M 52.59375 71.296875 
L 52.59375 62.3125 
Q 48.875 64.0625 45.09375 64.984375 
Q 41.3125 65.921875 37.59375 65.921875 
Q 27.828125 65.921875 22.671875 59.328125 
Q 17.53125 52.734375 16.796875 39.40625 
Q 19.671875 43.65625 24.015625 45.921875 
Q 28.375 48.1875 33.59375 48.1875 
Q 44.578125 48.1875 50.953125 41.515625 
Q 57.328125 34.859375 57.328125 23.390625 
Q 57.328125 12.15625 50.6875 5.359375 
Q 44.046875 -1.421875 33.015625 -1.421875 
Q 20.359375 -1.421875 13.671875 8.265625 
Q 6.984375 17.96875 6.984375 36.375 
Q 6.984375 53.65625 15.1875 63.9375 
Q 23.390625 74.21875 37.203125 74.21875 
Q 40.921875 74.21875 44.703125 73.484375 
Q 48.484375 72.75 52.59375 71.296875 
z
" id="DejaVuSans-54"/>
      </defs>
      <g transform="translate(170.147443 248.158125)scale(0.12 -0.12)">
       <use xlink:href="#DejaVuSans-48"/>
       <use x="63.623047" xlink:href="#DejaVuSans-46"/>
       <use x="95.410156" xlink:href="#DejaVuSans-54"/>
      </g>
     </g>
    </g>
    <g id="xtick_5">
     <g id="line2d_5">
      <g>
       <use style="stroke:#000000;stroke-width:0.8;" x="219.932955" xlink:href="#m5f67aeef62" y="232.04"/>
      </g>
     </g>
     <g id="text_5">
      <!-- 0.8 -->
      <defs>
       <path d="M 31.78125 34.625 
Q 24.75 34.625 20.71875 30.859375 
Q 16.703125 27.09375 16.703125 20.515625 
Q 16.703125 13.921875 20.71875 10.15625 
Q 24.75 6.390625 31.78125 6.390625 
Q 38.8125 6.390625 42.859375 10.171875 
Q 46.921875 13.96875 46.921875 20.515625 
Q 46.921875 27.09375 42.890625 30.859375 
Q 38.875 34.625 31.78125 34.625 
z
M 21.921875 38.8125 
Q 15.578125 40.375 12.03125 44.71875 
Q 8.5 49.078125 8.5 55.328125 
Q 8.5 64.0625 14.71875 69.140625 
Q 20.953125 74.21875 31.78125 74.21875 
Q 42.671875 74.21875 48.875 69.140625 
Q 55.078125 64.0625 55.078125 55.328125 
Q 55.078125 49.078125 51.53125 44.71875 
Q 48 40.375 41.703125 38.8125 
Q 48.828125 37.15625 52.796875 32.3125 
Q 56.78125 27.484375 56.78125 20.515625 
Q 56.78125 9.90625 50.3125 4.234375 
Q 43.84375 -1.421875 31.78125 -1.421875 
Q 19.734375 -1.421875 13.25 4.234375 
Q 6.78125 9.90625 6.78125 20.515625 
Q 6.78125 27.484375 10.78125 32.3125 
Q 14.796875 37.15625 21.921875 38.8125 
z
M 18.3125 54.390625 
Q 18.3125 48.734375 21.84375 45.5625 
Q 25.390625 42.390625 31.78125 42.390625 
Q 38.140625 42.390625 41.71875 45.5625 
Q 45.3125 48.734375 45.3125 54.390625 
Q 45.3125 60.0625 41.71875 63.234375 
Q 38.140625 66.40625 31.78125 66.40625 
Q 25.390625 66.40625 21.84375 63.234375 
Q 18.3125 60.0625 18.3125 54.390625 
z
" id="DejaVuSans-56"/>
      </defs>
      <g transform="translate(210.39108 248.158125)scale(0.12 -0.12)">
       <use xlink:href="#DejaVuSans-48"/>
       <use x="63.623047" xlink:href="#DejaVuSans-46"/>
       <use x="95.410156" xlink:href="#DejaVuSans-56"/>
      </g>
     </g>
    </g>
    <g id="xtick_6">
     <g id="line2d_6">
      <g>
       <use style="stroke:#000000;stroke-width:0.8;" x="260.176591" xlink:href="#m5f67aeef62" y="232.04"/>
      </g>
     </g>
     <g id="text_6">
      <!-- 1.0 -->
      <defs>
       <path d="M 12.40625 8.296875 
L 28.515625 8.296875 
L 28.515625 63.921875 
L 10.984375 60.40625 
L 10.984375 69.390625 
L 28.421875 72.90625 
L 38.28125 72.90625 
L 38.28125 8.296875 
L 54.390625 8.296875 
L 54.390625 0 
L 12.40625 0 
z
" id="DejaVuSans-49"/>
      </defs>
      <g transform="translate(250.634716 248.158125)scale(0.12 -0.12)">
       <use xlink:href="#DejaVuSans-49"/>
       <use x="63.623047" xlink:href="#DejaVuSans-46"/>
       <use x="95.410156" xlink:href="#DejaVuSans-48"/>
      </g>
     </g>
    </g>
    <g id="text_7">
     <!-- Recall -->
     <defs>
      <path d="M 44.390625 34.1875 
Q 47.5625 33.109375 50.5625 29.59375 
Q 53.5625 26.078125 56.59375 19.921875 
L 66.609375 0 
L 56 0 
L 46.6875 18.703125 
Q 43.0625 26.03125 39.671875 28.421875 
Q 36.28125 30.8125 30.421875 30.8125 
L 19.671875 30.8125 
L 19.671875 0 
L 9.8125 0 
L 9.8125 72.90625 
L 32.078125 72.90625 
Q 44.578125 72.90625 50.734375 67.671875 
Q 56.890625 62.453125 56.890625 51.90625 
Q 56.890625 45.015625 53.6875 40.46875 
Q 50.484375 35.9375 44.390625 34.1875 
z
M 19.671875 64.796875 
L 19.671875 38.921875 
L 32.078125 38.921875 
Q 39.203125 38.921875 42.84375 42.21875 
Q 46.484375 45.515625 46.484375 51.90625 
Q 46.484375 58.296875 42.84375 61.546875 
Q 39.203125 64.796875 32.078125 64.796875 
z
" id="DejaVuSans-82"/>
      <path d="M 56.203125 29.59375 
L 56.203125 25.203125 
L 14.890625 25.203125 
Q 15.484375 15.921875 20.484375 11.0625 
Q 25.484375 6.203125 34.421875 6.203125 
Q 39.59375 6.203125 44.453125 7.46875 
Q 49.3125 8.734375 54.109375 11.28125 
L 54.109375 2.78125 
Q 49.265625 0.734375 44.1875 -0.34375 
Q 39.109375 -1.421875 33.890625 -1.421875 
Q 20.796875 -1.421875 13.15625 6.1875 
Q 5.515625 13.8125 5.515625 26.8125 
Q 5.515625 40.234375 12.765625 48.109375 
Q 20.015625 56 32.328125 56 
Q 43.359375 56 49.78125 48.890625 
Q 56.203125 41.796875 56.203125 29.59375 
z
M 47.21875 32.234375 
Q 47.125 39.59375 43.09375 43.984375 
Q 39.0625 48.390625 32.421875 48.390625 
Q 24.90625 48.390625 20.390625 44.140625 
Q 15.875 39.890625 15.1875 32.171875 
z
" id="DejaVuSans-101"/>
      <path d="M 48.78125 52.59375 
L 48.78125 44.1875 
Q 44.96875 46.296875 41.140625 47.34375 
Q 37.3125 48.390625 33.40625 48.390625 
Q 24.65625 48.390625 19.8125 42.84375 
Q 14.984375 37.3125 14.984375 27.296875 
Q 14.984375 17.28125 19.8125 11.734375 
Q 24.65625 6.203125 33.40625 6.203125 
Q 37.3125 6.203125 41.140625 7.25 
Q 44.96875 8.296875 48.78125 10.40625 
L 48.78125 2.09375 
Q 45.015625 0.34375 40.984375 -0.53125 
Q 36.96875 -1.421875 32.421875 -1.421875 
Q 20.0625 -1.421875 12.78125 6.34375 
Q 5.515625 14.109375 5.515625 27.296875 
Q 5.515625 40.671875 12.859375 48.328125 
Q 20.21875 56 33.015625 56 
Q 37.15625 56 41.109375 55.140625 
Q 45.0625 54.296875 48.78125 52.59375 
z
" id="DejaVuSans-99"/>
      <path d="M 34.28125 27.484375 
Q 23.390625 27.484375 19.1875 25 
Q 14.984375 22.515625 14.984375 16.5 
Q 14.984375 11.71875 18.140625 8.90625 
Q 21.296875 6.109375 26.703125 6.109375 
Q 34.1875 6.109375 38.703125 11.40625 
Q 43.21875 16.703125 43.21875 25.484375 
L 43.21875 27.484375 
z
M 52.203125 31.203125 
L 52.203125 0 
L 43.21875 0 
L 43.21875 8.296875 
Q 40.140625 3.328125 35.546875 0.953125 
Q 30.953125 -1.421875 24.3125 -1.421875 
Q 15.921875 -1.421875 10.953125 3.296875 
Q 6 8.015625 6 15.921875 
Q 6 25.140625 12.171875 29.828125 
Q 18.359375 34.515625 30.609375 34.515625 
L 43.21875 34.515625 
L 43.21875 35.40625 
Q 43.21875 41.609375 39.140625 45 
Q 35.0625 48.390625 27.6875 48.390625 
Q 23 48.390625 18.546875 47.265625 
Q 14.109375 46.140625 10.015625 43.890625 
L 10.015625 52.203125 
Q 14.9375 54.109375 19.578125 55.046875 
Q 24.21875 56 28.609375 56 
Q 40.484375 56 46.34375 49.84375 
Q 52.203125 43.703125 52.203125 31.203125 
z
" id="DejaVuSans-97"/>
      <path d="M 9.421875 75.984375 
L 18.40625 75.984375 
L 18.40625 0 
L 9.421875 0 
z
" id="DejaVuSans-108"/>
     </defs>
     <g transform="translate(141.400625 263.771875)scale(0.12 -0.12)">
      <use xlink:href="#DejaVuSans-82"/>
      <use x="69.419922" xlink:href="#DejaVuSans-101"/>
      <use x="130.943359" xlink:href="#DejaVuSans-99"/>
      <use x="185.923828" xlink:href="#DejaVuSans-97"/>
      <use x="247.203125" xlink:href="#DejaVuSans-108"/>
      <use x="274.986328" xlink:href="#DejaVuSans-108"/>
     </g>
    </g>
   </g>
   <g id="matplotlib.axis_2">
    <g id="ytick_1">
     <g id="line2d_7">
      <defs>
       <path d="M 0 0 
L -3.5 0 
" id="mea5bea8393" style="stroke:#000000;stroke-width:0.8;"/>
      </defs>
      <g>
       <use style="stroke:#000000;stroke-width:0.8;" x="48.8975" xlink:href="#mea5bea8393" y="221.979091"/>
      </g>
     </g>
     <g id="text_8">
      <!-- 0.0 -->
      <g transform="translate(22.81375 226.538153)scale(0.12 -0.12)">
       <use xlink:href="#DejaVuSans-48"/>
       <use x="63.623047" xlink:href="#DejaVuSans-46"/>
       <use x="95.410156" xlink:href="#DejaVuSans-48"/>
      </g>
     </g>
    </g>
    <g id="ytick_2">
     <g id="line2d_8">
      <g>
       <use style="stroke:#000000;stroke-width:0.8;" x="48.8975" xlink:href="#mea5bea8393" y="181.735455"/>
      </g>
     </g>
     <g id="text_9">
      <!-- 0.2 -->
      <g transform="translate(22.81375 186.294517)scale(0.12 -0.12)">
       <use xlink:href="#DejaVuSans-48"/>
       <use x="63.623047" xlink:href="#DejaVuSans-46"/>
       <use x="95.410156" xlink:href="#DejaVuSans-50"/>
      </g>
     </g>
    </g>
    <g id="ytick_3">
     <g id="line2d_9">
      <g>
       <use style="stroke:#000000;stroke-width:0.8;" x="48.8975" xlink:href="#mea5bea8393" y="141.491818"/>
      </g>
     </g>
     <g id="text_10">
      <!-- 0.4 -->
      <g transform="translate(22.81375 146.050881)scale(0.12 -0.12)">
       <use xlink:href="#DejaVuSans-48"/>
       <use x="63.623047" xlink:href="#DejaVuSans-46"/>
       <use x="95.410156" xlink:href="#DejaVuSans-52"/>
      </g>
     </g>
    </g>
    <g id="ytick_4">
     <g id="line2d_10">
      <g>
       <use style="stroke:#000000;stroke-width:0.8;" x="48.8975" xlink:href="#mea5bea8393" y="101.248182"/>
      </g>
     </g>
     <g id="text_11">
      <!-- 0.6 -->
      <g transform="translate(22.81375 105.807244)scale(0.12 -0.12)">
       <use xlink:href="#DejaVuSans-48"/>
       <use x="63.623047" xlink:href="#DejaVuSans-46"/>
       <use x="95.410156" xlink:href="#DejaVuSans-54"/>
      </g>
     </g>
    </g>
    <g id="ytick_5">
     <g id="line2d_11">
      <g>
       <use style="stroke:#000000;stroke-width:0.8;" x="48.8975" xlink:href="#mea5bea8393" y="61.004545"/>
      </g>
     </g>
     <g id="text_12">
      <!-- 0.8 -->
      <g transform="translate(22.81375 65.563608)scale(0.12 -0.12)">
       <use xlink:href="#DejaVuSans-48"/>
       <use x="63.623047" xlink:href="#DejaVuSans-46"/>
       <use x="95.410156" xlink:href="#DejaVuSans-56"/>
      </g>
     </g>
    </g>
    <g id="ytick_6">
     <g id="line2d_12">
      <g>
       <use style="stroke:#000000;stroke-width:0.8;" x="48.8975" xlink:href="#mea5bea8393" y="20.760909"/>
      </g>
     </g>
     <g id="text_13">
      <!-- 1.0 -->
      <g transform="translate(22.81375 25.319972)scale(0.12 -0.12)">
       <use xlink:href="#DejaVuSans-49"/>
       <use x="63.623047" xlink:href="#DejaVuSans-46"/>
       <use x="95.410156" xlink:href="#DejaVuSans-48"/>
      </g>
     </g>
    </g>
    <g id="text_14">
     <!-- Precision -->
     <defs>
      <path d="M 19.671875 64.796875 
L 19.671875 37.40625 
L 32.078125 37.40625 
Q 38.96875 37.40625 42.71875 40.96875 
Q 46.484375 44.53125 46.484375 51.125 
Q 46.484375 57.671875 42.71875 61.234375 
Q 38.96875 64.796875 32.078125 64.796875 
z
M 9.8125 72.90625 
L 32.078125 72.90625 
Q 44.34375 72.90625 50.609375 67.359375 
Q 56.890625 61.8125 56.890625 51.125 
Q 56.890625 40.328125 50.609375 34.8125 
Q 44.34375 29.296875 32.078125 29.296875 
L 19.671875 29.296875 
L 19.671875 0 
L 9.8125 0 
z
" id="DejaVuSans-80"/>
      <path d="M 41.109375 46.296875 
Q 39.59375 47.171875 37.8125 47.578125 
Q 36.03125 48 33.890625 48 
Q 26.265625 48 22.1875 43.046875 
Q 18.109375 38.09375 18.109375 28.8125 
L 18.109375 0 
L 9.078125 0 
L 9.078125 54.6875 
L 18.109375 54.6875 
L 18.109375 46.1875 
Q 20.953125 51.171875 25.484375 53.578125 
Q 30.03125 56 36.53125 56 
Q 37.453125 56 38.578125 55.875 
Q 39.703125 55.765625 41.0625 55.515625 
z
" id="DejaVuSans-114"/>
      <path d="M 9.421875 54.6875 
L 18.40625 54.6875 
L 18.40625 0 
L 9.421875 0 
z
M 9.421875 75.984375 
L 18.40625 75.984375 
L 18.40625 64.59375 
L 9.421875 64.59375 
z
" id="DejaVuSans-105"/>
      <path d="M 44.28125 53.078125 
L 44.28125 44.578125 
Q 40.484375 46.53125 36.375 47.5 
Q 32.28125 48.484375 27.875 48.484375 
Q 21.1875 48.484375 17.84375 46.4375 
Q 14.5 44.390625 14.5 40.28125 
Q 14.5 37.15625 16.890625 35.375 
Q 19.28125 33.59375 26.515625 31.984375 
L 29.59375 31.296875 
Q 39.15625 29.25 43.1875 25.515625 
Q 47.21875 21.78125 47.21875 15.09375 
Q 47.21875 7.46875 41.1875 3.015625 
Q 35.15625 -1.421875 24.609375 -1.421875 
Q 20.21875 -1.421875 15.453125 -0.5625 
Q 10.6875 0.296875 5.421875 2 
L 5.421875 11.28125 
Q 10.40625 8.6875 15.234375 7.390625 
Q 20.0625 6.109375 24.8125 6.109375 
Q 31.15625 6.109375 34.5625 8.28125 
Q 37.984375 10.453125 37.984375 14.40625 
Q 37.984375 18.0625 35.515625 20.015625 
Q 33.0625 21.96875 24.703125 23.78125 
L 21.578125 24.515625 
Q 13.234375 26.265625 9.515625 29.90625 
Q 5.8125 33.546875 5.8125 39.890625 
Q 5.8125 47.609375 11.28125 51.796875 
Q 16.75 56 26.8125 56 
Q 31.78125 56 36.171875 55.265625 
Q 40.578125 54.546875 44.28125 53.078125 
z
" id="DejaVuSans-115"/>
      <path d="M 30.609375 48.390625 
Q 23.390625 48.390625 19.1875 42.75 
Q 14.984375 37.109375 14.984375 27.296875 
Q 14.984375 17.484375 19.15625 11.84375 
Q 23.34375 6.203125 30.609375 6.203125 
Q 37.796875 6.203125 41.984375 11.859375 
Q 46.1875 17.53125 46.1875 27.296875 
Q 46.1875 37.015625 41.984375 42.703125 
Q 37.796875 48.390625 30.609375 48.390625 
z
M 30.609375 56 
Q 42.328125 56 49.015625 48.375 
Q 55.71875 40.765625 55.71875 27.296875 
Q 55.71875 13.875 49.015625 6.21875 
Q 42.328125 -1.421875 30.609375 -1.421875 
Q 18.84375 -1.421875 12.171875 6.21875 
Q 5.515625 13.875 5.515625 27.296875 
Q 5.515625 40.765625 12.171875 48.375 
Q 18.84375 56 30.609375 56 
z
" id="DejaVuSans-111"/>
      <path d="M 54.890625 33.015625 
L 54.890625 0 
L 45.90625 0 
L 45.90625 32.71875 
Q 45.90625 40.484375 42.875 44.328125 
Q 39.84375 48.1875 33.796875 48.1875 
Q 26.515625 48.1875 22.3125 43.546875 
Q 18.109375 38.921875 18.109375 30.90625 
L 18.109375 0 
L 9.078125 0 
L 9.078125 54.6875 
L 18.109375 54.6875 
L 18.109375 46.1875 
Q 21.34375 51.125 25.703125 53.5625 
Q 30.078125 56 35.796875 56 
Q 45.21875 56 50.046875 50.171875 
Q 54.890625 44.34375 54.890625 33.015625 
z
" id="DejaVuSans-110"/>
     </defs>
     <g transform="translate(16.318125 148.375625)rotate(-90)scale(0.12 -0.12)">
      <use xlink:href="#DejaVuSans-80"/>
      <use x="60.287109" xlink:href="#DejaVuSans-114"/>
      <use x="101.369141" xlink:href="#DejaVuSans-101"/>
      <use x="162.892578" xlink:href="#DejaVuSans-99"/>
      <use x="217.873047" xlink:href="#DejaVuSans-105"/>
      <use x="245.65625" xlink:href="#DejaVuSans-115"/>
      <use x="297.755859" xlink:href="#DejaVuSans-105"/>
      <use x="325.539062" xlink:href="#DejaVuSans-111"/>
      <use x="386.720703" xlink:href="#DejaVuSans-110"/>
     </g>
    </g>
   </g>
   <g id="PolyCollection_1">
    <defs>
     <path d="M 58.958409 -172.219318 
L 58.958409 -51.488409 
L 60.990916 -151.575271 
L 63.023423 -169.908751 
L 65.05593 -177.337538 
L 67.088437 -179.284682 
L 69.120944 -189.323551 
L 71.15345 -180.858389 
L 73.185957 -187.69615 
L 75.218464 -193.3383 
L 77.250971 -185.481716 
L 79.283478 -186.085816 
L 81.315985 -191.163148 
L 83.348492 -194.833944 
L 85.380999 -196.344941 
L 87.413506 -195.251083 
L 89.446012 -196.390467 
L 91.478519 -193.080517 
L 93.511026 -185.979491 
L 95.543533 -188.46685 
L 97.57604 -188.250859 
L 99.608547 -188.918813 
L 101.641054 -189.008141 
L 103.673561 -187.804076 
L 105.706067 -186.525458 
L 107.738574 -188.177214 
L 109.771081 -187.652703 
L 111.803588 -186.998174 
L 113.836095 -188.164439 
L 115.868602 -188.52434 
L 117.901109 -186.666882 
L 119.933616 -187.367456 
L 121.966123 -187.351977 
L 123.998629 -185.493514 
L 126.031136 -185.053277 
L 128.063643 -183.678653 
L 130.09615 -184.64056 
L 132.128657 -184.890863 
L 134.161164 -185.13921 
L 136.193671 -186.637935 
L 138.226178 -186.507319 
L 140.258685 -185.628107 
L 142.291191 -185.608815 
L 144.323698 -185.139391 
L 146.356205 -185.350261 
L 148.388712 -185.3307 
L 150.421219 -184.815574 
L 152.453726 -184.350211 
L 154.486233 -183.92804 
L 156.51874 -183.569714 
L 158.551247 -183.119454 
L 160.583753 -183.169343 
L 162.61626 -181.517267 
L 164.648767 -182.005699 
L 166.681274 -181.463022 
L 168.713781 -181.02148 
L 170.746288 -180.802755 
L 172.778795 -181.432598 
L 174.811302 -179.873134 
L 176.843809 -179.116814 
L 178.876315 -179.277689 
L 180.908822 -178.78393 
L 182.941329 -178.195949 
L 184.973836 -178.596995 
L 187.006343 -178.78649 
L 189.03885 -178.820225 
L 191.071357 -178.79167 
L 193.103864 -178.380273 
L 195.136371 -177.990877 
L 197.168877 -178.283247 
L 199.201384 -175.422174 
L 201.233891 -175.448628 
L 203.266398 -175.005346 
L 205.298905 -174.530337 
L 207.331412 -174.628389 
L 209.363919 -174.906374 
L 211.396426 -173.977177 
L 213.428933 -174.033684 
L 215.461439 -173.729216 
L 217.493946 -173.673869 
L 219.526453 -173.606024 
L 221.55896 -172.553487 
L 223.591467 -172.823155 
L 225.623974 -172.73219 
L 227.656481 -171.633128 
L 229.688988 -170.881926 
L 231.721494 -170.005331 
L 233.754001 -169.784239 
L 235.786508 -169.19293 
L 237.819015 -168.469306 
L 239.851522 -168.666361 
L 241.884029 -168.818946 
L 243.916536 -167.140657 
L 245.949043 -167.338074 
L 247.98155 -167.432902 
L 250.014056 -166.77154 
L 252.046563 -166.127694 
L 254.07907 -165.724022 
L 256.111577 -164.712576 
L 258.144084 -163.177535 
L 260.176591 -163.492845 
L 260.176591 -163.747786 
L 260.176591 -163.747786 
L 258.144084 -166.358327 
L 256.111577 -167.668795 
L 254.07907 -168.059916 
L 252.046563 -169.826515 
L 250.014056 -171.291484 
L 247.98155 -171.224768 
L 245.949043 -170.959791 
L 243.916536 -171.979719 
L 241.884029 -172.225927 
L 239.851522 -172.183608 
L 237.819015 -173.436719 
L 235.786508 -174.058189 
L 233.754001 -174.376947 
L 231.721494 -175.635103 
L 229.688988 -176.230411 
L 227.656481 -175.783299 
L 225.623974 -176.406372 
L 223.591467 -176.898722 
L 221.55896 -177.430027 
L 219.526453 -177.673827 
L 217.493946 -177.297838 
L 215.461439 -177.120183 
L 213.428933 -178.048223 
L 211.396426 -178.203312 
L 209.363919 -179.354059 
L 207.331412 -179.360996 
L 205.298905 -179.165257 
L 203.266398 -179.859784 
L 201.233891 -179.964294 
L 199.201384 -181.053322 
L 197.168877 -180.934773 
L 195.136371 -182.175671 
L 193.103864 -182.48709 
L 191.071357 -184.31029 
L 189.03885 -184.069933 
L 187.006343 -183.630698 
L 184.973836 -183.610558 
L 182.941329 -183.545147 
L 180.908822 -183.754979 
L 178.876315 -184.663484 
L 176.843809 -185.485271 
L 174.811302 -187.121764 
L 172.778795 -185.838729 
L 170.746288 -185.731498 
L 168.713781 -186.252022 
L 166.681274 -186.238205 
L 164.648767 -185.160658 
L 162.61626 -185.492314 
L 160.583753 -185.586235 
L 158.551247 -186.170189 
L 156.51874 -185.549805 
L 154.486233 -188.302839 
L 152.453726 -188.903957 
L 150.421219 -188.722251 
L 148.388712 -190.130079 
L 146.356205 -190.081135 
L 144.323698 -190.707331 
L 142.291191 -192.41349 
L 140.258685 -191.960054 
L 138.226178 -193.40855 
L 136.193671 -192.36781 
L 134.161164 -193.587346 
L 132.128657 -194.988819 
L 130.09615 -194.818172 
L 128.063643 -193.766741 
L 126.031136 -194.504273 
L 123.998629 -194.097903 
L 121.966123 -199.032139 
L 119.933616 -199.370997 
L 117.901109 -199.168064 
L 115.868602 -199.52002 
L 113.836095 -200.412079 
L 111.803588 -200.72491 
L 109.771081 -201.275109 
L 107.738574 -199.459413 
L 105.706067 -201.071561 
L 103.673561 -204.912459 
L 101.641054 -205.325191 
L 99.608547 -209.965313 
L 97.57604 -211.077468 
L 95.543533 -209.542325 
L 93.511026 -207.537924 
L 91.478519 -212.522679 
L 89.446012 -213.798468 
L 87.413506 -212.917011 
L 85.380999 -210.761065 
L 83.348492 -213.722371 
L 81.315985 -210.931529 
L 79.283478 -211.206935 
L 77.250971 -209.448971 
L 75.218464 -223.663992 
L 73.185957 -220.065158 
L 71.15345 -215.466902 
L 69.120944 -216.653731 
L 67.088437 -221.995075 
L 65.05593 -216.2648 
L 63.023423 -213.705004 
L 60.990916 -223.269669 
L 58.958409 -172.219318 
z
" id="md36ab864e0" style="stroke:#e69b04;stroke-opacity:0.2;"/>
    </defs>
    <g clip-path="url(#p41682b0bf1)">
     <use style="fill:#e69b04;fill-opacity:0.2;stroke:#e69b04;stroke-opacity:0.2;" x="0" xlink:href="#md36ab864e0" y="273.4675"/>
    </g>
   </g>
   <g id="PolyCollection_2">
    <defs>
     <path d="M 58.958409 -252.706591 
L 58.958409 -73.642944 
L 60.990916 -194.827432 
L 63.023423 -187.611494 
L 65.05593 -204.643321 
L 67.088437 -185.259996 
L 69.120944 -194.718631 
L 71.15345 -198.714954 
L 73.185957 -202.514501 
L 75.218464 -202.917435 
L 77.250971 -197.244546 
L 79.283478 -197.54418 
L 81.315985 -196.902212 
L 83.348492 -198.934648 
L 85.380999 -200.438238 
L 87.413506 -198.661946 
L 89.446012 -197.316956 
L 91.478519 -194.893952 
L 93.511026 -192.089827 
L 95.543533 -193.211074 
L 97.57604 -195.452966 
L 99.608547 -195.538788 
L 101.641054 -195.077938 
L 103.673561 -193.815605 
L 105.706067 -190.05817 
L 107.738574 -192.266081 
L 109.771081 -191.80539 
L 111.803588 -192.196101 
L 113.836095 -190.428988 
L 115.868602 -191.234243 
L 117.901109 -191.136137 
L 119.933616 -192.502563 
L 121.966123 -190.49837 
L 123.998629 -191.007595 
L 126.031136 -190.414551 
L 128.063643 -191.191845 
L 130.09615 -191.319155 
L 132.128657 -192.663069 
L 134.161164 -192.351673 
L 136.193671 -191.577974 
L 138.226178 -191.072437 
L 140.258685 -189.489657 
L 142.291191 -188.376548 
L 144.323698 -188.63647 
L 146.356205 -186.652322 
L 148.388712 -184.581721 
L 150.421219 -183.739795 
L 152.453726 -183.054936 
L 154.486233 -182.784731 
L 156.51874 -181.744388 
L 158.551247 -181.294745 
L 160.583753 -179.618186 
L 162.61626 -178.954711 
L 164.648767 -179.040071 
L 166.681274 -179.029252 
L 168.713781 -178.754153 
L 170.746288 -178.515188 
L 172.778795 -177.114565 
L 174.811302 -178.274522 
L 176.843809 -177.405285 
L 178.876315 -177.346591 
L 180.908822 -174.508398 
L 182.941329 -174.209093 
L 184.973836 -174.784576 
L 187.006343 -174.393806 
L 189.03885 -174.123542 
L 191.071357 -173.080199 
L 193.103864 -171.522687 
L 195.136371 -172.786522 
L 197.168877 -172.6233 
L 199.201384 -172.652496 
L 201.233891 -172.60262 
L 203.266398 -171.727593 
L 205.298905 -170.473921 
L 207.331412 -170.686103 
L 209.363919 -170.685483 
L 211.396426 -169.958436 
L 213.428933 -169.421772 
L 215.461439 -168.450903 
L 217.493946 -168.478059 
L 219.526453 -168.566534 
L 221.55896 -167.782964 
L 223.591467 -168.369975 
L 225.623974 -168.394019 
L 227.656481 -168.269989 
L 229.688988 -168.246452 
L 231.721494 -168.278811 
L 233.754001 -167.115977 
L 235.786508 -167.030912 
L 237.819015 -166.183687 
L 239.851522 -165.607894 
L 241.884029 -165.26682 
L 243.916536 -164.305335 
L 245.949043 -163.916716 
L 247.98155 -164.1486 
L 250.014056 -164.158825 
L 252.046563 -162.978946 
L 254.07907 -162.972574 
L 256.111577 -161.214346 
L 258.144084 -158.135335 
L 260.176591 -158.699426 
L 260.176591 -158.978835 
L 260.176591 -158.978835 
L 258.144084 -161.794891 
L 256.111577 -163.422518 
L 254.07907 -164.733624 
L 252.046563 -166.344424 
L 250.014056 -167.177372 
L 247.98155 -168.126832 
L 245.949043 -168.09693 
L 243.916536 -168.372728 
L 241.884029 -169.639989 
L 239.851522 -170.036508 
L 237.819015 -171.10906 
L 235.786508 -171.485294 
L 233.754001 -172.257113 
L 231.721494 -172.213278 
L 229.688988 -172.348366 
L 227.656481 -171.934169 
L 225.623974 -172.568115 
L 223.591467 -173.045458 
L 221.55896 -173.633377 
L 219.526453 -174.315868 
L 217.493946 -175.104163 
L 215.461439 -175.106225 
L 213.428933 -175.505228 
L 211.396426 -175.675954 
L 209.363919 -177.24354 
L 207.331412 -176.669423 
L 205.298905 -176.931606 
L 203.266398 -175.997847 
L 201.233891 -177.389281 
L 199.201384 -177.189796 
L 197.168877 -178.825555 
L 195.136371 -179.876861 
L 193.103864 -182.143032 
L 191.071357 -183.178704 
L 189.03885 -184.19697 
L 187.006343 -184.629559 
L 184.973836 -184.947176 
L 182.941329 -184.248648 
L 180.908822 -184.684292 
L 178.876315 -185.646788 
L 176.843809 -185.343199 
L 174.811302 -185.295258 
L 172.778795 -187.886105 
L 170.746288 -187.93863 
L 168.713781 -187.468881 
L 166.681274 -187.9273 
L 164.648767 -187.725064 
L 162.61626 -187.28381 
L 160.583753 -187.008243 
L 158.551247 -188.479666 
L 156.51874 -188.196371 
L 154.486233 -188.032831 
L 152.453726 -188.369529 
L 150.421219 -189.078978 
L 148.388712 -191.761967 
L 146.356205 -191.632863 
L 144.323698 -192.205172 
L 142.291191 -196.799373 
L 140.258685 -197.270613 
L 138.226178 -196.321308 
L 136.193671 -196.604949 
L 134.161164 -197.71507 
L 132.128657 -197.233354 
L 130.09615 -198.531287 
L 128.063643 -199.096961 
L 126.031136 -199.191488 
L 123.998629 -198.33259 
L 121.966123 -200.018528 
L 119.933616 -201.032041 
L 117.901109 -201.061868 
L 115.868602 -200.819387 
L 113.836095 -204.007507 
L 111.803588 -206.067087 
L 109.771081 -207.569136 
L 107.738574 -209.055696 
L 105.706067 -211.113446 
L 103.673561 -211.927187 
L 101.641054 -210.861475 
L 99.608547 -210.864712 
L 97.57604 -210.359211 
L 95.543533 -209.82296 
L 93.511026 -207.575773 
L 91.478519 -210.184962 
L 89.446012 -214.36726 
L 87.413506 -219.470108 
L 85.380999 -221.261678 
L 83.348492 -221.293026 
L 81.315985 -226.724404 
L 79.283478 -229.408851 
L 77.250971 -227.659136 
L 75.218464 -227.760557 
L 73.185957 -244.025409 
L 71.15345 -244.8247 
L 69.120944 -244.081303 
L 67.088437 -241.8121 
L 65.05593 -240.201156 
L 63.023423 -235.107694 
L 60.990916 -252.706591 
L 58.958409 -252.706591 
z
" id="m191c0d2a66" style="stroke:#440256;stroke-opacity:0.2;"/>
    </defs>
    <g clip-path="url(#p41682b0bf1)">
     <use style="fill:#440256;fill-opacity:0.2;stroke:#440256;stroke-opacity:0.2;" x="0" xlink:href="#m191c0d2a66" y="273.4675"/>
    </g>
   </g>
   <g id="patch_3">
    <path d="M 48.8975 232.04 
L 48.8975 10.7 
" style="fill:none;stroke:#000000;stroke-linecap:square;stroke-linejoin:miter;stroke-width:0.8;"/>
   </g>
   <g id="patch_4">
    <path d="M 270.2375 232.04 
L 270.2375 10.7 
" style="fill:none;stroke:#000000;stroke-linecap:square;stroke-linejoin:miter;stroke-width:0.8;"/>
   </g>
   <g id="patch_5">
    <path d="M 48.8975 232.04 
L 270.2375 232.04 
" style="fill:none;stroke:#000000;stroke-linecap:square;stroke-linejoin:miter;stroke-width:0.8;"/>
   </g>
   <g id="patch_6">
    <path d="M 48.8975 10.7 
L 270.2375 10.7 
" style="fill:none;stroke:#000000;stroke-linecap:square;stroke-linejoin:miter;stroke-width:0.8;"/>
   </g>
   <g id="line2d_13">
    <path clip-path="url(#p41682b0bf1)" d="M 58.958409 181.735455 
L 60.990916 86.04503 
L 63.023423 81.660623 
L 65.05593 76.666331 
L 67.088437 72.827622 
L 69.120944 70.478859 
L 71.15345 75.304854 
L 73.185957 69.586846 
L 75.218464 64.966354 
L 77.250971 76.002157 
L 79.283478 74.821124 
L 81.315985 72.420162 
L 83.348492 69.189342 
L 85.380999 69.914497 
L 87.413506 69.383453 
L 89.446012 68.373033 
L 91.478519 70.665902 
L 93.511026 76.708793 
L 95.543533 74.462913 
L 97.57604 73.803336 
L 99.608547 74.025437 
L 101.641054 76.300834 
L 103.673561 77.109232 
L 105.706067 79.66899 
L 107.738574 79.649186 
L 109.771081 79.003594 
L 111.803588 79.605958 
L 113.836095 79.179241 
L 115.868602 79.44532 
L 117.901109 80.550027 
L 119.933616 80.098274 
L 121.966123 80.275442 
L 123.998629 83.671791 
L 126.031136 83.688725 
L 128.063643 84.744803 
L 130.09615 83.738134 
L 132.128657 83.527659 
L 134.161164 84.104222 
L 136.193671 83.964627 
L 138.226178 83.509565 
L 140.258685 84.673419 
L 142.291191 84.456348 
L 144.323698 85.544139 
L 146.356205 85.751802 
L 148.388712 85.737111 
L 150.421219 86.698587 
L 152.453726 86.840416 
L 154.486233 87.35206 
L 156.51874 88.90774 
L 158.551247 88.822678 
L 160.583753 89.089711 
L 162.61626 89.96271 
L 164.648767 89.884322 
L 166.681274 89.616886 
L 168.713781 89.830749 
L 170.746288 90.200373 
L 172.778795 89.831837 
L 174.811302 89.970051 
L 176.843809 91.166458 
L 178.876315 91.496914 
L 180.908822 92.198045 
L 182.941329 92.596952 
L 184.973836 92.363724 
L 187.006343 92.258906 
L 189.03885 92.022421 
L 191.071357 91.91652 
L 193.103864 93.033819 
L 195.136371 93.384226 
L 197.168877 93.85849 
L 199.201384 95.229752 
L 201.233891 95.761039 
L 203.266398 96.034935 
L 205.298905 96.619703 
L 207.331412 96.472808 
L 209.363919 96.337284 
L 211.396426 97.377255 
L 213.428933 97.426546 
L 215.461439 98.042801 
L 217.493946 97.981647 
L 219.526453 97.827574 
L 221.55896 98.475743 
L 223.591467 98.606561 
L 225.623974 98.898219 
L 227.656481 99.759286 
L 229.688988 99.911332 
L 231.721494 100.647283 
L 233.754001 101.386907 
L 235.786508 101.841941 
L 237.819015 102.514488 
L 239.851522 103.042516 
L 241.884029 102.945064 
L 243.916536 103.907312 
L 245.949043 104.318568 
L 247.98155 104.138665 
L 250.014056 104.435988 
L 252.046563 105.490396 
L 254.07907 106.575531 
L 256.111577 107.276815 
L 258.144084 108.699569 
L 260.176591 109.847184 
" style="fill:none;stroke:#e69b04;stroke-linecap:square;stroke-width:2;"/>
   </g>
   <g id="line2d_14">
    <path clip-path="url(#p41682b0bf1)" d="M 58.958409 101.248182 
L 60.990916 46.776997 
L 63.023423 62.107906 
L 65.05593 51.045262 
L 67.088437 59.931452 
L 69.120944 54.067533 
L 71.15345 51.697673 
L 73.185957 50.197545 
L 75.218464 58.128504 
L 77.250971 61.015659 
L 79.283478 59.990985 
L 81.315985 61.654192 
L 83.348492 63.353663 
L 85.380999 62.617542 
L 87.413506 64.401473 
L 89.446012 67.625392 
L 91.478519 70.928043 
L 93.511026 73.6347 
L 95.543533 71.950483 
L 97.57604 70.561412 
L 99.608547 70.26575 
L 101.641054 70.497793 
L 103.673561 70.596104 
L 105.706067 72.881692 
L 107.738574 72.806611 
L 109.771081 73.780237 
L 111.803588 74.335906 
L 113.836095 76.249253 
L 115.868602 77.440685 
L 117.901109 77.368497 
L 119.933616 76.700198 
L 121.966123 78.209051 
L 123.998629 78.797407 
L 126.031136 78.66448 
L 128.063643 78.323097 
L 130.09615 78.542279 
L 132.128657 78.519288 
L 134.161164 78.434128 
L 136.193671 79.376038 
L 138.226178 79.770627 
L 140.258685 80.087365 
L 142.291191 80.87954 
L 144.323698 83.046679 
L 146.356205 84.324908 
L 148.388712 85.295656 
L 150.421219 87.058114 
L 152.453726 87.755268 
L 154.486233 88.058719 
L 156.51874 88.497121 
L 158.551247 88.580294 
L 160.583753 90.154286 
L 162.61626 90.348239 
L 164.648767 90.084933 
L 166.681274 89.989224 
L 168.713781 90.355983 
L 170.746288 90.240591 
L 172.778795 90.967165 
L 174.811302 91.68261 
L 176.843809 92.093258 
L 178.876315 91.97081 
L 180.908822 93.871155 
L 182.941329 94.238629 
L 184.973836 93.601624 
L 187.006343 93.955818 
L 189.03885 94.307244 
L 191.071357 95.338048 
L 193.103864 96.634641 
L 195.136371 97.135808 
L 197.168877 97.743072 
L 199.201384 98.546354 
L 201.233891 98.471549 
L 203.266398 99.60478 
L 205.298905 99.764736 
L 207.331412 99.789737 
L 209.363919 99.502988 
L 211.396426 100.650305 
L 213.428933 101.004 
L 215.461439 101.688936 
L 217.493946 101.676389 
L 219.526453 102.026299 
L 221.55896 102.759329 
L 223.591467 102.759783 
L 225.623974 102.986433 
L 227.656481 103.365421 
L 229.688988 103.170091 
L 231.721494 103.221455 
L 233.754001 103.780955 
L 235.786508 104.209397 
L 237.819015 104.821126 
L 239.851522 105.645299 
L 241.884029 106.014095 
L 243.916536 107.128469 
L 245.949043 107.460677 
L 247.98155 107.329784 
L 250.014056 107.799402 
L 252.046563 108.805815 
L 254.07907 109.614401 
L 256.111577 111.149068 
L 258.144084 113.502387 
L 260.176591 114.628369 
" style="fill:none;stroke:#440256;stroke-linecap:square;stroke-width:2;"/>
   </g>
   <g id="legend_1">
    <g id="line2d_15">
     <path d="M 165.03875 34.384625 
L 189.03875 34.384625 
" style="fill:none;stroke:#e69b04;stroke-linecap:square;stroke-width:2;"/>
    </g>
    <g id="line2d_16"/>
    <g id="text_15">
     <!-- Strong vs. -->
     <defs>
      <path d="M 53.515625 70.515625 
L 53.515625 60.890625 
Q 47.90625 63.578125 42.921875 64.890625 
Q 37.9375 66.21875 33.296875 66.21875 
Q 25.25 66.21875 20.875 63.09375 
Q 16.5 59.96875 16.5 54.203125 
Q 16.5 49.359375 19.40625 46.890625 
Q 22.3125 44.4375 30.421875 42.921875 
L 36.375 41.703125 
Q 47.40625 39.59375 52.65625 34.296875 
Q 57.90625 29 57.90625 20.125 
Q 57.90625 9.515625 50.796875 4.046875 
Q 43.703125 -1.421875 29.984375 -1.421875 
Q 24.8125 -1.421875 18.96875 -0.25 
Q 13.140625 0.921875 6.890625 3.21875 
L 6.890625 13.375 
Q 12.890625 10.015625 18.65625 8.296875 
Q 24.421875 6.59375 29.984375 6.59375 
Q 38.421875 6.59375 43.015625 9.90625 
Q 47.609375 13.234375 47.609375 19.390625 
Q 47.609375 24.75 44.3125 27.78125 
Q 41.015625 30.8125 33.5 32.328125 
L 27.484375 33.5 
Q 16.453125 35.6875 11.515625 40.375 
Q 6.59375 45.0625 6.59375 53.421875 
Q 6.59375 63.09375 13.40625 68.65625 
Q 20.21875 74.21875 32.171875 74.21875 
Q 37.3125 74.21875 42.625 73.28125 
Q 47.953125 72.359375 53.515625 70.515625 
z
" id="DejaVuSans-83"/>
      <path d="M 18.3125 70.21875 
L 18.3125 54.6875 
L 36.8125 54.6875 
L 36.8125 47.703125 
L 18.3125 47.703125 
L 18.3125 18.015625 
Q 18.3125 11.328125 20.140625 9.421875 
Q 21.96875 7.515625 27.59375 7.515625 
L 36.8125 7.515625 
L 36.8125 0 
L 27.59375 0 
Q 17.1875 0 13.234375 3.875 
Q 9.28125 7.765625 9.28125 18.015625 
L 9.28125 47.703125 
L 2.6875 47.703125 
L 2.6875 54.6875 
L 9.28125 54.6875 
L 9.28125 70.21875 
z
" id="DejaVuSans-116"/>
      <path d="M 45.40625 27.984375 
Q 45.40625 37.75 41.375 43.109375 
Q 37.359375 48.484375 30.078125 48.484375 
Q 22.859375 48.484375 18.828125 43.109375 
Q 14.796875 37.75 14.796875 27.984375 
Q 14.796875 18.265625 18.828125 12.890625 
Q 22.859375 7.515625 30.078125 7.515625 
Q 37.359375 7.515625 41.375 12.890625 
Q 45.40625 18.265625 45.40625 27.984375 
z
M 54.390625 6.78125 
Q 54.390625 -7.171875 48.1875 -13.984375 
Q 42 -20.796875 29.203125 -20.796875 
Q 24.46875 -20.796875 20.265625 -20.09375 
Q 16.0625 -19.390625 12.109375 -17.921875 
L 12.109375 -9.1875 
Q 16.0625 -11.328125 19.921875 -12.34375 
Q 23.78125 -13.375 27.78125 -13.375 
Q 36.625 -13.375 41.015625 -8.765625 
Q 45.40625 -4.15625 45.40625 5.171875 
L 45.40625 9.625 
Q 42.625 4.78125 38.28125 2.390625 
Q 33.9375 0 27.875 0 
Q 17.828125 0 11.671875 7.65625 
Q 5.515625 15.328125 5.515625 27.984375 
Q 5.515625 40.671875 11.671875 48.328125 
Q 17.828125 56 27.875 56 
Q 33.9375 56 38.28125 53.609375 
Q 42.625 51.21875 45.40625 46.390625 
L 45.40625 54.6875 
L 54.390625 54.6875 
z
" id="DejaVuSans-103"/>
      <path id="DejaVuSans-32"/>
      <path d="M 2.984375 54.6875 
L 12.5 54.6875 
L 29.59375 8.796875 
L 46.6875 54.6875 
L 56.203125 54.6875 
L 35.6875 0 
L 23.484375 0 
z
" id="DejaVuSans-118"/>
     </defs>
     <g transform="translate(198.63875 30.618125)scale(0.12 -0.12)">
      <use xlink:href="#DejaVuSans-83"/>
      <use x="63.476562" xlink:href="#DejaVuSans-116"/>
      <use x="102.685547" xlink:href="#DejaVuSans-114"/>
      <use x="143.767578" xlink:href="#DejaVuSans-111"/>
      <use x="204.949219" xlink:href="#DejaVuSans-110"/>
      <use x="268.328125" xlink:href="#DejaVuSans-103"/>
      <use x="331.804688" xlink:href="#DejaVuSans-32"/>
      <use x="363.591797" xlink:href="#DejaVuSans-118"/>
      <use x="422.771484" xlink:href="#DejaVuSans-115"/>
      <use x="474.871094" xlink:href="#DejaVuSans-46"/>
     </g>
     <!-- silencer -->
     <g transform="translate(198.63875 44.0555)scale(0.12 -0.12)">
      <use xlink:href="#DejaVuSans-115"/>
      <use x="52.099609" xlink:href="#DejaVuSans-105"/>
      <use x="79.882812" xlink:href="#DejaVuSans-108"/>
      <use x="107.666016" xlink:href="#DejaVuSans-101"/>
      <use x="169.189453" xlink:href="#DejaVuSans-110"/>
      <use x="232.568359" xlink:href="#DejaVuSans-99"/>
      <use x="287.548828" xlink:href="#DejaVuSans-101"/>
      <use x="349.072266" xlink:href="#DejaVuSans-114"/>
     </g>
    </g>
    <g id="line2d_17">
     <path d="M 165.03875 65.43575 
L 189.03875 65.43575 
" style="fill:none;stroke:#440256;stroke-linecap:square;stroke-width:2;"/>
    </g>
    <g id="line2d_18"/>
    <g id="text_16">
     <!-- Strong vs. -->
     <g transform="translate(198.63875 61.66925)scale(0.12 -0.12)">
      <use xlink:href="#DejaVuSans-83"/>
      <use x="63.476562" xlink:href="#DejaVuSans-116"/>
      <use x="102.685547" xlink:href="#DejaVuSans-114"/>
      <use x="143.767578" xlink:href="#DejaVuSans-111"/>
      <use x="204.949219" xlink:href="#DejaVuSans-110"/>
      <use x="268.328125" xlink:href="#DejaVuSans-103"/>
      <use x="331.804688" xlink:href="#DejaVuSans-32"/>
      <use x="363.591797" xlink:href="#DejaVuSans-118"/>
      <use x="422.771484" xlink:href="#DejaVuSans-115"/>
      <use x="474.871094" xlink:href="#DejaVuSans-46"/>
     </g>
     <!-- inactive -->
     <g transform="translate(198.63875 75.106625)scale(0.12 -0.12)">
      <use xlink:href="#DejaVuSans-105"/>
      <use x="27.783203" xlink:href="#DejaVuSans-110"/>
      <use x="91.162109" xlink:href="#DejaVuSans-97"/>
      <use x="152.441406" xlink:href="#DejaVuSans-99"/>
      <use x="207.421875" xlink:href="#DejaVuSans-116"/>
      <use x="246.630859" xlink:href="#DejaVuSans-105"/>
      <use x="274.414062" xlink:href="#DejaVuSans-118"/>
      <use x="333.59375" xlink:href="#DejaVuSans-101"/>
     </g>
    </g>
   </g>
  </g>
 </g>
 <defs>
  <clipPath id="p41682b0bf1">
   <rect height="221.34" width="221.34" x="48.8975" y="10.7"/>
  </clipPath>
 </defs>
</svg>
